<svg width="24" height="26" viewBox="0 0 24 26" fill="none" xmlns="http://www.w3.org/2000/svg">
<path d="M10.2999 8.12776C10.2072 8.22437 10.1337 8.33942 10.0835 8.46626C10.0333 8.5931 10.0074 8.72919 10.0074 8.86665C10.0074 9.00411 10.0333 9.1402 10.0835 9.26704C10.1337 9.39387 10.2072 9.50893 10.2999 9.60554L12.1999 11.6111H2.99988C2.44988 11.6111 1.99988 12.0861 1.99988 12.6666C1.99988 13.2472 2.44988 13.7222 2.99988 13.7222H12.1999L10.2999 15.7278C10.2072 15.8244 10.1337 15.9394 10.0835 16.0663C10.0333 16.1931 10.0074 16.3292 10.0074 16.4667C10.0074 16.6041 10.0333 16.7402 10.0835 16.867C10.1337 16.9939 10.2072 17.1089 10.2999 17.2055C10.6899 17.6172 11.3099 17.6172 11.6999 17.2055L15.2899 13.4161C15.3826 13.3184 15.4561 13.2024 15.5063 13.0748C15.5565 12.9471 15.5823 12.8102 15.5823 12.6719C15.5823 12.5337 15.5565 12.3968 15.5063 12.2691C15.4561 12.1414 15.3826 12.0254 15.2899 11.9278L11.6999 8.12776C11.6084 8.02997 11.4994 7.95234 11.3792 7.89935C11.259 7.84636 11.1301 7.81907 10.9999 7.81907C10.8697 7.81907 10.7407 7.84636 10.6206 7.89935C10.5004 7.95234 10.3914 8.02997 10.2999 8.12776ZM19.9999 20.0555H12.9999C12.4499 20.0555 11.9999 20.5305 11.9999 21.1111C11.9999 21.6916 12.4499 22.1666 12.9999 22.1666H19.9999C21.0999 22.1666 21.9999 21.2167 21.9999 20.0555V5.27776C21.9999 4.11665 21.0999 3.16665 19.9999 3.16665H12.9999C12.4499 3.16665 11.9999 3.64165 11.9999 4.2222C11.9999 4.80276 12.4499 5.27776 12.9999 5.27776H19.9999V20.0555Z" fill="white"/>
</svg>
