<svg width="625" height="480" viewBox="0 0 625 480" fill="none" xmlns="http://www.w3.org/2000/svg">
<g clip-path="url(#clip0_123_2)">
<g opacity="0.2">
<path d="M139.88 120.195C132.032 116.505 119.052 122.504 114.914 131.285C107.013 148.049 132.564 172.326 141.857 169.721C152.241 166.81 154.29 126.971 139.88 120.195Z" stroke="#CA6868" stroke-width="2.87976" stroke-miterlimit="10" stroke-linecap="round" stroke-dasharray="48 48 48 48 48 48"/>
<path d="M100.623 158.163C97.8228 156.544 68.1524 139.38 51.3608 152.963C39.5718 162.501 39.4583 182.888 48.3181 194.344C65.8661 217.038 120.28 206.864 125.925 190.626C129.727 179.692 111.878 164.674 100.623 158.163Z" stroke="#CA6868" stroke-width="2.87976" stroke-miterlimit="10" stroke-linecap="round" stroke-dasharray="48 48 48 48 48 48"/>
<path d="M138.801 438.38C211.021 420.454 293.082 402.205 420.505 405.313C491.769 407.052 507.917 384.937 561.927 357.441C610.066 332.936 633.709 284.203 619.188 256.585C604.528 228.703 559.876 239.803 523.307 198.298C506.653 179.395 509.583 166.146 499.969 145.183C469.526 78.8076 355.401 26.9272 299.127 54.3838C224.781 90.6562 288.341 247.39 205.235 290.198C152.668 317.281 112.936 265.29 61.0311 304.978C35.313 324.644 3.85865 352.23 1.4262 382.181C1.4262 382.181 -1.97979 455.41 138.801 438.38Z" stroke="#CA6868" stroke-width="2.87976" stroke-miterlimit="10" stroke-linecap="round" stroke-dasharray="48 48 48 48 48 48"/>
<path d="M609.098 474.82C609.098 477.658 476.273 479.96 312.425 479.96C219.976 479.96 137.403 479.228 82.9941 478.078C70.4614 477.814 59.426 477.528 50.1063 477.227C43.9685 477.027 38.5756 476.818 33.9903 476.601C22.1942 476.049 15.7512 475.45 15.7512 474.824C15.7512 474.028 26.209 473.273 44.8725 472.602C52.5147 472.318 61.5335 472.062 71.7742 471.818C89.1731 471.401 110.1 471.031 133.792 470.721C167.193 470.283 206.099 469.965 248.389 469.803C248.41 469.804 248.431 469.804 248.452 469.803C269.052 469.725 290.459 469.684 312.419 469.684C334.423 469.684 355.867 469.725 376.506 469.804C417.932 469.962 456.111 470.27 489.045 470.693C504.673 470.894 519.122 471.119 532.177 471.371C579.975 472.279 609.098 473.491 609.098 474.82Z" fill="#E0AAAA"/>
<path d="M537.808 356.82C537.808 356.82 524.726 374.165 511.641 397.963C500.136 418.895 491.319 446.925 489.054 470.689C456.117 470.263 417.938 469.958 376.514 469.8C356.284 469.596 334.757 469.485 312.428 469.485C290.147 469.485 268.656 469.594 248.46 469.799C248.439 469.8 248.419 469.8 248.398 469.799C206.107 469.96 167.202 470.278 133.8 470.717C84.9044 410.422 -9.8135 307.479 79.0461 264.883C79.0461 264.883 85.621 262.88 95.4786 258.579C124.131 246.073 180.543 214.149 184.034 155.509C184.35 150.083 184.223 144.64 183.656 139.234C183.656 139.234 183.088 136.254 182.509 131.145C181.656 123.593 181.23 115.999 181.232 108.399C181.232 66.4538 194.511 -3.07392 283.163 0.099331C336.849 2.02372 386.291 29.3426 416.183 73.0699C445.503 115.958 492.383 168.722 530.567 138.601C539.38 131.647 551.033 129.067 561.913 132.126C589.385 139.85 620.603 179.808 537.808 356.82Z" fill="#DA9595"/>
</g>
<path d="M501.358 361.603C500.858 361.603 500.378 361.404 500.024 361.05C499.67 360.696 499.471 360.216 499.471 359.715V358.42C499.471 356.002 499.964 353.959 500.949 352.293C501.935 350.627 503.686 349.005 506.2 347.426C508.198 346.167 509.634 345.032 510.509 344.02C511.364 343.063 511.832 341.822 511.822 340.54C511.822 339.499 511.353 338.674 510.417 338.066C509.48 337.458 508.26 337.154 506.755 337.154C503.684 337.154 500.184 338.052 496.253 339.85C495.554 340.171 494.757 340.209 494.03 339.956C493.304 339.704 492.703 339.179 492.354 338.493L489.738 333.374C489.578 333.061 489.483 332.72 489.457 332.369C489.43 332.019 489.474 331.667 489.586 331.333C489.697 331 489.874 330.692 490.105 330.428C490.337 330.164 490.619 329.948 490.934 329.794C496.347 327.137 501.966 325.808 507.79 325.807C513.291 325.807 517.607 327.017 520.738 329.436C523.87 331.855 525.438 335.151 525.441 339.322C525.441 342.31 524.745 344.895 523.351 347.078C521.957 349.26 519.734 351.327 516.681 353.278C514.091 354.957 512.47 356.186 511.816 356.968C511.166 357.738 510.818 358.718 510.837 359.725C510.836 360.226 510.637 360.706 510.283 361.06C509.929 361.414 509.449 361.613 508.948 361.613L501.358 361.603ZM497.878 371.858C497.878 369.587 498.541 367.837 499.865 366.607C501.19 365.377 503.133 364.762 505.695 364.762C508.162 364.762 510.054 365.384 511.372 366.628C512.69 367.872 513.352 369.616 513.359 371.858C513.359 374.1 512.674 375.837 511.305 377.069C509.936 378.301 508.067 378.916 505.698 378.914C503.254 378.914 501.342 378.304 499.96 377.085C498.579 375.865 497.885 374.123 497.878 371.858Z" fill="#EEB2B2"/>
<path d="M495.398 194.709C494.897 194.709 494.417 194.51 494.063 194.156C493.71 193.802 493.511 193.322 493.51 192.822V191.526C493.51 189.108 494.003 187.066 494.989 185.4C495.975 183.734 497.725 182.111 500.24 180.532C502.237 179.274 503.673 178.138 504.548 177.126C505.403 176.169 505.871 174.929 505.861 173.646C505.861 172.605 505.393 171.781 504.456 171.173C503.52 170.564 502.299 170.26 500.795 170.26C497.724 170.26 494.223 171.159 490.293 172.956C489.594 173.278 488.797 173.316 488.07 173.063C487.343 172.81 486.742 172.286 486.393 171.6L483.778 166.481C483.618 166.168 483.522 165.826 483.496 165.476C483.47 165.125 483.514 164.773 483.625 164.44C483.737 164.106 483.913 163.799 484.145 163.534C484.376 163.27 484.658 163.054 484.974 162.9C490.387 160.244 496.005 158.915 501.829 158.914C507.33 158.914 511.646 160.123 514.778 162.543C517.909 164.962 519.477 168.257 519.481 172.429C519.481 175.416 518.784 178.002 517.391 180.184C515.997 182.367 513.774 184.434 510.72 186.385C508.131 188.064 506.509 189.294 505.856 190.074C505.205 190.844 504.857 191.824 504.876 192.832C504.876 193.333 504.677 193.813 504.323 194.167C503.968 194.521 503.488 194.719 502.987 194.719L495.398 194.709ZM491.918 204.964C491.918 202.694 492.58 200.943 493.905 199.713C495.229 198.483 497.173 197.868 499.735 197.868C502.201 197.868 504.093 198.491 505.411 199.735C506.729 200.979 507.392 202.722 507.398 204.964C507.398 207.207 506.714 208.944 505.345 210.175C503.976 211.407 502.107 212.022 499.738 212.02C497.294 212.02 495.381 211.411 494 210.191C492.619 208.972 491.925 207.229 491.918 204.964Z" fill="#EEB2B2"/>
<path d="M108.46 291.07C108.054 291.07 107.665 290.909 107.378 290.622C107.091 290.335 106.93 289.946 106.93 289.541V288.492C106.93 286.532 107.329 284.876 108.128 283.525C108.926 282.174 110.345 280.859 112.385 279.581C114.003 278.562 115.167 277.642 115.876 276.822C116.569 276.047 116.948 275.042 116.941 274.002C116.941 273.158 116.562 272.49 115.805 271.997C115.048 271.504 114.06 271.258 112.839 271.259C110.35 271.259 107.515 271.987 104.334 273.442C103.768 273.702 103.122 273.733 102.533 273.528C101.944 273.323 101.458 272.898 101.175 272.342L99.055 268.195C98.9255 267.941 98.8479 267.664 98.8267 267.38C98.8056 267.096 98.8412 266.811 98.9316 266.541C99.0219 266.271 99.1653 266.021 99.3531 265.807C99.541 265.593 99.7696 265.419 100.026 265.294C104.411 263.141 108.963 262.064 113.682 262.064C118.138 262.064 121.636 263.044 124.174 265.003C126.713 266.963 127.982 269.632 127.982 273.012C127.982 275.431 127.417 277.526 126.287 279.296C125.158 281.066 123.355 282.74 120.879 284.32C118.78 285.681 117.466 286.674 116.936 287.3C116.41 287.923 116.128 288.717 116.143 289.534C116.144 289.736 116.105 289.936 116.028 290.122C115.951 290.309 115.838 290.479 115.696 290.622C115.553 290.765 115.383 290.878 115.196 290.955C115.01 291.032 114.81 291.071 114.608 291.07H108.46ZM105.64 299.38C105.64 297.543 106.175 296.124 107.245 295.122C108.315 294.12 109.889 293.621 111.968 293.625C113.967 293.625 115.502 294.129 116.572 295.138C117.642 296.146 118.177 297.559 118.177 299.375C118.177 301.192 117.622 302.599 116.512 303.597C115.402 304.596 113.889 305.095 111.971 305.095C109.991 305.095 108.441 304.601 107.322 303.613C106.202 302.625 105.642 301.214 105.64 299.38Z" fill="#EEB2B2"/>
<path d="M95.1664 386.439C94.8611 386.439 94.5684 386.317 94.3526 386.101C94.1367 385.886 94.0155 385.593 94.0155 385.288V384.499C94.0155 383.024 94.3158 381.778 94.9166 380.763C95.5174 379.748 96.5846 378.759 98.1183 377.797C99.3359 377.029 100.211 376.337 100.744 375.721C101.265 375.138 101.55 374.382 101.544 373.599C101.544 372.965 101.26 372.462 100.693 372.092C100.125 371.722 99.3794 371.537 98.456 371.537C96.5846 371.537 94.4521 372.085 92.0584 373.179C91.6321 373.374 91.1469 373.397 90.704 373.244C90.2612 373.09 89.8948 372.771 89.6813 372.353L88.0876 369.231C87.9903 369.04 87.932 368.832 87.9161 368.618C87.9002 368.405 87.9269 368.19 87.9948 367.987C88.0627 367.784 88.1704 367.596 88.3116 367.435C88.4527 367.274 88.6246 367.143 88.8171 367.049C92.0073 365.454 95.5241 364.623 99.0904 364.619C102.443 364.619 105.075 365.356 106.984 366.831C108.893 368.306 109.848 370.314 109.848 372.856C109.848 374.675 109.422 376.251 108.57 377.583C107.719 378.915 106.363 380.175 104.502 381.362C102.922 382.386 101.933 383.134 101.536 383.607C101.139 384.076 100.927 384.674 100.938 385.288C100.938 385.593 100.817 385.886 100.601 386.101C100.385 386.317 100.092 386.439 99.7872 386.439H95.1664ZM93.0376 392.683C93.0376 391.302 93.4402 390.235 94.2454 389.484C95.0505 388.733 96.2331 388.358 97.7933 388.359C99.2976 388.359 100.452 388.737 101.256 389.494C102.06 390.251 102.462 391.313 102.462 392.681C102.462 394.05 102.045 395.108 101.211 395.858C100.376 396.607 99.237 396.982 97.7933 396.984C96.3031 396.984 95.1371 396.613 94.295 395.87C93.453 395.128 93.0362 394.065 93.0447 392.683H93.0376Z" fill="#EEB2B2"/>
<path d="M307.331 34.7694C307.18 34.7694 307.031 34.7396 306.891 34.6818C306.751 34.6239 306.624 34.5391 306.518 34.4323C306.411 34.3254 306.326 34.1985 306.268 34.0589C306.21 33.9192 306.18 33.7696 306.18 33.6184V32.8294C306.18 31.3553 306.481 30.1102 307.082 29.0941C307.682 28.078 308.75 27.0893 310.283 26.1281C311.501 25.3598 312.376 24.6677 312.909 24.0518C313.432 23.4668 313.717 22.7076 313.709 21.9231C313.709 21.2892 313.425 20.7868 312.858 20.4159C312.29 20.0451 311.544 19.8625 310.621 19.8681C308.75 19.8681 306.617 20.4155 304.223 21.5101C303.797 21.7052 303.312 21.7283 302.869 21.5744C302.426 21.4205 302.06 21.1016 301.846 20.6842L300.253 17.562C300.155 17.3711 300.097 17.1628 300.081 16.9492C300.065 16.7356 300.092 16.5209 300.16 16.3178C300.228 16.1146 300.335 15.927 300.477 15.7658C300.618 15.6047 300.79 15.4733 300.982 15.3793C304.172 13.7853 307.689 12.9536 311.255 12.9497C314.608 12.9497 317.24 13.6872 319.149 15.1622C321.058 16.6372 322.013 18.6453 322.013 21.1865C322.013 23.0059 321.587 24.5817 320.735 25.9138C319.884 27.2459 318.528 28.5056 316.667 29.693C315.09 30.712 314.101 31.4603 313.702 31.9381C313.305 32.407 313.093 33.0043 313.105 33.6184C313.105 33.7696 313.075 33.9192 313.017 34.0589C312.959 34.1985 312.874 34.3254 312.767 34.4323C312.661 34.5391 312.534 34.6239 312.394 34.6818C312.254 34.7396 312.105 34.7694 311.954 34.7694H307.331ZM305.203 41.0137C305.203 39.6324 305.605 38.5661 306.41 37.8149C307.216 37.0637 308.398 36.6885 309.958 36.6895C311.463 36.6895 312.617 37.0679 313.421 37.8248C314.225 38.5817 314.627 39.6442 314.627 41.0123C314.627 42.3803 314.21 43.439 313.376 44.1884C312.541 44.9377 311.402 45.3133 309.958 45.3152C308.468 45.3152 307.302 44.9438 306.46 44.2011C305.618 43.4584 305.201 42.3959 305.21 41.0137H305.203Z" fill="#EEB2B2"/>
<path d="M434.899 307.391C434.673 307.391 434.456 307.301 434.296 307.141C434.137 306.982 434.047 306.765 434.047 306.539V305.972C434.047 304.889 434.268 303.975 434.71 303.228C435.152 302.482 435.935 301.755 437.061 301.049C437.955 300.481 438.599 299.972 438.991 299.523C439.375 299.094 439.584 298.537 439.579 297.962C439.582 297.738 439.525 297.517 439.415 297.323C439.304 297.128 439.144 296.966 438.95 296.854C438.53 296.581 437.983 296.445 437.31 296.445C435.935 296.445 434.368 296.847 432.609 297.653C432.296 297.796 431.94 297.812 431.614 297.699C431.289 297.586 431.019 297.352 430.862 297.045L429.692 294.752C429.62 294.612 429.577 294.458 429.566 294.301C429.554 294.144 429.574 293.987 429.623 293.837C429.673 293.688 429.753 293.55 429.856 293.432C429.96 293.314 430.087 293.217 430.228 293.148C432.572 291.977 435.156 291.366 437.777 291.363C440.237 291.363 442.169 291.905 443.575 292.989C444.981 294.073 445.683 295.548 445.68 297.414C445.68 298.752 445.368 299.91 444.743 300.888C444.119 301.866 443.122 302.792 441.753 303.664C440.593 304.421 439.867 304.971 439.575 305.315C439.284 305.659 439.128 306.098 439.136 306.549C439.136 306.775 439.046 306.992 438.887 307.151C438.727 307.311 438.511 307.401 438.285 307.401L434.899 307.391ZM433.337 311.983C433.337 310.969 433.633 310.186 434.224 309.633C434.816 309.081 435.686 308.805 436.834 308.806C437.939 308.806 438.788 309.084 439.379 309.642C439.97 310.199 440.266 310.979 440.266 311.983C440.266 312.988 439.959 313.766 439.346 314.318C438.733 314.869 437.896 315.145 436.834 315.145C435.74 315.145 434.883 314.872 434.266 314.326C433.648 313.78 433.338 312.999 433.337 311.983Z" fill="#EEB2B2"/>
<path d="M205.846 405.172C205.62 405.172 205.403 405.082 205.243 404.922C205.084 404.763 204.994 404.546 204.994 404.32V403.752C204.994 402.67 205.215 401.756 205.657 401.009C206.099 400.263 206.883 399.536 208.008 398.829C208.902 398.262 209.546 397.753 209.938 397.304C210.322 396.875 210.531 396.318 210.526 395.743C210.529 395.519 210.472 395.298 210.362 395.103C210.251 394.908 210.091 394.747 209.897 394.634C209.477 394.362 208.93 394.226 208.257 394.226C206.881 394.226 205.314 394.628 203.556 395.433C203.243 395.576 202.887 395.593 202.561 395.48C202.236 395.367 201.967 395.133 201.809 394.826L200.639 392.533C200.567 392.392 200.524 392.239 200.513 392.082C200.501 391.925 200.521 391.767 200.57 391.618C200.62 391.469 200.7 391.331 200.803 391.213C200.907 391.094 201.034 390.998 201.175 390.929C203.519 389.758 206.103 389.146 208.724 389.144C211.184 389.144 213.116 389.686 214.522 390.77C215.928 391.854 216.63 393.329 216.627 395.195C216.627 396.533 216.315 397.691 215.69 398.669C215.066 399.647 214.069 400.573 212.7 401.445C211.541 402.202 210.815 402.752 210.522 403.095C210.231 403.44 210.075 403.879 210.083 404.33C210.083 404.556 209.993 404.772 209.834 404.932C209.674 405.092 209.458 405.182 209.232 405.182L205.846 405.172ZM204.284 409.764C204.284 408.75 204.58 407.966 205.171 407.414C205.763 406.861 206.633 406.586 207.781 406.586C208.887 406.586 209.736 406.865 210.326 407.422C210.916 407.98 211.212 408.76 211.213 409.764C211.213 410.769 210.906 411.547 210.293 412.099C209.68 412.65 208.843 412.926 207.781 412.926C206.688 412.926 205.831 412.653 205.213 412.107C204.594 411.561 204.284 410.78 204.284 409.764Z" fill="#EEB2B2"/>
<path d="M516.785 273.899C516.559 273.899 516.342 273.809 516.182 273.649C516.023 273.49 515.933 273.273 515.933 273.047V272.479C515.933 271.397 516.154 270.483 516.596 269.736C517.038 268.99 517.821 268.263 518.947 267.556C519.841 266.989 520.485 266.48 520.877 266.031C521.261 265.602 521.47 265.045 521.465 264.47C521.468 264.246 521.411 264.025 521.301 263.83C521.19 263.636 521.03 263.474 520.836 263.361C520.416 263.089 519.869 262.953 519.196 262.953C517.821 262.953 516.254 263.355 514.495 264.16C514.182 264.303 513.826 264.32 513.5 264.207C513.175 264.094 512.905 263.86 512.748 263.553L511.578 261.26C511.506 261.119 511.463 260.966 511.452 260.809C511.44 260.652 511.46 260.495 511.509 260.345C511.559 260.196 511.639 260.058 511.742 259.94C511.846 259.821 511.973 259.725 512.114 259.656C514.458 258.485 517.042 257.874 519.663 257.871C522.122 257.871 524.055 258.413 525.461 259.497C526.867 260.581 527.569 262.056 527.566 263.922C527.566 265.26 527.254 266.418 526.629 267.396C526.005 268.374 525.008 269.3 523.639 270.172C522.479 270.929 521.753 271.479 521.461 271.822C521.17 272.167 521.014 272.606 521.022 273.057C521.022 273.283 520.932 273.5 520.773 273.659C520.613 273.819 520.397 273.909 520.171 273.909L516.785 273.899ZM515.223 278.491C515.223 277.477 515.519 276.693 516.11 276.141C516.702 275.588 517.572 275.313 518.72 275.314C519.825 275.314 520.674 275.592 521.265 276.149C521.856 276.707 522.152 277.487 522.152 278.491C522.152 279.496 521.845 280.274 521.232 280.826C520.619 281.377 519.782 281.653 518.72 281.653C517.626 281.653 516.769 281.38 516.152 280.834C515.534 280.288 515.224 279.507 515.223 278.491Z" fill="#EEB2B2"/>
<path d="M223.443 53.7863C223.217 53.7863 223.001 53.6966 222.841 53.5369C222.681 53.3772 222.592 53.1606 222.592 52.9348V52.3671C222.592 51.2848 222.813 50.3704 223.254 49.6239C223.696 48.8774 224.48 48.1508 225.606 47.4441C226.5 46.8764 227.143 46.3679 227.536 45.9185C227.919 45.4893 228.129 44.9327 228.124 44.3574C228.127 44.1335 228.07 43.9128 227.96 43.718C227.849 43.5232 227.689 43.3613 227.495 43.249C227.075 42.9765 226.528 42.8403 225.854 42.8403C224.479 42.8403 222.912 43.2429 221.154 44.048C220.841 44.1911 220.484 44.2078 220.159 44.0947C219.833 43.9815 219.564 43.7472 219.407 43.4406L218.236 41.1472C218.165 41.007 218.122 40.8539 218.11 40.6969C218.099 40.5399 218.118 40.3822 218.168 40.2329C218.218 40.0836 218.297 39.9457 218.401 39.8274C218.505 39.709 218.631 39.6126 218.773 39.5436C221.116 38.3694 223.7 37.7553 226.321 37.7498C228.781 37.7498 230.714 38.2914 232.12 39.3747C233.526 40.458 234.229 41.9349 234.229 43.8053C234.229 45.1441 233.917 46.3021 233.292 47.2794C232.668 48.2568 231.671 49.1821 230.302 50.0553C229.135 50.8075 228.41 51.3577 228.126 51.7058C227.835 52.0506 227.68 52.4894 227.688 52.9405C227.688 53.1663 227.598 53.3829 227.439 53.5426C227.279 53.7023 227.062 53.792 226.836 53.792L223.443 53.7863ZM221.882 58.3787C221.882 57.3635 222.178 56.5802 222.769 56.0286C223.36 55.477 224.23 55.2012 225.379 55.2012C226.485 55.2012 227.333 55.4798 227.924 56.0371C228.514 56.5944 228.81 57.3749 228.811 58.3787C228.811 59.3835 228.504 60.1617 227.891 60.7133C227.278 61.2648 226.441 61.5406 225.379 61.5406C224.285 61.5406 223.429 61.2677 222.81 60.7218C222.192 60.1759 221.882 59.3948 221.882 58.3787Z" fill="#EEB2B2"/>
<path d="M60.3968 301.201H32.0448C28.8963 301.201 26.344 303.753 26.344 306.901V331.645C26.344 334.793 28.8963 337.345 32.0448 337.345H60.3968C63.5453 337.345 66.0976 334.793 66.0976 331.645V306.901C66.0976 303.753 63.5453 301.201 60.3968 301.201Z" fill="#CA6868"/>
<path d="M31.0926 328.241L45.5368 318.818C45.0862 317.452 44.9646 315.999 45.182 314.576C45.9158 309.717 50.291 306.321 54.9487 306.992C59.6064 307.664 62.7925 312.144 62.0587 317.003C61.325 321.862 56.9498 325.258 52.2935 324.587C50.3985 324.314 48.6585 323.388 47.3746 321.967L33.0297 331.322C32.8369 331.459 32.6182 331.554 32.3871 331.603C32.156 331.651 31.9174 331.652 31.686 331.605C31.4547 331.558 31.2354 331.464 31.0418 331.328C30.8482 331.193 30.6844 331.02 30.5604 330.819C30.3039 330.402 30.2161 329.904 30.315 329.424C30.414 328.945 30.6921 328.522 31.0926 328.241ZM52.5347 322.991C56.3409 323.538 59.9257 320.754 60.5246 316.785C61.1235 312.815 58.5137 309.141 54.7061 308.595C50.8984 308.048 47.315 310.831 46.7162 314.801C46.1173 318.77 48.7271 322.441 52.5347 322.988V322.991Z" fill="white"/>
<path d="M59.2147 312.998C59.2147 312.998 60.35 316.921 58.2014 319.716Z" fill="white"/>
<path d="M59.2146 312.998C59.4126 313.555 59.5413 314.134 59.5978 314.722C59.6588 315.313 59.656 315.908 59.5893 316.498C59.5209 317.09 59.371 317.671 59.1437 318.222L58.9592 318.628C58.8896 318.76 58.8087 318.885 58.7335 319.012L58.6172 319.2C58.5732 319.259 58.5277 319.318 58.4752 319.376C58.383 319.491 58.2893 319.606 58.1914 319.716C58.2609 319.587 58.3333 319.458 58.4057 319.333L58.5136 319.144L58.603 318.944C58.6611 318.812 58.7278 318.685 58.7804 318.551L58.9223 318.144C58.9762 318.011 59.0046 317.869 59.0457 317.731C59.0879 317.594 59.1225 317.455 59.1493 317.314L59.2359 316.888L59.2927 316.462C59.3585 315.889 59.3817 315.312 59.3622 314.735C59.3474 314.154 59.2981 313.574 59.2146 312.998Z" fill="white"/>
<path d="M596.415 217.328H568.063C564.915 217.328 562.362 219.88 562.362 223.029V247.772C562.362 250.92 564.915 253.473 568.063 253.473H596.415C599.564 253.473 602.116 250.92 602.116 247.772V223.029C602.116 219.88 599.564 217.328 596.415 217.328Z" fill="#CA6868"/>
<path d="M567.111 244.369L581.555 234.945C581.104 233.579 580.983 232.126 581.2 230.704C581.934 225.844 586.309 222.448 590.967 223.12C595.625 223.791 598.811 228.271 598.077 233.13C597.343 237.99 592.968 241.386 588.312 240.714C586.417 240.442 584.677 239.515 583.393 238.095L569.048 247.45C568.855 247.586 568.637 247.681 568.405 247.73C568.174 247.779 567.936 247.779 567.704 247.732C567.473 247.685 567.254 247.591 567.06 247.456C566.867 247.32 566.703 247.147 566.579 246.946C566.322 246.529 566.234 246.031 566.333 245.552C566.432 245.073 566.71 244.649 567.111 244.369ZM588.553 239.118C592.359 239.666 595.944 236.881 596.543 232.913C597.142 228.945 594.532 225.268 590.724 224.722C586.917 224.175 583.333 226.958 582.734 230.928C582.136 234.897 584.745 238.569 588.553 239.115V239.118Z" fill="white"/>
<path d="M595.233 229.125C595.233 229.125 596.368 233.048 594.22 235.844Z" fill="white"/>
<path d="M595.233 229.125C595.431 229.682 595.56 230.261 595.616 230.85C595.677 231.44 595.674 232.035 595.608 232.625C595.539 233.218 595.389 233.798 595.162 234.349L594.978 234.755C594.908 234.887 594.827 235.012 594.752 235.14L594.635 235.327C594.591 235.387 594.546 235.445 594.494 235.503C594.401 235.618 594.308 235.733 594.21 235.844C594.279 235.715 594.352 235.586 594.424 235.461L594.532 235.272L594.621 235.072C594.68 234.94 594.746 234.812 594.799 234.679L594.941 234.271C594.995 234.138 595.023 233.996 595.064 233.858C595.106 233.721 595.141 233.582 595.168 233.441L595.254 233.015L595.311 232.59C595.377 232.016 595.4 231.439 595.381 230.863C595.366 230.281 595.316 229.701 595.233 229.125Z" fill="white"/>
<path d="M157.026 414.583C157.026 414.583 156.023 423.277 157.026 425.259L149.647 426.708L151.868 412.447L157.026 414.583Z" fill="#DB965F"/>
<path d="M156.779 430.759C156.779 430.759 162.832 432.348 167.468 431.072C167.811 430.968 168.101 430.739 168.281 430.43C168.461 430.121 168.518 429.755 168.441 429.406C168.257 428.508 167.49 427.426 165.012 426.994C165.012 426.994 158.342 423.927 156.497 421.486C156.497 421.486 152.665 423.527 150.369 421.944C150.369 421.944 148.628 423.275 148.344 425.899C148.137 427.808 149.434 429.533 151.228 429.762C153.106 430.007 155.607 430.375 156.779 430.759Z" fill="#040C2B"/>
<path d="M147.272 413.591C147.272 413.591 146.269 422.285 147.272 424.268L139.893 425.717L142.114 411.456L147.272 413.591Z" fill="#DB965F"/>
<path d="M147.149 430.74C147.149 430.74 153.202 432.328 157.838 431.053C158.18 430.949 158.47 430.719 158.65 430.411C158.831 430.102 158.888 429.737 158.81 429.388C158.626 428.488 157.86 427.408 155.38 426.975C155.38 426.975 148.71 423.909 146.865 421.469C146.865 421.469 142.828 423.046 140.537 421.469C139.536 422.747 138.905 424.276 138.712 425.888C138.505 427.797 139.802 429.521 141.595 429.75C143.475 429.99 145.971 430.357 147.149 430.74Z" fill="#040C2B"/>
<path d="M149.163 348.972L153.879 381.412L151.012 415.272L152.489 415.511L158.538 416.492L164.192 383.831C164.768 380.494 165.033 377.11 164.983 373.724L164.558 345.112L148.937 347.397L149.163 348.972Z" fill="#040C2B"/>
<path opacity="0.15" d="M153.88 381.409L151.013 415.269L152.491 415.508L157.778 382.179L158.821 348.969H149.163L153.88 381.409Z" fill="black"/>
<path d="M142.52 346.134C142.52 346.134 140.226 351.7 141.302 365.351L142.206 382.59L140.405 416.484L148.331 416.977L153.724 388.21C154.688 382.987 155.21 377.693 155.285 372.383L155.674 344.188L142.52 346.134Z" fill="#040C2B"/>
<path d="M165.597 340.096L165.269 339.192L161.709 329.147L164.562 328.708L165.853 328.51L168.493 328.104L169.76 333.433L170.075 334.762L183.735 330.461C183.735 330.461 184.427 328.285 186.606 326.062C186.722 326.097 186.828 326.158 186.915 326.242C187.003 326.325 187.07 326.428 187.11 326.541C187.151 326.655 187.164 326.777 187.15 326.897C187.135 327.017 187.092 327.132 187.025 327.232L186.184 328.521C186.184 328.521 189.622 325.765 191.905 326.633C191.905 326.633 193.546 327.432 192.21 330.372C192.21 330.372 190.614 334.464 185.295 334.538L167.697 341.129C167.281 341.258 166.831 341.224 166.439 341.031C166.048 340.839 165.745 340.504 165.594 340.096" fill="#DB965F"/>
<path d="M160.716 319.713L155.569 322.417L146.707 320.752L146.675 314.617C146.675 314.617 150.519 312.398 150.26 309.417L150.139 308.498L149.412 302.899L151.623 303.921L152.875 304.499L158.045 306.887L157.101 313.073L156.971 313.925C156.924 314.23 156.968 314.543 157.099 314.823C157.143 314.918 157.196 315.009 157.259 315.093L158.489 316.736L160.716 319.713Z" fill="#C9885B"/>
<path opacity="0.15" d="M149.407 302.901L150.22 309.244C153.247 314.843 157.076 316.153 158.484 316.742L157.253 315.098C157.131 314.932 157.043 314.743 156.994 314.543C156.946 314.342 156.937 314.134 156.969 313.93L158.044 306.887L149.407 302.901Z" fill="black"/>
<path d="M162.177 301.513C162.177 301.513 161.133 314.132 157.485 313.508C157.485 313.508 156.862 313.396 155.851 312.866C155.164 312.501 154.512 312.074 153.904 311.589C152.519 310.499 150.862 308.807 149.178 306.189L148.168 303.52L151.089 300.212L151.165 300.124L152.159 300.248L162.177 301.513Z" fill="#DB965F"/>
<path d="M156.247 295.274C156.247 295.274 166.993 297.033 161.751 304.889C161.751 304.889 160.808 305.05 159.7 301.513C159.7 301.513 158.918 305.326 152.99 303.524C152.99 303.524 152.86 305.674 152.468 306.297H151.882C151.882 306.297 151.947 304.079 150.253 303.593C150.253 303.593 148.168 303.247 149.342 306.297L150.091 307.574L150.265 309.658C150.265 309.658 147.908 305.183 147.517 302.478C147.517 302.478 146.539 298.042 150.187 295.684C150.187 295.69 153.185 293.263 156.247 295.274Z" fill="black"/>
<path d="M164 335.491L165.812 334.822L169.56 333.437L170.385 333.132C168.326 321.611 166.325 319.268 165.411 318.835C165.081 318.679 164.893 318.77 164.893 318.77L164.362 328.713L164 335.491Z" fill="white"/>
<path opacity="0.15" d="M161.511 329.492L165.073 339.329L165.812 335.045L165.654 328.867L165.411 319.386C165.082 319.234 164.893 319.323 164.893 319.323L164.362 329.062L161.511 329.492Z" fill="black"/>
<path d="M164.789 352.027C162.225 352.65 159.628 353.13 157.011 353.466C156.531 353.528 156.039 353.585 155.541 353.637C154.914 353.703 154.275 353.758 153.623 353.805C149.21 354.118 144.383 353.928 140.448 352.459L140.375 352.43C140.078 352.296 139.822 352.086 139.633 351.82C139.444 351.555 139.329 351.244 139.3 350.92L139.288 350.747L139.273 349.895L139.243 348.334L139.217 347.045L138.924 331.462C138.924 331.427 138.924 331.389 138.924 331.354V331.327L139.014 329.526L139.508 319.539L145.432 315.424L146.009 315.022L146.313 314.81L148.142 313.533C148.142 313.533 146.841 316.088 152.826 319.054C153.298 319.29 153.819 319.416 154.347 319.421C154.47 319.424 154.593 319.419 154.716 319.407C155.242 319.357 155.748 319.183 156.193 318.899C157.177 318.277 157.962 317.124 157.173 314.995L159.222 315.936L159.448 316.039L160.994 316.749L165.075 318.621C165.222 318.692 165.346 318.806 165.43 318.947C165.514 319.088 165.555 319.25 165.547 319.414L164.979 337.168C164.975 337.248 164.975 337.328 164.979 337.408L166.126 350.038C166.22 350.968 165.644 351.819 164.789 352.027Z" fill="white"/>
<path d="M153.318 341.67C148.052 341.851 142.585 342.046 139.126 342.169L139.071 339.231L153.249 338.618L153.318 341.67Z" fill="#E3E9F7"/>
<path d="M165.34 341.272C163.222 341.334 160.14 341.435 156.751 341.556L156.683 338.473L165.056 338.11L165.34 341.272Z" fill="#E3E9F7"/>
<path opacity="0.15" d="M154.347 319.42L155.119 353.637H155.545L154.703 319.511L154.719 319.406C154.595 319.417 154.471 319.422 154.347 319.42Z" fill="black"/>
<path opacity="0.15" d="M154.717 319.437C154.734 319.472 155.441 320.883 156.084 320.197L156.496 321.979C156.496 321.979 159.645 320.856 159.447 316.036L159.222 315.933C159.347 317.352 159.036 319.565 156.606 321.516L156.215 319.712C156.215 319.712 155.499 320.337 154.717 319.437Z" fill="black"/>
<path opacity="0.15" d="M153.715 320.25C154.233 320.124 154.32 319.486 154.324 319.438C154.231 319.776 154.013 320.066 153.715 320.25Z" fill="black"/>
<path opacity="0.15" d="M146.005 315.015C146.736 316.939 148.472 319.505 152.501 322.001L153.087 320.545C153.31 320.479 153.522 320.379 153.715 320.25C153.456 320.295 153.19 320.253 152.958 320.13L152.501 321.516C152.501 321.516 147.25 318.625 146.309 314.803L146.005 315.015Z" fill="black"/>
<path opacity="0.15" d="M143.033 329.225L140.371 352.43C140.074 352.296 139.818 352.086 139.629 351.82C139.44 351.555 139.325 351.244 139.295 350.92L139.284 350.746L139.268 349.895L139.239 348.334L139.213 347.045L139.183 345.484L139.121 342.173L139.064 339.237L138.922 331.466C138.922 331.432 138.922 331.393 138.922 331.358L139.013 329.53L143.033 329.225Z" fill="black"/>
<path d="M141.891 331.748L140.057 345.213L137.991 346.962C137.652 347.252 137.235 347.436 136.792 347.491C136.349 347.546 135.9 347.469 135.501 347.27C135.101 347.07 134.769 346.758 134.546 346.371C134.323 345.985 134.219 345.541 134.247 345.095C134.359 343.109 134.469 341.284 134.479 341.142L135.403 329.233L141.891 331.748Z" fill="#DB965F"/>
<path d="M162.398 343.697H151.426C150.575 343.697 150.067 343.069 150.291 342.292L154.51 327.505C154.732 326.73 155.602 326.1 156.452 326.1H167.422C168.273 326.1 168.783 326.73 168.557 327.505L164.336 342.292C164.122 343.069 163.248 343.697 162.398 343.697Z" fill="#CA6868"/>
<path d="M158.248 330.512C158.248 330.512 161.816 331.297 160.959 334.251C160.959 334.251 161.078 337.13 154.372 339.108L137.584 347.252L135.053 344.048L134.588 343.465L134.635 342.974L150.413 335.498C150.413 335.498 150.738 333.362 152.608 330.921C152.728 330.921 152.845 330.952 152.95 331.009C153.054 331.066 153.143 331.149 153.208 331.249C153.272 331.349 153.311 331.464 153.321 331.582C153.33 331.701 153.31 331.821 153.261 331.93L152.62 333.268C152.708 333.172 155.749 330.119 158.248 330.512Z" fill="#DB965F"/>
<path d="M139.844 319.509C139.844 319.509 135.854 319.401 134.42 333.961L141.327 336.664C141.327 336.664 146.637 320.447 139.844 319.509Z" fill="white"/>
<path d="M442.013 140.326L407.783 120.564V103.856C407.783 87.2034 394.282 73.7043 377.63 73.7043H265.182C248.53 73.7043 235.031 87.2034 235.031 103.856V176.801C235.031 193.453 248.53 206.954 265.182 206.954H377.63C394.282 206.954 407.783 193.453 407.783 176.801V160.089L442.013 140.326Z" fill="#F4CEBA"/>
<path d="M452.089 406.812L417.859 387.049V370.342C417.859 353.69 404.36 340.191 387.707 340.191H275.258C258.607 340.191 245.107 353.69 245.107 370.342V443.288C245.107 459.94 258.607 473.439 275.258 473.439H387.707C404.36 473.439 417.859 459.94 417.859 443.288V426.575L452.089 406.812Z" fill="#780404"/>
<path d="M148.814 273.569L183.045 253.806V237.1C183.045 220.447 196.544 206.948 213.197 206.948H325.644C342.297 206.948 355.796 220.447 355.796 237.1V310.045C355.796 326.697 342.297 340.196 325.644 340.196H213.197C196.544 340.196 183.045 326.697 183.045 310.045V293.331L148.814 273.569Z" fill="#CA6868"/>
<path d="M372.234 73.7043H252.985C238.21 73.7043 226.233 85.6813 226.233 100.456V180.196C226.233 194.97 238.21 206.947 252.985 206.947H372.234C387.008 206.947 398.985 194.97 398.985 180.196V100.456C398.985 85.6813 387.008 73.7043 372.234 73.7043Z" fill="#CA6868"/>
<path d="M433.216 140.326L381.779 170.023V110.63L433.216 140.326Z" fill="#CA6868"/>
<path d="M383.59 340.191H264.341C249.566 340.191 237.589 352.168 237.589 366.942V446.682C237.589 461.456 249.566 473.433 264.341 473.433H383.59C398.364 473.433 410.341 461.456 410.341 446.682V366.942C410.341 352.168 398.364 340.191 383.59 340.191Z" fill="#CA6868"/>
<path d="M444.573 406.812L393.137 436.508V377.115L444.573 406.812Z" fill="#CA6868"/>
<path d="M337.364 206.947H218.114C203.34 206.947 191.363 218.924 191.363 233.698V313.438C191.363 328.212 203.34 340.189 218.114 340.189H337.364C352.138 340.189 364.115 328.212 364.115 313.438V233.698C364.115 218.924 352.138 206.947 337.364 206.947Z" fill="#F4CEBA"/>
<path d="M157.133 273.57L208.569 303.265V243.872L157.133 273.57Z" fill="#F4CEBA"/>
<path d="M305.584 185.454H286.751V95.1948H338.466V110.908H305.584V134.131H336.183V149.742H305.584V185.454Z" fill="white"/>
<path d="M289.376 228.246H265.974L246.505 283.655L237.926 308.065L237.903 308.129L234.122 318.886H254.746L261.288 297.42H294.187L300.729 318.886H321.354L289.376 228.246ZM266.102 281.322C272.521 260.544 276.41 247.523 277.769 242.258C278.098 243.74 278.643 245.756 279.405 248.305C280.167 250.855 283.573 261.861 289.623 281.322H266.102Z" fill="white"/>
<path d="M344.701 439.142C345.595 438.731 346.463 438.292 347.305 437.825C353.314 434.484 357.969 429.659 361.27 423.349C365.035 416.159 366.917 407.251 366.916 396.627C366.916 381.633 363.245 370.14 355.901 362.149C348.557 354.159 337.953 350.163 324.089 350.163C310.224 350.163 299.58 354.128 292.158 362.059C291.302 362.969 290.497 363.926 289.745 364.924C283.924 372.666 281.013 383.192 281.013 396.503C281.013 406.893 282.781 415.61 286.316 422.653C286.458 422.925 286.59 423.195 286.734 423.461C288.195 426.23 290.007 428.799 292.126 431.104C292.305 431.297 292.487 431.49 292.67 431.671C300.05 439.32 310.479 443.144 323.958 443.144H325.377L327.549 445.808L341.914 463.439H366.427L347.851 442.649L344.701 439.142ZM333.961 425.162C331.103 426.426 327.772 427.058 323.965 427.059C316.357 427.059 310.64 424.505 306.816 419.396C302.992 414.287 301.08 406.687 301.081 396.595C301.081 386.504 303.014 378.895 306.879 373.767C310.743 368.639 316.48 366.074 324.089 366.073C339.261 366.073 346.848 376.247 346.849 396.595C346.849 408.732 344.125 417.241 338.675 422.123C337.274 423.379 335.683 424.404 333.961 425.162Z" fill="white"/>
<path d="M358.397 226.975C358.397 226.975 351.328 249.503 347.099 249.78C347.099 249.78 362.141 248.256 358.397 226.975Z" fill="black"/>
<path d="M374.098 235.605L372.989 240.943L369.735 241.015L363.701 241.157L361.274 238.319C361.646 237.917 361.915 237.114 362.113 236.108C362.295 235.109 362.418 234.1 362.482 233.086C362.707 229.934 362.591 226.605 362.591 226.605L371.048 229.301C371.228 231.713 372.318 233.967 374.098 235.605Z" fill="#C9885B"/>
<path opacity="0.15" d="M374.098 235.605C374.098 235.605 372.43 238.412 369.355 238.936C369.266 238.207 369.219 237.474 369.213 236.739C369.213 235.994 368.547 235.638 367.812 235.524C364.985 235.086 364.043 233.922 362.836 232.798C362.686 232.656 361.93 230.923 361.798 230.789C362.023 227.637 362.594 226.595 362.594 226.595L371.051 229.291C371.228 231.707 372.317 233.964 374.098 235.605Z" fill="black"/>
<path d="M361.898 220.633C361.898 220.633 358.296 231.505 366.599 234.144C366.956 234.258 367.341 234.254 367.697 234.134C369.225 233.619 373.13 231.515 372.85 223.476C372.85 223.476 369.315 210.999 361.898 220.633Z" fill="#DB965F"/>
<path d="M378.048 293.692L374.859 309.078L371.187 334.795L367.213 337.094L366.398 337.567C366.398 337.567 367.47 325.646 366.633 319.772C366.239 317.031 366.457 314.236 367.27 311.589C367.734 310.192 367.955 308.725 367.924 307.253L367.691 298.159L367.576 293.692H378.048Z" fill="#DB965F"/>
<path opacity="0.15" d="M367.854 319.392C367.886 324.628 367.829 332.266 367.305 335.286L367.219 337.1L366.404 337.572C366.404 337.572 367.476 325.651 366.638 319.778C366.245 317.036 366.462 314.242 367.275 311.595C367.739 310.197 367.961 308.731 367.93 307.259L367.697 298.165L369.731 297.301C369.731 297.301 370.273 303.568 368.819 310.315C368.169 313.296 367.845 316.34 367.854 319.392Z" fill="black"/>
<path d="M363.354 318.713C360.532 325.112 359.936 329.692 359.981 332.54C359.989 332.949 359.903 333.354 359.73 333.724C359.557 334.095 359.301 334.42 358.982 334.677C358.664 334.933 358.291 335.113 357.892 335.203C357.493 335.293 357.079 335.29 356.681 335.195C356.002 335.031 355.414 334.607 355.043 334.015C354.672 333.423 354.547 332.709 354.695 332.026L355.57 327.976C355.849 326.673 355.991 325.345 355.996 324.012C356.044 314.82 357.814 310.998 358.785 309.592C359.42 308.67 359.842 307.632 360.357 306.637C361.311 304.792 361.35 303.206 361.284 302.412C361.259 302.11 361.183 301.815 361.058 301.538L359.445 297.941C359.3 297.617 359.222 297.268 359.214 296.914C359.205 296.559 359.267 296.207 359.396 295.877C359.525 295.547 359.719 295.246 359.965 294.991C360.211 294.736 360.506 294.533 360.831 294.393L365.475 292.399C365.891 292.22 366.345 292.15 366.796 292.194C367.246 292.239 367.678 292.397 368.051 292.655C368.424 292.912 368.725 293.259 368.927 293.664C369.129 294.07 369.225 294.519 369.206 294.972L368.851 303.265C368.747 305.691 368.179 308.074 367.178 310.286L363.354 318.713Z" fill="#DB965F"/>
<path d="M355.046 330.364C355.046 330.364 352.194 332.919 353.511 336.874C353.511 336.874 355.037 338.468 355.313 339.712C355.313 339.712 356.307 342.214 363.024 341.444C363.217 341.421 363.399 341.342 363.547 341.216C363.696 341.089 363.803 340.922 363.855 340.734C364.047 340.046 364.102 338.805 363.076 337.01C363.076 337.01 360.38 332.851 360.026 331.118C360.026 331.121 355.127 333.559 355.046 330.364Z" fill="#040C2B"/>
<path d="M366.794 331.752C366.794 331.752 364.93 335.688 365.364 338.383C365.4 338.604 365.506 338.809 365.666 338.965C365.827 339.122 366.034 339.223 366.257 339.253C367.691 339.453 371.005 339.962 372.501 340.548C372.501 340.548 376.922 341.276 378.961 340.705C379.195 340.639 379.4 340.497 379.544 340.301C379.688 340.105 379.762 339.866 379.754 339.623C379.724 338.838 379.439 337.594 378.051 336.874L371.554 332.226C371.554 332.226 367.115 334.533 366.794 331.752Z" fill="#040C2B"/>
<path d="M378.721 237.143L378.703 237.669L378.353 247.319L378.267 249.704L377.938 258.798L358.197 260.797L357.4 260.878H357.346L357.395 259.509L357.537 255.634C357.606 254.98 357.654 254.338 357.679 253.707C357.801 250.967 357.592 248.222 357.058 245.531C356.595 243.15 355.876 240.827 354.915 238.6C354.953 238.568 354.994 238.539 355.037 238.513L356.241 238.099L357.18 237.777L362.105 236.087C362.105 236.087 362.105 236.087 362.105 236.094C365.015 238.708 367.45 239.256 369.343 238.932C372.419 238.408 374.086 235.601 374.086 235.601L377.041 236.586L377.892 236.87L378.034 236.915C378.135 236.942 378.233 236.972 378.331 237.003C378.473 237.05 378.599 237.094 378.721 237.143Z" fill="white"/>
<path d="M383.284 262.296L380.222 262.462L378.673 263.258L378.396 263.401L378.433 262.638L378.491 261.474L378.629 258.672L379.059 249.989L379.192 247.285L381.931 246.488L383.018 254.943L383.135 259.659L383.284 262.296Z" fill="#DB965F"/>
<path d="M386.575 256.47L382.933 257.479L379.6 258.403L378.629 258.673L378.325 258.756L377.938 258.796L378.277 249.43L378.721 237.147C382.473 238.566 382.97 242.54 382.97 242.54L386.575 256.47Z" fill="white"/>
<path opacity="0.15" d="M381.131 266.377C380.682 266.232 380.272 265.988 379.93 265.664C379.588 265.339 379.323 264.943 379.154 264.502L378.673 263.263L378.389 263.405L378.427 262.642L378.043 261.648L378.485 261.475L378.627 258.674L378.324 258.758L377.936 258.797L378.275 249.431L379.057 249.999L379.537 250.345C379.537 250.345 379.035 253.334 379.598 258.413C379.685 259.198 379.798 260.033 379.942 260.915C380.024 261.418 380.118 261.938 380.225 262.476C380.46 263.689 380.759 264.996 381.131 266.377Z" fill="black"/>
<path d="M356.768 273.383C356.91 271.971 357.111 269.772 357.246 267.016C357.334 265.205 357.395 263.153 357.399 260.926C357.399 260.476 357.399 260.02 357.399 259.558C357.385 258.056 357.344 256.484 357.267 254.863C357.266 254.837 357.269 254.811 357.275 254.785C357.378 254.423 357.515 254.071 357.683 253.734C357.79 253.514 357.92 253.265 358.081 252.991C358.745 251.865 359.926 250.321 361.959 248.652L361.973 248.642C358.924 239.769 356.247 238.107 356.247 238.107L357.185 237.785C361.035 242.03 362.561 247.414 362.829 248.46C363.987 248.484 366.352 249.35 370.128 254.323C370.195 254.412 370.284 254.484 370.385 254.531C370.486 254.579 370.598 254.601 370.71 254.595C370.822 254.59 370.931 254.558 371.027 254.501C371.123 254.444 371.205 254.364 371.263 254.269C372.321 252.549 374.834 248.785 377.39 247.345C377.409 247.334 377.429 247.326 377.451 247.321L377.058 236.594L377.909 236.878V247.313H378.353C378.421 247.314 378.485 247.341 378.533 247.388C378.581 247.435 378.608 247.499 378.61 247.566C378.637 248.531 378.721 252.339 378.61 260.014C378.607 260.035 378.607 260.056 378.61 260.077C378.752 260.696 381.023 270.464 381.023 276.526C381.022 276.531 381.022 276.536 381.023 276.541C381.04 276.814 381.551 285.033 380.347 298.659C380.342 298.717 380.318 298.772 380.277 298.815C380.237 298.858 380.184 298.886 380.126 298.894C378.334 299.16 365.104 301.023 357.399 299.52C357.352 299.511 357.308 299.489 357.272 299.456C357.237 299.423 357.211 299.381 357.198 299.334C356.977 298.525 356.09 294.19 356.488 277.621C356.526 276.208 356.619 274.795 356.768 273.383Z" fill="#040C2B"/>
<path opacity="0.15" d="M378.7 237.668L378.351 247.318L378.264 249.702L376.695 249.018C372.369 247.576 370.508 244.129 369.732 241.015C369.563 240.331 369.436 239.636 369.352 238.936C372.427 238.413 374.095 235.605 374.095 235.605L377.049 236.59L377.901 236.874L378.043 236.92C378.144 236.947 378.241 236.976 378.339 237.008C378.373 237.071 378.409 237.134 378.443 237.196C378.535 237.355 378.62 237.51 378.7 237.668Z" fill="black"/>
<path opacity="0.15" d="M358.197 260.796C358.068 262.937 357.771 265.053 357.246 266.945C357.334 265.14 357.395 263.095 357.4 260.876H357.346L357.395 259.507C357.381 258 357.34 256.422 357.253 254.793C357.356 254.416 357.499 254.052 357.679 253.705C357.801 250.965 357.593 248.22 357.058 245.53L357.12 245.501C357.985 247.976 358.53 250.552 358.741 253.165C358.928 255.57 358.359 258.103 358.197 260.796Z" fill="black"/>
<path d="M350.68 254.676L350.06 266.904L354.504 267.72L358.118 252.503L350.68 254.676Z" fill="#DB965F"/>
<path d="M357.725 256.209L357.346 260.882L357.116 260.905L347.065 257.509L351.293 245.864C352.827 240.554 354.462 238.96 354.915 238.604C356.044 241.174 359.32 248.679 357.725 256.209Z" fill="white"/>
<path d="M385.049 252.171C383.37 252.147 381.372 251.306 379.514 250.241C376.223 248.365 373.342 245.795 373.342 245.795C372.056 244.43 371.098 242.79 370.542 240.998C369.774 238.42 369.807 235.669 370.639 233.111C370.923 232.377 371.158 231.721 371.365 231.124C371.405 231.012 371.443 230.901 371.48 230.792C371.92 229.5 372.294 228.186 372.602 226.856C372.664 226.601 372.655 226.332 372.574 226.082C372.493 225.831 372.344 225.608 372.143 225.437L370.5 224.028C370.132 223.886 369.648 222.684 369.275 221.591C368.943 220.621 368.697 219.731 368.697 219.731C368.761 220.375 368.792 221.023 368.79 221.671C368.79 222.888 368.697 223.819 368.697 223.819L366.272 223.889C366.522 223.439 366.564 222.746 366.516 222.044C366.444 221.191 366.292 220.347 366.063 219.522C365.966 220.426 365.801 221.321 365.57 222.2C365.046 224.066 364.47 224.028 364.47 224.028C364.72 223.469 364.91 222.886 365.037 222.287C365.302 221.104 365.321 219.88 365.091 218.691L363.53 222.535L362.809 224.305C362.322 225.081 362.002 225.951 361.871 226.858C361.74 227.765 361.8 228.69 362.047 229.573C362.243 230.14 362.401 230.668 362.525 231.162C362.545 231.24 362.564 231.318 362.582 231.395C362.749 232.082 362.861 232.782 362.916 233.487C363.09 235.914 362.324 236.918 362.324 236.918C362.1 237.25 361.852 237.564 361.582 237.859C358.894 240.814 354.145 242.186 354.145 242.186C354.977 241.078 354.907 237.127 354.907 237.127C353.451 243.989 351.233 243.503 351.233 243.503C352.563 243.104 352.757 240.814 353.278 238.617C353.629 237.137 354.822 234.852 355.33 233.417C355.847 231.958 356.434 230.162 356.94 228.575C357.628 226.418 358.164 224.65 358.164 224.65C358.261 224.2 358.363 223.771 358.468 223.364C360.8 214.371 365.304 215.639 365.304 215.639C369.714 214.25 372.4 217.125 374.026 220.811C376.132 225.585 376.464 231.72 376.464 231.72C376.572 233.457 377.55 235.57 378.458 237.195C379.417 238.892 380.076 240.742 380.407 242.663C380.482 243.106 380.566 243.527 380.655 243.929C381.771 245.254 383.101 246.518 384.315 246.854C384.376 246.871 384.437 246.886 384.498 246.899L384.314 246.865C383.532 246.702 382.243 246.197 380.831 244.67C381.86 248.683 383.465 250.366 383.465 250.366C383.049 250.713 380.103 248.252 380.103 248.252C380.357 248.929 382.148 250.239 383.509 251.157C384.361 251.747 385.049 252.171 385.049 252.171Z" fill="black"/>
<path d="M385.015 246.943C384.839 246.946 384.662 246.932 384.489 246.902C384.661 246.939 384.838 246.952 385.015 246.943Z" fill="black"/>
<path d="M380.843 267.818L364.863 268.171C364.863 268.171 361.729 268.756 359.506 268.346C359.056 268.275 358.62 268.131 358.217 267.92C358.217 267.92 355.753 266.096 357.824 264.477C358.381 264.048 359.052 263.794 359.754 263.748L361.823 263.606L359.76 263.013C359.519 262.946 359.312 262.791 359.181 262.578C359.049 262.365 359.002 262.111 359.05 261.866C359.05 261.866 359.789 261.95 360.803 262.161C361.67 262.335 362.524 262.572 363.357 262.871C363.641 262.977 363.925 263.095 364.209 263.223C364.751 263.472 365.324 263.651 365.912 263.753C366.995 263.948 368.681 264.165 370.169 263.996L377.857 262.179L381.19 261.392L383.206 260.973L383.367 264.994C383.394 265.7 383.146 266.388 382.675 266.915C382.204 267.442 381.547 267.765 380.843 267.818Z" fill="#DB965F"/>
<path d="M366.85 254.26L364.193 253.915C364.335 253.468 364.65 252.983 364.495 252.539C364.016 251.159 364.474 250.147 364.819 249.171C365.164 248.195 365.476 247.522 365.476 247.522C365.71 247.608 365.903 247.779 366.017 248.001C366.131 248.223 366.157 248.479 366.091 248.72L365.699 250.716L365.787 251.159L366.142 251.869L366.85 254.26Z" fill="#DB965F"/>
<path opacity="0.1" d="M363.356 262.865C362.284 264.36 360.72 266.598 359.506 268.345C359.056 268.275 358.62 268.131 358.217 267.92C358.217 267.92 355.753 266.096 357.824 264.477C358.381 264.047 359.052 263.793 359.754 263.747L361.823 263.605L359.76 263.012C359.519 262.945 359.312 262.79 359.181 262.578C359.049 262.365 359.002 262.111 359.05 261.865C359.05 261.865 359.789 261.949 360.803 262.161C361.67 262.333 362.523 262.568 363.356 262.865Z" fill="black"/>
<path d="M370.751 244.16H366.529C366.218 244.16 365.966 244.412 365.966 244.724V254.849C365.966 255.16 366.218 255.413 366.529 255.413H370.751C371.062 255.413 371.314 255.16 371.314 254.849V244.724C371.314 244.412 371.062 244.16 370.751 244.16Z" fill="#CA6868"/>
<path d="M354.627 269.303L356.927 267.622L368.388 255.014C368.388 255.014 371.55 251.774 371.621 249.678C371.621 249.678 371.337 246.875 368.883 247.726C368.24 247.949 367.675 248.355 367.258 248.893L366.069 250.429L365.609 251.272L364.456 253.321C364.456 253.321 362.185 256.207 361.268 257.294L357.048 261.526L354.644 263.766L350.325 265.134L350.317 265.154C349.965 265.974 349.951 266.899 350.278 267.729C350.605 268.559 351.247 269.226 352.064 269.586C352.478 269.767 352.933 269.837 353.383 269.787C353.833 269.738 354.262 269.571 354.627 269.303Z" fill="#DB965F"/>
<path d="M368.639 245.657C368.796 245.657 368.923 245.53 368.923 245.373C368.923 245.217 368.796 245.09 368.639 245.09C368.483 245.09 368.355 245.217 368.355 245.373C368.355 245.53 368.483 245.657 368.639 245.657Z" fill="black"/>
<path opacity="0.67" d="M475.961 470.525L477.769 471.303L477.242 474.127L474.153 473.056L475.961 470.525Z" fill="#050505"/>
<path d="M450.761 464.269C450.761 464.269 445.936 463.636 444.884 466.509C444.884 466.509 444.809 473.664 447.823 474.151C447.823 474.151 450.378 474.443 452.042 473.178L461.684 471.96L468.239 471.473L450.761 464.269Z" fill="#040C2B"/>
<path d="M479.727 467.701C479.727 467.701 482.257 472.207 480.76 473.998C480.527 474.275 480.851 474.611 481.339 474.61L491.517 474.59C491.517 474.59 497.318 475.758 498.449 470.842C498.449 470.842 499.126 465.632 491.743 464.756C484.361 463.881 491.668 464.464 491.668 464.464C491.668 464.464 483.079 465.145 479.727 467.701Z" fill="#040C2B"/>
<path d="M483.758 467.921L483.729 468.205L483.162 474.147L472.427 473.1L475.961 467.982L476.005 467.917C483.758 468.116 483.758 467.921 483.758 467.921Z" fill="#DE995F"/>
<path opacity="0.38" d="M483.758 467.921L483.729 468.205L478.07 468.378L475.954 467.982L475.998 467.917C483.758 468.116 483.758 467.921 483.758 467.921Z" fill="#050505"/>
<path d="M500.231 457.665L487.73 460.353L471.327 463.881L458.299 460.523L437.721 455.223C436.782 447.403 451.585 451.906 451.585 451.906L461.223 453.102L466.877 453.812L479.685 455.759L483.752 453.977L488.577 451.865C501.575 450.616 500.231 457.665 500.231 457.665Z" fill="#081956"/>
<path opacity="0.3" d="M487.73 460.353L471.329 463.881L458.299 460.523L454.754 458.184L461.228 453.102H461.23L466.884 453.805L479.69 455.752L483.759 453.969L487.73 460.353Z" fill="black"/>
<path d="M453.021 466.557L470.724 461.448C470.724 461.448 483.382 456.24 485.566 456.531C485.566 456.531 501.236 447.624 500.183 458.528C500.183 458.528 501.991 467.094 474.041 468.409L453.021 466.557Z" fill="#081956"/>
<path opacity="0.13" d="M465.188 463.028L467.146 462.396C468.628 463.489 471.414 464.399 473.249 465.316C475.491 466.423 477.838 467.304 480.255 467.945L475.508 468.578L465.188 463.028Z" fill="black"/>
<path d="M478.893 468.092C478.893 468.092 473.733 472.643 477.198 474.152C477.198 474.152 457.171 471.662 441.151 461.757C439.937 461.006 439.075 460.054 438.671 458.995C437.203 455.174 435.177 446.486 450.981 453.901C450.981 453.901 463.258 458.518 467.301 462.49C468.126 463.294 469.054 463.984 470.063 464.541C472.603 465.953 476.896 468.157 478.893 468.092Z" fill="#081956"/>
<path d="M466.657 417.571L475.998 417.589L479.012 423.868C479.012 423.868 473.135 433.701 464.698 424.939C465.073 423.528 466.319 421.458 466.694 420.047C467.297 418.587 467.222 418.683 466.657 417.571Z" fill="#CC8B5B"/>
<path d="M477.996 421.702C475.999 423.049 474.354 423.896 473 424.376C472.298 424.637 471.564 424.804 470.818 424.871C469.465 424.972 468.547 424.564 467.94 423.948C466.659 423.354 465.429 422.656 464.261 421.862C460.458 423.023 452.742 425.619 453.41 427.397L454.174 434.161L454.236 434.713L455.499 445.9L456.666 445.887L456.636 446.016L470.818 446.167L488.806 446.357L490.893 427.841C491.777 425.487 477.996 421.702 477.996 421.702Z" fill="white"/>
<path d="M472.942 424.387V445.714L456.524 445.887C456.808 444.682 458.928 435.37 458.153 434.869L454.094 434.713L454.032 434.161L453.27 427.397C452.601 425.619 460.316 423.023 464.119 421.862C465.347 421.488 466.167 421.263 466.167 421.263C467.401 422.116 468.704 422.862 470.064 423.493C470.952 423.912 471.892 424.209 472.86 424.376L472.942 424.387Z" fill="white"/>
<path d="M459.033 447.594L458.375 453.729L450.947 451.236C449.263 450.668 448.108 449.603 447.902 448.385C447.718 447.299 447.836 445.755 448.711 443.604L450.369 435.475C450.369 435.475 449.579 429.852 453.42 426.689C453.42 426.689 454.814 436.01 457.3 437.568L457.827 445.356L459.033 447.594Z" fill="white"/>
<path opacity="0.13" d="M458.393 447.376C458.393 447.376 455.637 445.429 452.329 445.234C452.329 445.234 453.064 444.796 455.085 445.234C455.085 445.234 453.248 444.212 451.135 444.601C451.135 444.601 455.545 443.093 458.393 447.376Z" fill="black"/>
<path opacity="0.13" d="M457.337 437.543C457.337 437.543 452.291 433.357 452.441 431.216C452.441 431.216 453.796 433.113 454.174 433.454C454.174 433.454 452.291 430.874 453.039 429.852C453.039 429.852 454.089 433.092 454.883 433.152L457.337 437.543Z" fill="black"/>
<path opacity="0.13" d="M457.375 437.519C457.375 437.519 453.609 429.341 454.362 428.903C454.362 428.903 454.513 430.509 457.375 437.519Z" fill="black"/>
<path d="M484.361 447.281L485.019 453.416L492.446 450.922C494.129 450.355 495.284 449.289 495.49 448.071C495.676 446.987 495.558 445.441 494.681 443.29L493.025 435.161C493.025 435.161 493.815 429.538 489.974 426.375C489.974 426.375 488.58 435.696 486.094 437.254L485.563 445.05L484.361 447.281Z" fill="white"/>
<path opacity="0.13" d="M466.618 419.901C466.618 419.901 471.09 427.044 476.953 419.579L475.132 416.64L467.711 417.572L466.618 419.901Z" fill="black"/>
<path d="M464.701 407.463C464.701 407.463 473.289 402.255 476.754 406.832C476.754 406.832 483.911 414.863 472.762 422.067C472.759 422.067 465.527 425.62 464.701 407.463Z" fill="#DE995F"/>
<path d="M465.629 415.055L464.162 410.918C463.648 409.967 464.096 406.752 464.162 405.746C464.37 402.593 470.251 400.104 475.321 401.38C475.321 401.38 480.163 402.298 479.463 411.698L477.73 415.885C477.73 415.885 477.957 408.341 475.318 407.95C475.318 407.95 469.291 409.411 465.372 409.314C465.375 409.314 465.269 414.498 465.629 415.055Z" fill="black"/>
<path d="M467.713 414.182C468.836 414.182 469.746 413.593 469.746 412.868C469.746 412.142 468.836 411.553 467.713 411.553C466.589 411.553 465.679 412.142 465.679 412.868C465.679 413.593 466.589 414.182 467.713 414.182Z" stroke="black" stroke-width="1.34389" stroke-miterlimit="10"/>
<path d="M473.89 413.986C475.013 413.986 475.924 413.398 475.924 412.672C475.924 411.946 475.013 411.358 473.89 411.358C472.767 411.358 471.856 411.946 471.856 412.672C471.856 413.398 472.767 413.986 473.89 413.986Z" stroke="black" stroke-width="1.34389" stroke-miterlimit="10"/>
<path d="M469.723 412.672C469.723 412.672 470.649 413.354 471.852 412.672" stroke="black" stroke-width="1.34389" stroke-miterlimit="10"/>
<path d="M465.678 412.868L464.661 412.113" stroke="black" stroke-width="1.34389" stroke-miterlimit="10"/>
<path d="M475.924 412.672L478.485 412.331" stroke="black" stroke-width="1.34389" stroke-miterlimit="10"/>
<path opacity="0.13" d="M484.995 447.062C484.995 447.062 487.256 445.115 489.962 444.921C489.962 444.921 489.359 444.482 487.701 444.921C487.701 444.921 489.209 443.899 490.941 444.288C490.956 444.288 487.337 442.779 484.995 447.062Z" fill="black"/>
<path d="M454.303 441.051L486.094 440.612V456.244L454.98 456.627L454.303 441.051Z" fill="#CA6868"/>
<path d="M470.236 451.734C472.233 451.734 473.852 450.688 473.852 449.398C473.852 448.108 472.233 447.062 470.236 447.062C468.239 447.062 466.62 448.108 466.62 449.398C466.62 450.688 468.239 451.734 470.236 451.734Z" fill="#780404"/>
<path opacity="0.13" d="M455.695 455.824C455.695 455.824 450.65 452.339 441.457 451.297C441.457 451.297 446.052 450.956 456.148 454.802L455.695 455.824Z" fill="black"/>
<path opacity="0.13" d="M486.131 456.261C486.131 456.261 495.252 451.094 498.883 453.86C498.883 453.86 496.979 450.809 485.001 455.969L486.131 456.261Z" fill="black"/>
<path opacity="0.13" d="M486.055 437.23C486.055 437.23 491.103 433.044 490.953 430.902C490.953 430.902 489.596 432.8 489.22 433.14C489.22 433.14 491.103 430.562 490.355 429.538C490.355 429.538 489.304 432.78 488.511 432.838L486.055 437.23Z" fill="black"/>
<path opacity="0.13" d="M486.019 437.205C486.019 437.205 489.785 429.028 489.031 428.589C489.031 428.588 488.881 430.196 486.019 437.205Z" fill="black"/>
<path d="M147.156 437.33L145.372 440.924L143.371 444.956L142.187 447.339L138.877 454.009L129.814 472.272C129.345 473.215 128.128 473.669 127.039 473.305C126.169 473.022 125.62 472.279 125.62 471.493C125.621 471.294 125.656 471.096 125.724 470.909L131.789 454.009L132.411 452.279L134.185 447.336L135.036 444.953L136.484 440.922L138.779 434.535C139.158 433.478 140.462 432.919 141.634 433.311L145.916 434.743C147.092 435.131 147.66 436.314 147.156 437.33Z" fill="#D78D8D"/>
<path d="M180.337 471.496C180.337 472.282 179.794 473.017 178.918 473.308C177.83 473.672 176.612 473.218 176.144 472.275L167.081 454.012L163.77 447.342L162.587 444.959L160.585 440.927L158.802 437.333C158.298 436.316 158.86 435.134 160.032 434.743L164.314 433.311C165.486 432.919 166.79 433.478 167.169 434.535L169.464 440.922L170.911 444.953L171.763 447.336L173.537 452.279L174.158 454.009L180.224 470.909C180.295 471.096 180.334 471.295 180.337 471.496Z" fill="#D78D8D"/>
<path opacity="0.1" d="M147.156 437.33L145.372 440.924H136.494L138.789 434.538C139.168 433.481 140.472 432.922 141.644 433.314L145.926 434.745C147.092 435.131 147.66 436.314 147.156 437.33Z" fill="black"/>
<path opacity="0.1" d="M169.47 440.925H160.591L158.807 437.33C158.304 436.314 158.866 435.132 160.038 434.74L164.319 433.308C165.492 432.916 166.796 433.475 167.175 434.533L169.47 440.925Z" fill="black"/>
<path opacity="0.1" d="M134.192 447.339H142.189L138.877 454.012H131.796L132.418 452.281L134.192 447.339Z" fill="black"/>
<path opacity="0.1" d="M174.168 454.012H167.088L163.776 447.339H171.773L173.547 452.281L174.168 454.012Z" fill="black"/>
<path d="M174.993 450.004C174.989 450.363 174.908 450.717 174.756 451.041C174.604 451.366 174.384 451.655 174.112 451.888C173.938 452.04 173.747 452.173 173.544 452.282C173.064 452.538 172.527 452.671 171.983 452.668H133.979C133.435 452.671 132.898 452.538 132.418 452.282C131.551 451.814 130.972 450.969 130.972 450.004C130.976 449.646 131.057 449.292 131.209 448.967C131.361 448.642 131.58 448.353 131.853 448.12C132.444 447.609 133.201 447.332 133.982 447.339H171.987C173.646 447.339 174.993 448.533 174.993 450.004Z" fill="#D78D8D"/>
<path d="M176.856 430.099H129.109C126.608 430.099 124.58 432.126 124.58 434.627C124.58 437.127 126.608 439.155 129.109 439.155H176.856C179.357 439.155 181.385 437.127 181.385 434.627C181.385 432.126 179.357 430.099 176.856 430.099Z" fill="#D78D8D"/>
<path d="M422.289 254.25C419.885 254.247 417.579 253.291 415.878 251.59C414.178 249.89 413.221 247.584 413.218 245.179V240.113L402.915 234.165L413.218 228.216V223.149C413.222 220.745 414.178 218.44 415.879 216.739C417.579 215.039 419.885 214.083 422.289 214.08H456.253C458.657 214.083 460.962 215.04 462.663 216.74C464.363 218.44 465.319 220.745 465.323 223.149V245.179C465.32 247.584 464.363 249.889 462.663 251.59C460.963 253.29 458.658 254.247 456.253 254.25H422.289Z" fill="white"/>
<path d="M456.253 214.115C458.648 214.118 460.945 215.07 462.638 216.764C464.332 218.458 465.285 220.754 465.287 223.15V245.179C465.285 247.575 464.332 249.871 462.638 251.565C460.945 253.259 458.648 254.212 456.253 254.215H422.289C419.894 254.212 417.597 253.259 415.903 251.565C414.21 249.871 413.257 247.575 413.254 245.179V240.093L413.218 240.073L402.986 234.165L413.218 228.257L413.254 228.237V223.15C413.257 220.754 414.21 218.458 415.904 216.764C417.597 215.07 419.894 214.118 422.289 214.115H456.253ZM456.253 214.044H422.289C419.875 214.045 417.559 215.004 415.852 216.712C414.145 218.419 413.185 220.735 413.185 223.15V228.202L402.844 234.162L413.183 240.131V245.176C413.183 247.592 414.142 249.908 415.85 251.616C417.558 253.324 419.874 254.283 422.289 254.283H456.253C457.449 254.283 458.633 254.048 459.738 253.59C460.842 253.132 461.846 252.461 462.692 251.616C463.537 250.77 464.208 249.766 464.666 248.661C465.123 247.556 465.358 246.372 465.358 245.176V223.15C465.358 221.954 465.123 220.77 464.665 219.665C464.208 218.56 463.537 217.556 462.692 216.711C461.846 215.865 460.842 215.194 459.738 214.737C458.633 214.279 457.449 214.044 456.253 214.044Z" fill="#040C2B"/>
<path d="M418.673 229.74H440.949" stroke="#CA6868" stroke-width="1.91984" stroke-miterlimit="10" stroke-linecap="round"/>
<path d="M418.673 234.165H440.949" stroke="#CA6868" stroke-width="1.91984" stroke-miterlimit="10" stroke-linecap="round"/>
<path d="M418.673 238.59H437.575" stroke="#CA6868" stroke-width="1.91984" stroke-miterlimit="10" stroke-linecap="round"/>
<path d="M451.005 237.547C450.821 237.547 450.646 237.474 450.516 237.344C450.386 237.215 450.314 237.039 450.314 236.856V236.382C450.314 235.497 450.494 234.75 450.856 234.139C451.217 233.529 451.858 232.935 452.777 232.358C453.508 231.898 454.033 231.482 454.354 231.112C454.668 230.761 454.839 230.306 454.835 229.835C454.837 229.652 454.791 229.472 454.701 229.313C454.61 229.154 454.479 229.022 454.321 228.93C453.916 228.691 453.45 228.575 452.98 228.596C451.856 228.596 450.576 228.927 449.139 229.589C448.883 229.706 448.591 229.72 448.326 229.627C448.06 229.535 447.84 229.343 447.712 229.093L446.754 227.219C446.696 227.105 446.661 226.98 446.652 226.852C446.642 226.723 446.658 226.595 446.699 226.473C446.74 226.351 446.805 226.238 446.89 226.142C446.974 226.045 447.077 225.966 447.193 225.91C449.108 224.952 451.22 224.453 453.362 224.451C455.374 224.451 456.954 224.893 458.101 225.778C459.247 226.662 459.821 227.868 459.821 229.395C459.821 230.488 459.566 231.434 459.056 232.233C458.546 233.033 457.731 233.79 456.612 234.504C455.666 235.119 455.072 235.568 454.831 235.852C454.593 236.134 454.466 236.493 454.473 236.861C454.473 237.045 454.4 237.22 454.271 237.35C454.141 237.48 453.965 237.552 453.782 237.552L451.005 237.547ZM449.727 241.3C449.727 240.471 449.969 239.83 450.453 239.379C450.936 238.928 451.646 238.702 452.581 238.703C453.484 238.703 454.177 238.931 454.66 239.386C455.144 239.841 455.386 240.479 455.386 241.3C455.386 242.121 455.135 242.756 454.634 243.208C454.132 243.659 453.448 243.884 452.581 243.883C451.687 243.883 450.987 243.661 450.481 243.215C449.975 242.769 449.725 242.131 449.732 241.3H449.727Z" fill="#CA6868"/>
</g>
<defs>
<clipPath id="clip0_123_2">
<rect width="624.851" height="479.96" fill="white"/>
</clipPath>
</defs>
</svg>
