<svg width="91" height="80" viewBox="0 0 91 80" fill="none" xmlns="http://www.w3.org/2000/svg">
<g clip-path="url(#clip0_1_1486)">
<path d="M88.6703 64.4808L88.1711 64.9801C88.0774 65.0738 88.0247 65.2009 88.0247 65.3334C88.0247 65.4659 88.0774 65.593 88.1711 65.6867C88.2648 65.7804 88.3919 65.8331 88.5244 65.8331C88.6569 65.8331 88.784 65.7804 88.8777 65.6867L89.3769 65.1875L89.8762 65.6867C89.9699 65.7804 90.097 65.8331 90.2295 65.8331C90.362 65.8331 90.4891 65.7804 90.5828 65.6867C90.6766 65.593 90.7292 65.4659 90.7292 65.3334C90.7292 65.2009 90.6766 65.0738 90.5828 64.9801L90.0836 64.4808L90.5828 63.9816C90.6763 63.8878 90.7288 63.7607 90.7288 63.6283C90.7288 63.4958 90.6763 63.3688 90.5828 63.275C90.5365 63.2285 90.4814 63.1917 90.4208 63.1665C90.3601 63.1414 90.2951 63.1284 90.2295 63.1284C90.1639 63.1284 90.0989 63.1414 90.0382 63.1665C89.9776 63.1917 89.9225 63.2285 89.8762 63.275L89.3769 63.7742L88.8777 63.275C88.8313 63.2286 88.7762 63.1918 88.7156 63.1667C88.655 63.1415 88.59 63.1286 88.5244 63.1286C88.4588 63.1286 88.3938 63.1415 88.3332 63.1667C88.2726 63.1918 88.2175 63.2286 88.1711 63.275C88.1247 63.3214 88.0879 63.3764 88.0628 63.4371C88.0377 63.4977 88.0247 63.5627 88.0247 63.6283C88.0247 63.6939 88.0377 63.7589 88.0628 63.8195C88.0879 63.8801 88.1247 63.9352 88.1711 63.9816L88.6703 64.4808Z" fill="white"/>
<path d="M17.3247 75.2384L16.8255 75.7376C16.7791 75.784 16.7423 75.8391 16.7172 75.8997C16.6921 75.9603 16.6791 76.0253 16.6791 76.0909C16.6791 76.1565 16.6921 76.2215 16.7172 76.2821C16.7423 76.3427 16.7791 76.3978 16.8255 76.4442C16.8719 76.4906 16.927 76.5274 16.9876 76.5526C17.0482 76.5777 17.1132 76.5906 17.1788 76.5906C17.2444 76.5906 17.3094 76.5777 17.37 76.5526C17.4307 76.5274 17.4858 76.4906 17.5322 76.4442L18.0341 75.9519L18.5334 76.4512C18.5798 76.4976 18.6348 76.5344 18.6955 76.5595C18.7561 76.5846 18.8211 76.5975 18.8867 76.5975C18.9523 76.5975 19.0173 76.5846 19.0779 76.5595C19.1385 76.5344 19.1936 76.4976 19.24 76.4512C19.2864 76.4048 19.3232 76.3497 19.3483 76.289C19.3734 76.2284 19.3864 76.1635 19.3864 76.0978C19.3864 76.0322 19.3734 75.9672 19.3483 75.9066C19.3232 75.846 19.2864 75.7909 19.24 75.7445L18.7408 75.2453L19.24 74.7461C19.3096 74.676 19.3568 74.5869 19.3759 74.49C19.3949 74.3931 19.3849 74.2928 19.3471 74.2016C19.3092 74.1104 19.2453 74.0324 19.1632 73.9775C19.0812 73.9225 18.9847 73.8931 18.886 73.8928C18.8204 73.8926 18.7555 73.9055 18.6949 73.9306C18.6344 73.9558 18.5795 73.9928 18.5334 74.0394L18.0341 74.5386L17.5349 74.0394C17.4412 73.9457 17.3141 73.8931 17.1816 73.8931C17.0491 73.8931 16.922 73.9457 16.8283 74.0394C16.7346 74.1331 16.6819 74.2602 16.6819 74.3927C16.6819 74.5253 16.7346 74.6524 16.8283 74.7461L17.3247 75.2384Z" fill="white"/>
<path d="M4.5483 30.9806L4.0491 31.4798C3.95539 31.5735 3.90274 31.7006 3.90274 31.8331C3.90274 31.9657 3.95539 32.0928 4.0491 32.1865C4.14281 32.2802 4.26989 32.3328 4.40241 32.3328C4.53494 32.3328 4.66202 32.2802 4.75573 32.1865L5.25497 31.6873L5.75417 32.1865C5.80057 32.2329 5.85567 32.2697 5.91629 32.2948C5.97691 32.3199 6.04186 32.3328 6.10748 32.3328C6.1731 32.3328 6.23809 32.3199 6.29871 32.2948C6.35933 32.2697 6.41443 32.2329 6.46083 32.1865C6.50723 32.1401 6.54403 32.085 6.56914 32.0244C6.59425 31.9637 6.60719 31.8988 6.60719 31.8331C6.60719 31.7675 6.59425 31.7025 6.56914 31.6419C6.54403 31.5813 6.50723 31.5262 6.46083 31.4798L5.9616 30.9806L6.46083 30.4814C6.50723 30.435 6.54403 30.3799 6.56914 30.3193C6.59425 30.2586 6.60719 30.1937 6.60719 30.1281C6.60719 30.0624 6.59425 29.9974 6.56914 29.9368C6.54403 29.8762 6.50723 29.8211 6.46083 29.7747C6.41443 29.7283 6.35933 29.6915 6.29871 29.6664C6.23809 29.6413 6.1731 29.6284 6.10748 29.6284C6.04186 29.6284 5.97691 29.6413 5.91629 29.6664C5.85567 29.6915 5.80057 29.7283 5.75417 29.7747L5.25497 30.2739L4.75573 29.7747C4.70936 29.7283 4.6543 29.6914 4.59367 29.6663C4.53305 29.6411 4.46805 29.6282 4.40241 29.6282C4.33678 29.6282 4.27178 29.6411 4.21115 29.6663C4.15053 29.6914 4.09547 29.7283 4.0491 29.7747C3.95562 29.8685 3.90311 29.9956 3.90311 30.1281C3.90311 30.2605 3.95562 30.3875 4.0491 30.4814L4.5483 30.9806Z" fill="white"/>
<path d="M64.6455 5.31974L64.1463 5.81896C64.0526 5.91267 63.9999 6.03977 63.9999 6.17229C63.9999 6.30481 64.0526 6.43191 64.1463 6.52562C64.24 6.61932 64.3671 6.67197 64.4996 6.67197C64.6321 6.67197 64.7593 6.61932 64.853 6.52562L65.3522 6.02639L65.8514 6.52562C65.9451 6.61932 66.0722 6.67197 66.2047 6.67197C66.3372 6.67197 66.4643 6.61932 66.558 6.52562C66.6517 6.43191 66.7044 6.30481 66.7044 6.17229C66.7044 6.03977 66.6517 5.91267 66.558 5.81896L66.0588 5.31974L66.558 4.82052C66.6276 4.75044 66.6749 4.66136 66.6939 4.56447C66.713 4.46759 66.703 4.36724 66.6651 4.27604C66.6273 4.18484 66.5633 4.10687 66.4813 4.05193C66.3992 3.99699 66.3028 3.96754 66.204 3.96729C66.1385 3.96708 66.0735 3.97993 66.0129 4.0051C65.9524 4.03027 65.8975 4.06725 65.8514 4.11387L65.3522 4.61309L64.853 4.11387C64.7593 4.02016 64.6321 3.96752 64.4996 3.96752C64.3671 3.96752 64.24 4.02016 64.1463 4.11387C64.0526 4.20758 63.9999 4.33467 63.9999 4.4672C63.9999 4.59972 64.0526 4.72681 64.1463 4.82052L64.6455 5.31974Z" fill="white"/>
<path d="M55.5102 75.9338C55.7991 75.9336 56.0816 76.019 56.3219 76.1793C56.5622 76.3396 56.7496 76.5676 56.8603 76.8344C56.9711 77.1012 57.0002 77.3948 56.944 77.6782C56.8879 77.9616 56.7488 78.2219 56.5447 78.4263C56.3405 78.6306 56.0803 78.7699 55.797 78.8263C55.5137 78.8828 55.22 78.8539 54.9531 78.7435C54.6862 78.633 54.458 78.4458 54.2975 78.2056C54.137 77.9654 54.0513 77.6831 54.0513 77.3942C54.052 77.0073 54.2059 76.6365 54.4793 76.3628C54.7527 76.0892 55.1234 75.9349 55.5102 75.9338ZM55.5102 77.8547C55.6013 77.8547 55.6903 77.8277 55.7661 77.7771C55.8418 77.7265 55.9008 77.6545 55.9356 77.5704C55.9705 77.4862 55.9796 77.3937 55.9619 77.3043C55.9441 77.215 55.9002 77.1329 55.8358 77.0685C55.7714 77.0041 55.6894 76.9603 55.6001 76.9425C55.5107 76.9247 55.4181 76.9339 55.334 76.9687C55.2498 77.0036 55.1779 77.0626 55.1273 77.1383C55.0767 77.2141 55.0497 77.3031 55.0497 77.3942C55.0501 77.5162 55.0987 77.6331 55.185 77.7194C55.2713 77.8057 55.3882 77.8543 55.5102 77.8547Z" fill="white"/>
<path d="M83.0157 29.4192C83.3046 29.4189 83.5871 29.5044 83.8275 29.6647C84.0679 29.8251 84.2553 30.0531 84.366 30.32C84.4767 30.5869 84.5057 30.8807 84.4494 31.1641C84.3931 31.4475 84.254 31.7078 84.0497 31.9121C83.8453 32.1164 83.585 32.2555 83.3016 32.3118C83.0182 32.3681 82.7245 32.3391 82.4576 32.2284C82.1907 32.1177 81.9626 31.9303 81.8023 31.69C81.6419 31.4496 81.5565 31.1671 81.5568 30.8781C81.5575 30.4914 81.7114 30.1208 81.9849 29.8473C82.2583 29.5739 82.629 29.4199 83.0157 29.4192ZM83.0157 31.3386C83.1068 31.3386 83.1958 31.3116 83.2715 31.261C83.3473 31.2104 83.4063 31.1385 83.4411 31.0544C83.476 30.9702 83.4851 30.8776 83.4673 30.7883C83.4496 30.699 83.4057 30.6169 83.3413 30.5525C83.2769 30.4881 83.1948 30.4442 83.1055 30.4265C83.0162 30.4087 82.9236 30.4178 82.8395 30.4527C82.7553 30.4875 82.6834 30.5466 82.6328 30.6223C82.5822 30.698 82.5552 30.7871 82.5552 30.8781C82.5552 31.0003 82.6037 31.1174 82.6901 31.2038C82.7764 31.2901 82.8935 31.3386 83.0157 31.3386Z" fill="white"/>
<path d="M21.9062 5.99048C22.1951 5.99048 22.4775 6.07615 22.7177 6.23668C22.9578 6.3972 23.145 6.62536 23.2555 6.89228C23.366 7.1592 23.3948 7.45288 23.3384 7.7362C23.2819 8.01951 23.1427 8.27972 22.9383 8.48389C22.734 8.68807 22.4736 8.82704 22.1902 8.88323C21.9069 8.93942 21.6132 8.9103 21.3464 8.79956C21.0796 8.68882 20.8516 8.50143 20.6913 8.2611C20.531 8.02077 20.4456 7.7383 20.4459 7.44942C20.4462 7.06235 20.6002 6.69127 20.8741 6.41771C21.1479 6.14414 21.5191 5.99048 21.9062 5.99048ZM21.9062 7.90991C21.9973 7.90991 22.0863 7.88291 22.162 7.83231C22.2378 7.78171 22.2968 7.70978 22.3316 7.62564C22.3665 7.54149 22.3756 7.4489 22.3579 7.35958C22.3401 7.27025 22.2962 7.18819 22.2318 7.12379C22.1674 7.05939 22.0854 7.01553 21.996 6.99776C21.9067 6.97999 21.8141 6.98911 21.73 7.02397C21.6458 7.05882 21.5739 7.11785 21.5233 7.19358C21.4727 7.26931 21.4457 7.35834 21.4457 7.44942C21.4451 7.51024 21.4566 7.57056 21.4795 7.62691C21.5024 7.68326 21.5363 7.73452 21.5791 7.77772C21.6219 7.82092 21.6729 7.85521 21.729 7.87861C21.7852 7.90201 21.8454 7.91406 21.9062 7.91406V7.90991Z" fill="white"/>
<path d="M4.89676 51.5688C5.18559 51.5688 5.46794 51.6545 5.70809 51.815C5.94824 51.9754 6.13539 52.2035 6.24591 52.4703C6.35644 52.7372 6.38538 53.0308 6.32904 53.3141C6.27269 53.5973 6.13359 53.8575 5.92936 54.0618C5.72513 54.266 5.46492 54.4051 5.18164 54.4614C4.89837 54.5178 4.60478 54.4889 4.33794 54.3783C4.0711 54.2678 3.84302 54.0806 3.68255 53.8405C3.52209 53.6003 3.43643 53.318 3.43643 53.0292C3.4368 52.642 3.59078 52.2707 3.86456 51.997C4.13835 51.7232 4.50957 51.5692 4.89676 51.5688ZM4.89676 53.4897C4.98784 53.4897 5.07688 53.4627 5.15261 53.4121C5.22834 53.3615 5.28734 53.2895 5.32219 53.2054C5.35705 53.1212 5.36619 53.0286 5.34843 52.9393C5.33066 52.85 5.2868 52.7679 5.22239 52.7035C5.15799 52.6391 5.07593 52.5953 4.9866 52.5775C4.89727 52.5597 4.80467 52.5689 4.72053 52.6037C4.63638 52.6386 4.56447 52.6976 4.51387 52.7733C4.46327 52.849 4.43625 52.9381 4.43625 53.0292C4.43662 53.1512 4.48525 53.2681 4.57154 53.3544C4.65782 53.4407 4.77474 53.4893 4.89676 53.4897Z" fill="white"/>
<path d="M2.11305 33.7229C3.29326 34.904 4.84665 35.6391 6.50829 35.8027C8.16993 35.9664 9.83688 35.5486 11.2248 34.6204L6.08745 39.7578C4.82086 41.0246 4.07069 42.7171 3.98288 44.5063C3.89507 46.2954 4.47586 48.0533 5.61232 49.4379C6.74878 50.8226 8.35963 51.735 10.1316 51.9978C11.9035 52.2606 13.7099 51.8549 15.1992 50.8596L12.504 53.5562C11.2374 54.8229 10.4872 56.5155 10.3994 58.3046C10.3116 60.0938 10.8924 61.8517 12.0289 63.2363C13.1653 64.621 14.7762 65.5334 16.5482 65.7962C18.3201 66.059 20.1264 65.6533 21.6158 64.658L20.9562 65.3162C19.6028 66.6696 18.8425 68.5051 18.8425 70.4191C18.8425 72.333 19.6028 74.1685 20.9562 75.5219C22.3095 76.8753 24.1451 77.6356 26.059 77.6356C27.9729 77.6356 29.8085 76.8753 31.1618 75.5219L38.0002 68.6835C37.0049 70.1729 36.5992 71.9793 36.862 73.7512C37.1247 75.5232 38.0372 77.134 39.4218 78.2705C40.8065 79.4069 42.5644 79.9877 44.3535 79.8999C46.1427 79.8121 47.8352 79.0619 49.1019 77.7953L59.4915 67.4058C58.4947 68.8952 58.0878 70.7024 58.3502 72.4753C58.6125 74.2483 59.5253 75.8602 60.9107 76.9972C62.2962 78.1341 64.0552 78.7148 65.8452 78.6262C67.6353 78.5375 69.3283 77.7859 70.5947 76.5176L86.7744 60.3379C88.041 59.0712 88.7911 57.3786 88.8789 55.5895C88.9668 53.8003 88.3859 52.0424 87.2495 50.6578C86.113 49.2731 84.5022 48.3607 82.7302 48.0979C80.9583 47.8351 79.1519 48.2408 77.6626 49.2361L81.0492 45.8494C82.3158 44.5827 83.066 42.8902 83.1538 41.101C83.2416 39.3119 82.6608 37.554 81.5244 36.1693C80.3879 34.7847 78.777 33.8722 77.0051 33.6095C75.2331 33.3467 73.4268 33.7524 71.9374 34.7477L78.7758 27.9093C80.0424 26.6426 80.7925 24.9501 80.8804 23.1609C80.9682 21.3717 80.3874 19.6139 79.2509 18.2292C78.1144 16.8446 76.5036 15.9321 74.7316 15.6694C72.9597 15.4066 71.1534 15.8123 69.664 16.8076L74.0187 12.4529C74.6888 11.7828 75.2203 10.9872 75.583 10.1117C75.9457 9.23612 76.1323 8.29771 76.1323 7.35003C76.1323 6.40235 75.9457 5.46395 75.583 4.58841C75.2203 3.71286 74.6888 2.91732 74.0187 2.24721C73.3486 1.57709 72.553 1.04553 71.6775 0.682865C70.8019 0.320203 69.8635 0.133545 68.9158 0.133545C67.9682 0.133545 67.0298 0.320203 66.1542 0.682865C65.2787 1.04553 64.4831 1.57709 63.813 2.24721L54.1135 11.9467C55.1087 10.4573 55.5145 8.65101 55.2517 6.87907C54.9889 5.10713 54.0765 3.49627 52.6918 2.35981C51.3072 1.22335 49.5493 0.642545 47.7601 0.73036C45.971 0.818174 44.2785 1.56834 43.0117 2.83493L29.3959 16.4508C30.3911 14.9614 30.7969 13.1551 30.5341 11.3831C30.2713 9.61118 29.3589 8.00031 27.9742 6.86385C26.5896 5.72739 24.8317 5.14659 23.0425 5.2344C21.2534 5.32222 19.5608 6.07238 18.2941 7.33897L2.1144 23.5187C0.761321 24.8719 0.00119019 26.7072 0.00119019 28.6208C0.00119019 30.5345 0.761321 32.3697 2.1144 33.7229H2.11305Z" fill="url(#paint0_radial_1_1486)"/>
<path d="M88.6703 64.4808L88.1711 64.9801C88.0774 65.0738 88.0247 65.2009 88.0247 65.3334C88.0247 65.4659 88.0774 65.593 88.1711 65.6867C88.2648 65.7804 88.3919 65.8331 88.5244 65.8331C88.6569 65.8331 88.784 65.7804 88.8777 65.6867L89.3769 65.1875L89.8762 65.6867C89.9699 65.7804 90.097 65.8331 90.2295 65.8331C90.362 65.8331 90.4891 65.7804 90.5828 65.6867C90.6766 65.593 90.7292 65.4659 90.7292 65.3334C90.7292 65.2009 90.6766 65.0738 90.5828 64.9801L90.0836 64.4808L90.5828 63.9816C90.6763 63.8878 90.7288 63.7607 90.7288 63.6283C90.7288 63.4958 90.6763 63.3688 90.5828 63.275C90.5365 63.2285 90.4814 63.1917 90.4208 63.1665C90.3601 63.1414 90.2951 63.1284 90.2295 63.1284C90.1639 63.1284 90.0989 63.1414 90.0382 63.1665C89.9776 63.1917 89.9225 63.2285 89.8762 63.275L89.3769 63.7742L88.8777 63.275C88.8313 63.2286 88.7762 63.1918 88.7156 63.1667C88.655 63.1415 88.59 63.1286 88.5244 63.1286C88.4588 63.1286 88.3938 63.1415 88.3332 63.1667C88.2726 63.1918 88.2175 63.2286 88.1711 63.275C88.1247 63.3214 88.0879 63.3764 88.0628 63.4371C88.0377 63.4977 88.0247 63.5627 88.0247 63.6283C88.0247 63.6939 88.0377 63.7589 88.0628 63.8195C88.0879 63.8801 88.1247 63.9352 88.1711 63.9816L88.6703 64.4808Z" fill="#FF6050"/>
<path d="M17.3247 75.2384L16.8255 75.7376C16.7791 75.784 16.7423 75.8391 16.7172 75.8997C16.6921 75.9603 16.6791 76.0253 16.6791 76.0909C16.6791 76.1565 16.6921 76.2215 16.7172 76.2821C16.7423 76.3427 16.7791 76.3978 16.8255 76.4442C16.8719 76.4906 16.927 76.5274 16.9876 76.5526C17.0482 76.5777 17.1132 76.5906 17.1788 76.5906C17.2444 76.5906 17.3094 76.5777 17.37 76.5526C17.4307 76.5274 17.4858 76.4906 17.5322 76.4442L18.0341 75.9519L18.5334 76.4512C18.5798 76.4976 18.6348 76.5344 18.6955 76.5595C18.7561 76.5846 18.8211 76.5975 18.8867 76.5975C18.9523 76.5975 19.0173 76.5846 19.0779 76.5595C19.1385 76.5344 19.1936 76.4976 19.24 76.4512C19.2864 76.4048 19.3232 76.3497 19.3483 76.289C19.3734 76.2284 19.3864 76.1635 19.3864 76.0978C19.3864 76.0322 19.3734 75.9672 19.3483 75.9066C19.3232 75.846 19.2864 75.7909 19.24 75.7445L18.7408 75.2453L19.24 74.7461C19.3096 74.676 19.3568 74.5869 19.3759 74.49C19.3949 74.3931 19.3849 74.2928 19.3471 74.2016C19.3092 74.1104 19.2453 74.0324 19.1632 73.9775C19.0812 73.9225 18.9847 73.8931 18.886 73.8928C18.8204 73.8926 18.7555 73.9055 18.6949 73.9306C18.6344 73.9558 18.5795 73.9928 18.5334 74.0394L18.0341 74.5386L17.5349 74.0394C17.4412 73.9457 17.3141 73.8931 17.1816 73.8931C17.0491 73.8931 16.922 73.9457 16.8283 74.0394C16.7346 74.1331 16.6819 74.2602 16.6819 74.3927C16.6819 74.5253 16.7346 74.6524 16.8283 74.7461L17.3247 75.2384Z" fill="#FF6050"/>
<path d="M4.5483 30.9806L4.0491 31.4798C3.95539 31.5735 3.90274 31.7006 3.90274 31.8331C3.90274 31.9657 3.95539 32.0928 4.0491 32.1865C4.14281 32.2802 4.26989 32.3328 4.40241 32.3328C4.53494 32.3328 4.66202 32.2802 4.75573 32.1865L5.25497 31.6873L5.75417 32.1865C5.80057 32.2329 5.85567 32.2697 5.91629 32.2948C5.97691 32.3199 6.04186 32.3328 6.10748 32.3328C6.1731 32.3328 6.23809 32.3199 6.29871 32.2948C6.35933 32.2697 6.41443 32.2329 6.46083 32.1865C6.50723 32.1401 6.54403 32.085 6.56914 32.0244C6.59425 31.9637 6.60719 31.8988 6.60719 31.8331C6.60719 31.7675 6.59425 31.7025 6.56914 31.6419C6.54403 31.5813 6.50723 31.5262 6.46083 31.4798L5.9616 30.9806L6.46083 30.4814C6.50723 30.435 6.54403 30.3799 6.56914 30.3193C6.59425 30.2586 6.60719 30.1937 6.60719 30.1281C6.60719 30.0624 6.59425 29.9974 6.56914 29.9368C6.54403 29.8762 6.50723 29.8211 6.46083 29.7747C6.41443 29.7283 6.35933 29.6915 6.29871 29.6664C6.23809 29.6413 6.1731 29.6284 6.10748 29.6284C6.04186 29.6284 5.97691 29.6413 5.91629 29.6664C5.85567 29.6915 5.80057 29.7283 5.75417 29.7747L5.25497 30.2739L4.75573 29.7747C4.70936 29.7283 4.6543 29.6914 4.59367 29.6663C4.53305 29.6411 4.46805 29.6282 4.40241 29.6282C4.33678 29.6282 4.27178 29.6411 4.21115 29.6663C4.15053 29.6914 4.09547 29.7283 4.0491 29.7747C3.95562 29.8685 3.90311 29.9956 3.90311 30.1281C3.90311 30.2605 3.95562 30.3875 4.0491 30.4814L4.5483 30.9806Z" fill="#FF6050"/>
<path d="M64.6455 5.31974L64.1463 5.81896C64.0526 5.91267 63.9999 6.03977 63.9999 6.17229C63.9999 6.30481 64.0526 6.43191 64.1463 6.52562C64.24 6.61932 64.3671 6.67197 64.4996 6.67197C64.6321 6.67197 64.7593 6.61932 64.853 6.52562L65.3522 6.02639L65.8514 6.52562C65.9451 6.61932 66.0722 6.67197 66.2047 6.67197C66.3372 6.67197 66.4643 6.61932 66.558 6.52562C66.6517 6.43191 66.7044 6.30481 66.7044 6.17229C66.7044 6.03977 66.6517 5.91267 66.558 5.81896L66.0588 5.31974L66.558 4.82052C66.6276 4.75044 66.6749 4.66136 66.6939 4.56447C66.713 4.46759 66.703 4.36724 66.6651 4.27604C66.6273 4.18484 66.5633 4.10687 66.4813 4.05193C66.3992 3.99699 66.3028 3.96754 66.204 3.96729C66.1385 3.96708 66.0735 3.97993 66.0129 4.0051C65.9524 4.03027 65.8975 4.06725 65.8514 4.11387L65.3522 4.61309L64.853 4.11387C64.7593 4.02016 64.6321 3.96752 64.4996 3.96752C64.3671 3.96752 64.24 4.02016 64.1463 4.11387C64.0526 4.20758 63.9999 4.33467 63.9999 4.4672C63.9999 4.59972 64.0526 4.72681 64.1463 4.82052L64.6455 5.31974Z" fill="#FF6050"/>
<path d="M55.5102 75.9338C55.7991 75.9336 56.0816 76.019 56.3219 76.1793C56.5622 76.3396 56.7496 76.5676 56.8603 76.8344C56.9711 77.1012 57.0002 77.3948 56.944 77.6782C56.8879 77.9616 56.7488 78.2219 56.5447 78.4263C56.3405 78.6306 56.0803 78.7699 55.797 78.8263C55.5137 78.8828 55.22 78.8539 54.9531 78.7435C54.6862 78.633 54.458 78.4458 54.2975 78.2056C54.137 77.9654 54.0513 77.6831 54.0513 77.3942C54.052 77.0073 54.2059 76.6365 54.4793 76.3628C54.7527 76.0892 55.1234 75.9349 55.5102 75.9338ZM55.5102 77.8547C55.6013 77.8547 55.6903 77.8277 55.7661 77.7771C55.8418 77.7265 55.9008 77.6545 55.9356 77.5704C55.9705 77.4862 55.9796 77.3937 55.9619 77.3043C55.9441 77.215 55.9002 77.1329 55.8358 77.0685C55.7714 77.0041 55.6894 76.9603 55.6001 76.9425C55.5107 76.9247 55.4181 76.9339 55.334 76.9687C55.2498 77.0036 55.1779 77.0626 55.1273 77.1383C55.0767 77.2141 55.0497 77.3031 55.0497 77.3942C55.0501 77.5162 55.0987 77.6331 55.185 77.7194C55.2713 77.8057 55.3882 77.8543 55.5102 77.8547Z" fill="#FF6050"/>
<path d="M83.0157 29.4192C83.3046 29.4189 83.5871 29.5044 83.8275 29.6647C84.0679 29.8251 84.2553 30.0531 84.366 30.32C84.4767 30.5869 84.5057 30.8807 84.4494 31.1641C84.3931 31.4475 84.254 31.7078 84.0497 31.9121C83.8453 32.1164 83.585 32.2555 83.3016 32.3118C83.0182 32.3681 82.7245 32.3391 82.4576 32.2284C82.1907 32.1177 81.9626 31.9303 81.8023 31.69C81.6419 31.4496 81.5565 31.1671 81.5568 30.8781C81.5575 30.4914 81.7114 30.1208 81.9849 29.8473C82.2583 29.5739 82.629 29.4199 83.0157 29.4192ZM83.0157 31.3386C83.1068 31.3386 83.1958 31.3116 83.2715 31.261C83.3473 31.2104 83.4063 31.1385 83.4411 31.0544C83.476 30.9702 83.4851 30.8776 83.4673 30.7883C83.4496 30.699 83.4057 30.6169 83.3413 30.5525C83.2769 30.4881 83.1948 30.4442 83.1055 30.4265C83.0162 30.4087 82.9236 30.4178 82.8395 30.4527C82.7553 30.4875 82.6834 30.5466 82.6328 30.6223C82.5822 30.698 82.5552 30.7871 82.5552 30.8781C82.5552 31.0003 82.6037 31.1174 82.6901 31.2038C82.7764 31.2901 82.8935 31.3386 83.0157 31.3386Z" fill="#FF6050"/>
<path d="M21.9062 5.99048C22.1951 5.99048 22.4775 6.07615 22.7177 6.23668C22.9578 6.3972 23.145 6.62536 23.2555 6.89228C23.366 7.1592 23.3948 7.45288 23.3384 7.7362C23.2819 8.01951 23.1427 8.27972 22.9383 8.48389C22.734 8.68807 22.4736 8.82704 22.1902 8.88323C21.9069 8.93942 21.6132 8.9103 21.3464 8.79956C21.0796 8.68882 20.8516 8.50143 20.6913 8.2611C20.531 8.02077 20.4456 7.7383 20.4459 7.44942C20.4462 7.06235 20.6002 6.69127 20.8741 6.41771C21.1479 6.14414 21.5191 5.99048 21.9062 5.99048ZM21.9062 7.90991C21.9973 7.90991 22.0863 7.88291 22.162 7.83231C22.2378 7.78171 22.2968 7.70978 22.3316 7.62564C22.3665 7.54149 22.3756 7.4489 22.3579 7.35958C22.3401 7.27025 22.2962 7.18819 22.2318 7.12379C22.1674 7.05939 22.0854 7.01553 21.996 6.99776C21.9067 6.97999 21.8141 6.98911 21.73 7.02397C21.6458 7.05882 21.5739 7.11785 21.5233 7.19358C21.4727 7.26931 21.4457 7.35834 21.4457 7.44942C21.4451 7.51024 21.4566 7.57056 21.4795 7.62691C21.5024 7.68326 21.5363 7.73452 21.5791 7.77772C21.6219 7.82092 21.6729 7.85521 21.729 7.87861C21.7852 7.90201 21.8454 7.91406 21.9062 7.91406V7.90991Z" fill="#FF6050"/>
<path d="M4.89676 51.5688C5.18559 51.5688 5.46794 51.6545 5.70809 51.815C5.94824 51.9754 6.13539 52.2035 6.24591 52.4703C6.35644 52.7372 6.38538 53.0308 6.32904 53.3141C6.27269 53.5973 6.13359 53.8575 5.92936 54.0618C5.72513 54.266 5.46492 54.4051 5.18164 54.4614C4.89837 54.5178 4.60478 54.4889 4.33794 54.3783C4.0711 54.2678 3.84302 54.0806 3.68255 53.8405C3.52209 53.6003 3.43643 53.318 3.43643 53.0292C3.4368 52.642 3.59078 52.2707 3.86456 51.997C4.13835 51.7232 4.50957 51.5692 4.89676 51.5688ZM4.89676 53.4897C4.98784 53.4897 5.07688 53.4627 5.15261 53.4121C5.22834 53.3615 5.28734 53.2895 5.32219 53.2054C5.35705 53.1212 5.36619 53.0286 5.34843 52.9393C5.33066 52.85 5.2868 52.7679 5.22239 52.7035C5.15799 52.6391 5.07593 52.5953 4.9866 52.5775C4.89727 52.5597 4.80467 52.5689 4.72053 52.6037C4.63638 52.6386 4.56447 52.6976 4.51387 52.7733C4.46327 52.849 4.43625 52.9381 4.43625 53.0292C4.43662 53.1512 4.48525 53.2681 4.57154 53.3544C4.65782 53.4407 4.77474 53.4893 4.89676 53.4897Z" fill="#FF6050"/>
<path d="M61.9752 48.7104H54.2684V59.6767H61.9752V48.7104Z" fill="white"/>
<path d="M15.3237 38.4994V37.3087C15.3262 34.9014 16.2837 32.5933 17.986 30.891C19.6883 29.1888 21.9963 28.2313 24.4037 28.2287H31.7578V33.0107H31.885V22.1897H37.6517V33.0107H37.7789V28.2287H48.2888L43.2219 32.6678C42.8545 32.9895 42.6212 33.4374 42.5681 33.9228C42.515 34.4083 42.6461 34.896 42.9353 35.2895C43.2245 35.683 43.6509 35.9537 44.13 36.0479C44.6092 36.1422 45.1063 36.0532 45.523 35.7986L46.8617 34.9813V38.498L15.3237 38.4994Z" fill="#B3B3B3"/>
<path d="M46.8617 38.6265H19.7268V59.6767H46.8617V38.6265Z" fill="white"/>
<path d="M39.6375 42.8858C39.5402 42.8563 39.4391 42.8414 39.3374 42.8416H34.2V49.0258H40.3843V43.8884C40.384 43.6633 40.3112 43.4442 40.1767 43.2636C40.0422 43.083 39.8531 42.9506 39.6375 42.8858ZM35.2012 43.8428H39.3374C39.3495 43.8428 39.3612 43.8476 39.3697 43.8561C39.3783 43.8647 39.383 43.8763 39.383 43.8884V48.0246H35.2012V43.8428Z" fill="#DDDDDD"/>
<path d="M34.2 50.2744V56.4601H39.3374C39.6151 56.4593 39.8811 56.3486 40.0773 56.1521C40.2735 55.9557 40.3839 55.6895 40.3843 55.4118V50.2744H34.2ZM35.2012 51.2756H39.383V55.4118C39.3831 55.4241 39.3783 55.4358 39.3698 55.4446C39.3613 55.4534 39.3497 55.4585 39.3374 55.4588H35.2012V51.2756Z" fill="#DDDDDD"/>
<path d="M27.8139 42.8416C27.5362 42.8419 27.27 42.9523 27.0735 43.1485C26.8771 43.3447 26.7664 43.6107 26.7656 43.8884V49.0258H32.9513V42.8416H27.8139ZM27.7668 43.8884C27.7672 43.8762 27.7723 43.8646 27.7811 43.856C27.7899 43.8475 27.8016 43.8428 27.8139 43.8428H31.95V48.0246H27.7668V43.8884Z" fill="#DDDDDD"/>
<path d="M26.7656 50.2744V55.4118C26.7661 55.5134 26.781 55.6145 26.8099 55.7119C26.8745 55.928 27.007 56.1176 27.1879 56.2524C27.3688 56.3871 27.5883 56.46 27.8139 56.4601H32.9513V50.2744H26.7656ZM31.95 51.2756V55.4588H27.8139C27.8015 55.4585 27.7898 55.4534 27.781 55.4447C27.7723 55.4359 27.7672 55.4242 27.7668 55.4118V51.2756H31.95Z" fill="#DDDDDD"/>
<path d="M69.2547 33.7174V59.6755H62.1024V48.6456C62.102 48.6288 62.0952 48.6129 62.0834 48.601C62.0715 48.5891 62.0556 48.5823 62.0388 48.582H54.2048C54.188 48.5823 54.172 48.5891 54.1602 48.601C54.1483 48.6129 54.1415 48.6288 54.1412 48.6456V59.6755H46.9889V33.7174L47.4895 33.279L58.1211 23.9529L68.7541 33.279L69.2547 33.7174Z" fill="#DDDDDD"/>
<path d="M60.3157 34.0864H55.9278C55.0755 34.0864 54.3845 34.7774 54.3845 35.6297V40.0176C54.3845 40.8699 55.0755 41.5609 55.9278 41.5609H60.3157C61.168 41.5609 61.859 40.8699 61.859 40.0176V35.6297C61.859 34.7774 61.168 34.0864 60.3157 34.0864Z" fill="white"/>
<path d="M33.9967 42.6382H38.6391C38.7846 42.64 38.9235 42.6991 39.0257 42.8026C39.128 42.9062 39.1853 43.0458 39.1853 43.1913V47.8281H34.0023L33.9967 42.6382Z" fill="#FF6050"/>
<path d="M33.9967 50.0713H39.1798V54.7081C39.1798 54.8536 39.1225 54.9933 39.0202 55.0968C38.918 55.2003 38.779 55.2594 38.6335 55.2612H33.9967V50.0713Z" fill="#FF6050"/>
<path d="M26.5638 43.1845C26.5638 43.0378 26.622 42.8971 26.7258 42.7934C26.8295 42.6896 26.9702 42.6313 27.1169 42.6313H31.7537V47.8144H26.5707L26.5638 43.1845Z" fill="#FF6050"/>
<path d="M26.5637 50.0713H31.7468V55.2557H27.11C26.9633 55.2557 26.8226 55.1974 26.7188 55.0937C26.6151 54.99 26.5568 54.8493 26.5568 54.7026L26.5637 50.0713Z" fill="#FF6050"/>
<path d="M73.4738 33.5873C73.4655 33.5596 73.4558 33.532 73.4462 33.5043C73.4152 33.4211 73.3782 33.3402 73.3355 33.2623C73.2321 33.0749 73.0974 32.9065 72.9373 32.7645L59.3242 20.8233C58.9914 20.5319 58.5641 20.3713 58.1218 20.3713C57.6794 20.3713 57.2521 20.5319 56.9193 20.8233L49.0494 27.728L48.2459 28.4305L47.105 29.4331L43.3063 32.7645C43.1906 32.8658 43.0883 32.9815 43.002 33.1088C42.9855 33.1323 42.9688 33.1586 42.9522 33.1835C42.9131 33.2486 42.878 33.316 42.8471 33.3854C42.8375 33.4047 42.8292 33.4255 42.8209 33.4449C42.7859 33.5301 42.7577 33.618 42.7365 33.7076C42.7282 33.7367 42.7227 33.7671 42.7172 33.7961C42.7116 33.8252 42.7034 33.8777 42.6978 33.9178C42.6923 33.9579 42.6978 33.987 42.6895 34.0201C42.6757 34.2323 42.6991 34.4452 42.7587 34.6493L42.767 34.6742C42.7794 34.7157 42.7918 34.7544 42.807 34.7932C42.884 34.9925 42.996 35.1766 43.1376 35.3366C43.1583 35.3615 43.1804 35.385 43.2039 35.4085C43.2115 35.4175 43.2199 35.4259 43.2288 35.4334L43.2745 35.4777L43.2994 35.4998L43.3436 35.5372L43.3713 35.5607L43.4141 35.5939L43.4473 35.6174L43.4916 35.6478L43.5275 35.6713L43.5718 35.699L43.6091 35.7197L43.6548 35.7446L43.6921 35.764L43.7391 35.7861L43.7764 35.8027L43.8235 35.8234L43.858 35.8359C43.8742 35.8431 43.8908 35.8491 43.9078 35.8538L43.9424 35.8649L44.0005 35.8815L44.0309 35.8912L44.1208 35.9119H44.1471L44.2065 35.923H44.2439H44.2964H44.331H44.3822H44.5564H44.6062H44.6394H44.6933H44.7237L44.7846 35.9133H44.8053L44.8869 35.8981H44.9159L44.9713 35.8843L45.0017 35.8746L45.0542 35.858L45.0847 35.8483L45.1331 35.8303L45.1662 35.8179L45.2119 35.7985L45.2465 35.7819C45.2618 35.7764 45.2767 35.7695 45.2907 35.7612L45.3253 35.7446L45.3695 35.7211L45.4013 35.7031L45.4442 35.6768L45.4746 35.6589L45.5203 35.6284L45.5479 35.6091L45.5949 35.5745L45.6184 35.5565L45.6876 35.4984L46.4662 34.8167L46.9668 34.3769L47.2129 34.1612L47.4674 33.9372L58.0989 24.611L58.4723 24.9388L68.7319 33.9372L69.2325 34.3769L69.7331 34.8167L70.5117 35.4984C70.8439 35.7906 71.271 35.9518 71.7134 35.952C71.977 35.951 72.2373 35.8935 72.4768 35.7833C72.5099 35.7681 72.5445 35.7515 72.5791 35.7322C72.8149 35.6055 73.0198 35.4282 73.179 35.213C73.3383 34.9979 73.4479 34.7501 73.5001 34.4876C73.5238 34.3687 73.5358 34.2478 73.5361 34.1266C73.5427 33.9447 73.5217 33.7629 73.4738 33.5873ZM73.0313 34.3963C72.9926 34.5864 72.9128 34.7658 72.7974 34.9218C72.682 35.0778 72.5339 35.2067 72.3634 35.2993L72.2887 35.3353C72.0565 35.4423 71.7983 35.4798 71.5453 35.4432C71.2923 35.4067 71.0553 35.2976 70.8629 35.1292L69.7566 34.1612L69.256 33.7214L68.7554 33.2831L58.1211 23.9555L47.4895 33.2789L46.9889 33.7173L46.4883 34.157L45.382 35.1251L45.3322 35.1665L45.317 35.1776C45.3045 35.1887 45.2921 35.197 45.281 35.2053L45.263 35.2177L45.2312 35.2385L45.2105 35.2523L45.1787 35.2716L45.1552 35.2841L45.1234 35.3007C45.1154 35.3054 45.107 35.3095 45.0985 35.3131L45.0667 35.3283L45.0418 35.3408L45.0086 35.3546L44.9851 35.3629L44.9505 35.3754H44.9312L44.8938 35.3878H44.8745L44.833 35.3989H44.815L44.7555 35.4113H44.7417H44.6947H44.6753H44.6339H44.6089H44.573H44.4472H44.4084H44.3808H44.3421H44.3199L44.2715 35.403H44.2549L44.1899 35.3878H44.1706L44.1263 35.374H44.1042C44.0904 35.374 44.0779 35.3657 44.0669 35.3601L44.0434 35.3519L44.0212 35.3422H44.0088L43.9825 35.3311L43.9465 35.3131L43.9203 35.3007L43.8871 35.2827L43.8608 35.2675L43.829 35.2468L43.8027 35.2302L43.7709 35.208L43.7474 35.1914L43.7156 35.1665L43.6963 35.1513L43.6645 35.1237L43.6478 35.1085L43.6133 35.0753L43.5967 35.0587L43.5483 35.0075C43.4463 34.8905 43.3654 34.7567 43.309 34.612C43.2966 34.5802 43.2855 34.5456 43.2745 34.5083C43.2305 34.3604 43.2132 34.2059 43.2233 34.0519C43.2233 34.0271 43.2233 34.0035 43.2233 33.9773C43.2233 33.951 43.2316 33.9192 43.2357 33.8901C43.2399 33.8611 43.2454 33.8459 43.251 33.8252C43.2664 33.7601 43.2868 33.6963 43.3118 33.6343C43.3118 33.6205 43.3242 33.6053 43.3312 33.5915C43.3532 33.5409 43.3786 33.4919 43.4072 33.4449L43.4432 33.3909C43.5055 33.2989 43.5794 33.2153 43.6631 33.142L57.2775 21.1994C57.5188 20.9881 57.8287 20.8716 58.1494 20.8716C58.4702 20.8716 58.78 20.9881 59.0213 21.1994L72.6344 33.142C72.6687 33.1712 72.701 33.2026 72.7312 33.236C72.7617 33.2681 72.7903 33.3018 72.8169 33.337C72.8471 33.3767 72.8748 33.4183 72.8999 33.4615C72.9086 33.4743 72.9164 33.4877 72.9234 33.5016C72.9543 33.5581 72.9812 33.6168 73.0036 33.6772L73.0244 33.738C73.0819 33.9534 73.0843 34.1798 73.0313 34.3963Z" fill="white"/>
<path d="M73.0313 34.3964C72.9926 34.5865 72.9128 34.7659 72.7974 34.9219C72.682 35.0779 72.5339 35.2068 72.3634 35.2994L72.2887 35.3354C72.0565 35.4424 71.7983 35.4799 71.5453 35.4433C71.2923 35.4068 71.0553 35.2977 70.8629 35.1293L69.7566 34.1613L69.256 33.7215L68.7554 33.2832L58.1211 23.9556L47.4895 33.279L46.9889 33.7174L46.4883 34.1572L45.382 35.1252L45.3322 35.1667L45.317 35.1777C45.3045 35.1888 45.2921 35.1971 45.281 35.2054L45.263 35.2178L45.2312 35.2386L45.2105 35.2524L45.1787 35.2718L45.1552 35.2842L45.1234 35.3008C45.1153 35.3055 45.107 35.3097 45.0985 35.3132L45.0667 35.3285L45.0418 35.3409L45.0086 35.3547L44.9851 35.363L44.9505 35.3755H44.9312L44.8938 35.3879H44.8745L44.833 35.399H44.815L44.7555 35.4114H44.7417H44.6947H44.6753H44.6338H44.6089H44.573H44.4471H44.4084H44.3808H44.342H44.3199L44.2715 35.4031H44.2549L44.1899 35.3879H44.1706L44.1263 35.3741H44.1042C44.0904 35.3741 44.0779 35.3658 44.0669 35.3603L44.0434 35.352L44.0088 35.3368L43.9825 35.3257L43.9465 35.3077L43.9203 35.2953L43.8871 35.2773L43.8608 35.2621L43.829 35.2413L43.8027 35.2247L43.7709 35.2026L43.7474 35.186L43.7156 35.1611L43.6963 35.1459L43.6644 35.1183L43.6478 35.103L43.6133 35.0699L43.5967 35.0533L43.5483 35.0021C43.4463 34.8851 43.3653 34.7513 43.309 34.6066C43.2966 34.5748 43.2855 34.5402 43.2745 34.5029C43.2305 34.355 43.2132 34.2005 43.2233 34.0465C43.2233 34.0216 43.2233 33.9981 43.2233 33.9719C43.2233 33.9456 43.2316 33.9138 43.2357 33.8847C43.2399 33.8557 43.2454 33.8405 43.251 33.8197C43.2664 33.7547 43.2868 33.6909 43.3118 33.6289C43.3118 33.6151 43.3242 33.5999 43.3312 33.586C43.3532 33.5355 43.3786 33.4865 43.4072 33.4394L43.4432 33.3855C43.5055 33.2935 43.5794 33.2098 43.6631 33.1366L57.2775 21.194C57.5188 20.9827 57.8287 20.8662 58.1494 20.8662C58.4702 20.8662 58.78 20.9827 59.0213 21.194L72.6344 33.1366C72.6687 33.1658 72.701 33.1972 72.7312 33.2306C72.7617 33.2626 72.7903 33.2964 72.8169 33.3316C72.8567 33.3835 72.8923 33.4385 72.9234 33.4961C72.9543 33.5527 72.9811 33.6114 73.0036 33.6718L73.0244 33.7326C73.0828 33.9497 73.0852 34.1781 73.0313 34.3964Z" fill="#FF6050"/>
<path d="M62.0692 34.5802C61.7703 34.4005 61.4304 34.3005 61.0818 34.2898H56.6317C56.0899 34.2905 55.5704 34.5061 55.1873 34.8893C54.8041 35.2724 54.5886 35.7918 54.5878 36.3337V40.7824C54.6047 41.3134 54.8274 41.817 55.2088 42.1868C55.5902 42.5566 56.1005 42.7636 56.6317 42.7641H61.0196C61.5615 42.7634 62.0809 42.5478 62.464 42.1646C62.8472 41.7815 63.0628 41.262 63.0635 40.7202V36.3337C63.0633 35.9804 62.9716 35.6332 62.7974 35.3259C62.6231 35.0186 62.3722 34.7617 62.0692 34.5802ZM62.0609 40.7202C62.0611 40.8571 62.0343 40.9926 61.9821 41.1191C61.9298 41.2456 61.8531 41.3606 61.7564 41.4574C61.6597 41.5543 61.5448 41.6311 61.4184 41.6835C61.292 41.7359 61.1565 41.7629 61.0196 41.7629H56.6317C56.4069 41.7634 56.1879 41.6911 56.0077 41.5567C55.8274 41.4223 55.6956 41.2331 55.6319 41.0175C55.6034 40.921 55.589 40.8208 55.589 40.7202V36.3337C55.5889 36.1967 55.6157 36.0611 55.668 35.9345C55.7204 35.8079 55.7971 35.6929 55.894 35.596C55.9909 35.4991 56.1059 35.4223 56.2325 35.37C56.3591 35.3177 56.4948 35.2908 56.6317 35.291H61.0196C61.1198 35.2904 61.2196 35.3049 61.3155 35.3339C61.5312 35.3976 61.7203 35.5294 61.8547 35.7097C61.9891 35.8899 62.0615 36.1089 62.0609 36.3337V40.7202Z" fill="#DDDDDD"/>
<path d="M61.9752 48.7851V49.9135H62.1024V48.7851H61.9752ZM46.4869 35.4887L46.0389 35.8814C46.0112 35.9063 45.9822 35.9312 45.9517 35.9547L45.9199 35.9796L45.8619 36.0225L45.8245 36.0487L45.7678 36.0861L45.7277 36.111L45.6752 36.1428L45.6351 36.1649L45.5784 36.1953L45.5341 36.2175L45.476 36.2451L45.4331 36.2645L45.3737 36.2894L45.3322 36.306L45.2727 36.3267L45.234 36.3392L45.1718 36.3585L45.1303 36.371L45.0625 36.3875L45.0252 36.3972L44.9187 36.418H44.8925C44.8662 36.418 44.8413 36.4263 44.8164 36.429H44.7777H44.7099H44.6684H44.6048H44.4333H44.3822H44.3172H44.2688L44.2024 36.4207L44.1512 36.4124L44.0766 36.3986H44.0434L43.93 36.3723L43.8871 36.3599L43.8166 36.3392L43.7696 36.3239L43.7073 36.3018L43.6645 36.2852L43.6036 36.2603L43.558 36.2396L43.4971 36.2105L43.4515 36.187L43.392 36.1552L43.345 36.1276L43.2897 36.093L43.2441 36.064L43.1887 36.0252L43.1445 35.9948L43.0906 35.9519L43.0532 35.9215L43.0325 35.9035C43.0783 35.9994 43.1309 36.0919 43.1901 36.1801C43.2526 36.2771 43.322 36.3695 43.3976 36.4567C43.6265 36.7193 43.9095 36.9292 44.2273 37.0721C44.5685 37.2268 44.9407 37.3011 45.3152 37.2893C45.6897 37.2776 46.0565 37.1801 46.3874 37.0043C46.4302 36.9822 46.4731 36.9573 46.5146 36.9324L46.8879 36.7056V35.1568L46.4869 35.4887ZM74.6534 34.1404C74.6424 34.1058 74.6313 34.0712 74.6175 34.0353C74.579 33.9292 74.5328 33.8261 74.4792 33.7269C74.4233 33.6258 74.3605 33.5288 74.2911 33.4365C74.2441 33.3756 74.1929 33.3148 74.1404 33.2581C74.0878 33.2014 74.0298 33.1461 73.9717 33.0935L73.6356 32.799L60.36 21.151C59.9725 20.8114 59.4831 20.6105 58.9688 20.5798C58.9218 20.5798 58.8748 20.5798 58.8305 20.5798C58.2668 20.5804 57.7225 20.7853 57.2983 21.1565L49.001 28.4374H38.8645V22.3928H32.0967V28.4304H25.1159C22.5756 28.4334 20.1402 29.4439 18.3441 31.2403C16.548 33.0366 15.5378 35.4722 15.5353 38.0124V39.7023H19.937V60.1759H70.4674V36.1926L70.9155 36.5853C71.2532 36.8814 71.6694 37.0733 72.1139 37.1378C72.5583 37.2023 73.0119 37.1368 73.4199 36.949L73.5499 36.884C73.7939 36.7532 74.0122 36.5794 74.1943 36.371C74.4578 36.0709 74.6393 35.7079 74.7215 35.3172C74.8036 34.9264 74.7835 34.5211 74.6631 34.1404H74.6534ZM73.5983 34.2054C73.6295 34.2618 73.6563 34.3205 73.6785 34.381L73.6992 34.4418C73.7914 34.7349 73.7785 35.051 73.663 35.3356C73.5474 35.6203 73.3363 35.8558 73.0659 36.0017C73.041 36.0155 73.0161 36.028 72.9912 36.0391C72.7915 36.1312 72.572 36.1721 72.3525 36.1581C72.133 36.1441 71.9205 36.0756 71.7342 35.9589C71.6747 35.9214 71.6183 35.8793 71.5655 35.833L70.4592 34.865L69.9585 34.4252L69.7553 34.2482L69.458 33.9869L69.2547 33.8085L68.7541 33.3687L58.825 24.6566L58.4945 24.947L48.1934 33.9841L47.6928 34.4225L47.4895 34.6036L47.3623 34.7157L47.1922 34.865L46.9889 35.0434L46.8617 35.154L46.4883 35.4818L46.0831 35.8372L46.0333 35.8786L46.0181 35.8897C46.0057 35.9008 45.9932 35.9091 45.9822 35.9174L45.9642 35.9298C45.9537 35.938 45.9426 35.9454 45.931 35.9519L45.9117 35.9658L45.8799 35.9837C45.8725 35.9891 45.8646 35.9937 45.8563 35.9976L45.8245 36.0142L45.7996 36.0266L45.7678 36.0418L45.7429 36.0529L45.7097 36.0667L45.6848 36.0764L45.6503 36.0888H45.6309L45.5922 36.0999H45.5728L45.53 36.111H45.5134L45.4525 36.1234H45.4401H45.3931H45.3737H45.3322H45.3073H45.2714H45.1386H45.1013H45.0764H45.0363H45.0128L44.9658 36.1151H44.9491L44.8841 36.0985H44.8648L44.8205 36.0861H44.7984L44.7597 36.0722H44.7486H44.7376L44.7016 36.057L44.6753 36.0446L44.6408 36.028L44.6145 36.0155L44.5813 35.9962L44.555 35.981L44.526 35.963L44.5011 35.9464L44.4693 35.9243L44.4458 35.9077L44.414 35.8828L44.3946 35.8676L44.3628 35.8399L44.3448 35.8247L44.3103 35.7915L44.295 35.7749C44.2771 35.7569 44.2619 35.7404 44.2467 35.7224C44.1532 35.6163 44.0775 35.4958 44.0226 35.3656C44.0226 35.3532 44.0116 35.3407 44.0074 35.3283C43.994 35.2943 43.9825 35.2597 43.9729 35.2245C43.929 35.0766 43.9117 34.9221 43.9217 34.7682C43.9217 34.7433 43.9217 34.7198 43.9217 34.6935C43.9217 34.6672 43.93 34.6341 43.9355 34.6064C43.941 34.5787 43.9452 34.5622 43.9493 34.5414C43.9657 34.4764 43.9865 34.4127 44.0116 34.3506C44.0116 34.3354 44.024 34.3215 44.0295 34.3077C44.0526 34.2574 44.0784 34.2085 44.107 34.1611C44.118 34.1431 44.1305 34.1238 44.1429 34.1072C44.2056 34.015 44.2795 33.9309 44.3628 33.8569L57.9773 21.9157C58.2186 21.7044 58.5284 21.5879 58.8492 21.5879C59.1699 21.5879 59.4798 21.7044 59.7211 21.9157L72.8958 33.4738L73.3341 33.8569C73.3687 33.8873 73.4006 33.9191 73.431 33.9509C73.4614 33.9827 73.4904 34.0187 73.5167 34.0532C73.5399 34.0835 73.5616 34.1149 73.5817 34.1473C73.572 34.1583 73.5872 34.1888 73.5997 34.2054H73.5983ZM62.1771 59.8785H55.4715V49.9135H62.1771V59.8785ZM63.3055 49.3493C63.3055 49.2197 63.2605 49.0941 63.1783 48.9939V48.9123H63.0981C62.9972 48.8304 62.8713 48.7856 62.7413 48.7851H54.9073C54.7772 48.7851 54.6512 48.83 54.5505 48.9123H54.4703V48.9939C54.3875 49.0938 54.3425 49.2196 54.3431 49.3493V59.8785H48.192V35.3144L58.8291 25.9883L68.7582 34.7004L69.2588 35.1402L69.4621 35.3186V59.8827H63.311L63.3055 49.3493ZM16.5268 37.9986C16.533 35.7274 17.4386 33.551 19.0454 31.9458C20.6522 30.3405 22.8294 29.4371 25.1007 29.433H31.9542V34.215H33.0827V23.394H37.8467V34.215H38.9765V29.433H47.6513L43.5884 32.9967C43.346 33.2075 43.1479 33.4644 43.0054 33.7523C42.863 34.0402 42.7792 34.3536 42.7587 34.6742C42.7511 34.7865 42.7511 34.8992 42.7587 35.0116C42.7802 35.3209 42.8609 35.6233 42.9965 35.9022C43.0423 35.9981 43.095 36.0905 43.1542 36.1787C43.2167 36.2757 43.286 36.3681 43.3616 36.4553C43.5905 36.7179 43.8736 36.9278 44.1913 37.0707C44.5326 37.2254 44.9048 37.2997 45.2793 37.288C45.6537 37.2762 46.0205 37.1787 46.3514 37.0029C46.3943 36.9808 46.4371 36.9559 46.4786 36.931L46.852 36.7042L46.9792 36.6254L47.0553 36.5798V38.7025H16.5282L16.5268 37.9986ZM20.9285 39.8309H47.065V59.8827H20.9285V39.8309Z" fill="#DDDDDD"/>
<path d="M53.7678 48.2085V60.1759H62.4799V48.2085H53.7678ZM54.769 49.2097H61.4746V59.1747H54.769V49.2097Z" fill="#333333"/>
<path d="M38.1523 27.728V21.689H31.3845V27.728H24.4037C21.8637 27.7309 19.4285 28.7412 17.6324 30.5373C15.8363 32.3334 14.826 34.7686 14.8231 37.3086V38.9999H47.3623V34.0906L47.235 34.1681L46.9889 34.3188L46.4883 34.6244L45.8383 35.0199L45.263 35.3726C45.0354 35.5108 44.7743 35.5839 44.508 35.5841C44.2132 35.5842 43.9255 35.4943 43.6832 35.3266C43.4408 35.1589 43.2553 34.9212 43.1515 34.6454C43.0477 34.3695 43.0305 34.0686 43.1021 33.7827C43.1737 33.4968 43.3308 33.2395 43.5524 33.0452L47.6153 29.4815L48.8129 28.4305L49.615 27.728H38.1523ZM15.8215 37.9987V37.3072C15.8259 35.0346 16.7306 32.8564 18.3376 31.2494C19.9445 29.6425 22.1228 28.7378 24.3954 28.7334H31.2489V33.5167H32.3788V22.6943H37.1428V33.5167H38.2712V28.7334H46.946L46.1439 29.4372L42.8831 32.297C42.5997 32.5464 42.3777 32.8579 42.2345 33.2071C42.0913 33.5564 42.0307 33.9341 42.0575 34.3106C42.0842 34.6871 42.1976 35.0524 42.3888 35.3779C42.58 35.7034 42.8438 35.9803 43.1597 36.1871C43.2661 36.2577 43.378 36.3197 43.4944 36.3724C43.8579 36.5378 44.2565 36.6117 44.6552 36.5876C45.0539 36.5635 45.4406 36.4421 45.7816 36.2341L46.3583 35.8815V38.0056L15.8215 37.9987Z" fill="#780404"/>
<path d="M19.2248 38.126V60.176H47.3623V38.126H19.2248ZM20.226 39.1272H46.3625V59.1789H20.226V39.1272Z" fill="#780404"/>
<path d="M69.2546 33.7174L68.754 33.2791V59.1749H62.603V48.6456C62.603 48.496 62.5435 48.3525 62.4377 48.2467C62.3319 48.1408 62.1884 48.0814 62.0388 48.0814H54.2048C54.1209 48.0808 54.0379 48.0993 53.9622 48.1354C53.8865 48.1716 53.82 48.2245 53.7678 48.2902C53.685 48.3901 53.64 48.5159 53.6405 48.6456V59.1749H47.4895V33.2791L46.9889 33.7174L46.4883 34.1572V60.1761H54.6473V49.0826H61.6073V60.1761H69.7663V34.1572L69.2546 33.7174Z" fill="#780404"/>
<path d="M62.0692 34.5802C61.8877 34.2772 61.6308 34.0263 61.3235 33.8521C61.0162 33.6778 60.669 33.5861 60.3157 33.5859H55.9251C55.3832 33.5867 54.8638 33.8022 54.4806 34.1854C54.0975 34.5685 53.8819 35.088 53.8812 35.6298V40.0177C53.8823 40.5595 54.0979 41.0787 54.481 41.4618C54.8641 41.8448 55.3833 42.0605 55.9251 42.0616H60.3129C60.8548 42.0609 61.3743 41.8453 61.7574 41.4622C62.1406 41.079 62.3561 40.5596 62.3568 40.0177V35.6298C62.3581 35.2603 62.2586 34.8975 62.0692 34.5802ZM55.6319 41.0175C55.4163 40.9535 55.2273 40.8216 55.0927 40.6415C54.9582 40.4613 54.8854 40.2426 54.8851 40.0177V35.6298C54.8851 35.3533 54.995 35.0881 55.1905 34.8925C55.3861 34.697 55.6513 34.5871 55.9278 34.5871H60.3157C60.5923 34.5871 60.8575 34.697 61.053 34.8925C61.2485 35.0881 61.3584 35.3533 61.3584 35.6298V40.0177C61.358 40.2941 61.2481 40.5591 61.0526 40.7546C60.8571 40.9501 60.5921 41.06 60.3157 41.0604H55.9251C55.8258 41.0601 55.7271 41.0456 55.6319 41.0175Z" fill="#780404"/>
<path d="M39.6375 42.8858C39.5727 42.6698 39.4401 42.4804 39.2593 42.3457C39.0785 42.2109 38.8591 42.138 38.6335 42.1377H33.4962V48.3219H39.6804V43.1845C39.6804 43.0834 39.666 42.9829 39.6375 42.8858ZM38.6792 47.3207H34.4974V43.1389H38.6391C38.6512 43.1389 38.6628 43.1437 38.6714 43.1523C38.6799 43.1608 38.6847 43.1724 38.6847 43.1845L38.6792 47.3207Z" fill="#95141A"/>
<path d="M33.4962 49.5706V55.7617H38.6391C38.9167 55.761 39.1828 55.6503 39.379 55.4538C39.5752 55.2573 39.6856 54.9912 39.6859 54.7135V49.5761L33.4962 49.5706ZM38.6792 54.708C38.6792 54.7202 38.6744 54.7319 38.6659 54.7407C38.6574 54.7495 38.6458 54.7546 38.6335 54.755H34.4974V50.5718H38.6792V54.708Z" fill="#95141A"/>
<path d="M27.11 42.1377C26.8324 42.1381 26.5664 42.2485 26.3701 42.4447C26.1739 42.6409 26.0635 42.907 26.0631 43.1845V48.3219H32.2474V42.1377H27.11ZM31.2462 47.3207H27.0643V43.1845C27.0643 43.1724 27.0692 43.1608 27.0777 43.1523C27.0863 43.1437 27.0979 43.1389 27.11 43.1389H31.2462V47.3207Z" fill="#95141A"/>
<path d="M26.0631 49.5706V54.708C26.0631 54.9334 26.1358 55.1527 26.2703 55.3336C26.4048 55.5144 26.594 55.6471 26.8099 55.7119C26.9072 55.7414 27.0083 55.7563 27.11 55.7562H32.2474V49.5706H26.0631ZM27.0643 54.708V50.5718H31.2462V54.755H27.11C27.0977 54.7546 27.0861 54.7495 27.0776 54.7407C27.0691 54.7319 27.0643 54.7202 27.0643 54.708Z" fill="#95141A"/>
<path d="M73.9509 33.4381C73.9399 33.4021 73.9288 33.3676 73.915 33.3316C73.8763 33.2256 73.8301 33.1226 73.7767 33.0232C73.7345 32.9462 73.6884 32.8714 73.6384 32.7992C73.6232 32.7771 73.6066 32.7549 73.59 32.7342C73.5432 32.6715 73.4928 32.6115 73.4392 32.5544C73.3867 32.4977 73.33 32.4424 73.2705 32.3899L59.6588 20.4473C59.2349 20.0757 58.6903 19.8708 58.1266 19.8708C57.5628 19.8708 57.0183 20.0757 56.5944 20.4473L48.2971 27.7282L47.7273 28.2288L47.495 28.4307L46.3541 29.4333L42.9758 32.3912C42.8288 32.52 42.6987 32.6668 42.5886 32.8282C42.5664 32.86 42.5457 32.8932 42.525 32.9264C42.4731 33.0084 42.4269 33.0939 42.3867 33.1822C42.3742 33.2085 42.3632 33.2334 42.3535 33.2583C42.3088 33.3669 42.2728 33.4788 42.2456 33.593C42.2359 33.6303 42.2276 33.669 42.2207 33.7077C42.2138 33.7465 42.2027 33.8087 42.1972 33.8599C42.1917 33.911 42.1875 33.9484 42.1847 33.9981C42.1674 34.2687 42.1979 34.5402 42.2746 34.8002C42.294 34.8652 42.3134 34.9247 42.3369 34.9841C42.4333 35.2373 42.5738 35.4714 42.7517 35.6756C42.778 35.706 42.8057 35.7364 42.8361 35.7669C42.8465 35.7786 42.8576 35.7897 42.8693 35.8L42.9246 35.8526L42.9592 35.8844L42.9924 35.912L43.0131 35.93L43.0504 35.9605L43.1044 36.0033L43.1486 36.0337L43.2039 36.0725L43.2496 36.1015L43.3049 36.1361L43.3519 36.1637L43.4114 36.1955L43.457 36.2191L43.5179 36.2481L43.5635 36.2688L43.6243 36.2937L43.6672 36.3103L43.7294 36.3324L43.7764 36.3477L43.847 36.3684L43.8898 36.3808L44.0033 36.4071H44.0364L44.1111 36.421L44.1623 36.4292L44.2286 36.4375H44.2771H44.342H44.3932H44.5647H44.6283H44.6698H44.7376H44.7763C44.8012 36.4375 44.826 36.4376 44.8523 36.4265H44.8786L44.9851 36.4057L45.0224 36.3961L45.0902 36.3795L45.1317 36.367L45.1939 36.3477L45.2326 36.3352L45.2921 36.3145L45.3336 36.2979L45.3931 36.273L45.4359 36.2536L45.494 36.226L45.5382 36.2038L45.5949 36.1734L45.6351 36.1513L45.6876 36.1195L45.7277 36.0946L45.7844 36.0573L45.8217 36.031L45.8798 35.9881L45.9116 35.9632C45.9421 35.9397 45.9711 35.9148 45.9987 35.8899L46.4468 35.4972L46.8202 35.1694L46.9474 35.0588L47.3208 34.7311L47.448 34.6191L58.0796 25.2929L68.7126 34.6191L69.2132 35.0588L69.7138 35.4972L70.1618 35.8899C70.5854 36.2623 71.1301 36.4678 71.694 36.468C72.0283 36.4661 72.3583 36.3931 72.6621 36.2536C72.7049 36.2329 72.7492 36.2121 72.7907 36.1886C73.0911 36.0268 73.3521 35.8007 73.5553 35.5266C73.7584 35.2525 73.8987 34.9369 73.9661 34.6025C74.06 34.2193 74.0548 33.8186 73.9509 33.4381ZM70.8602 35.1293L69.7539 34.1613L69.2532 33.7216L68.7527 33.2832L58.1211 23.9557L47.4895 33.2791L46.9889 33.7174L46.4883 34.1572L45.382 35.1252L45.3322 35.1667L45.317 35.1777C45.3045 35.1888 45.2921 35.1971 45.281 35.2054L45.263 35.2178L45.2312 35.2386L45.2105 35.2524L45.1787 35.2718L45.1552 35.2842L45.1234 35.3008C45.1154 35.3055 45.107 35.3097 45.0985 35.3133L45.0667 35.3285L45.0418 35.3409L45.0086 35.3548L44.9851 35.363L44.9505 35.3755H44.9312L44.8938 35.3879H44.8745L44.833 35.399H44.815L44.7555 35.4114H44.7417H44.6947H44.6753H44.6339H44.6089H44.573H44.4471H44.4084H44.3808H44.342H44.3199L44.2715 35.4032H44.2549L44.1899 35.3879H44.1706L44.1263 35.3741H44.1042C44.0904 35.3741 44.0779 35.3658 44.0669 35.3603L44.0434 35.352L44.0212 35.3423H44.0088L43.9825 35.3312L43.9465 35.3133L43.9203 35.3008L43.8871 35.2828L43.8608 35.2676L43.829 35.2469L43.8027 35.2303L43.7709 35.2082L43.7474 35.1916L43.7156 35.1667L43.6963 35.1515L43.6645 35.1238L43.6478 35.1086L43.6133 35.0754L43.5967 35.0588L43.5483 35.0077C43.4463 34.8906 43.3654 34.7568 43.309 34.6122C43.2966 34.5803 43.2855 34.5458 43.2745 34.5084C43.2305 34.3605 43.2132 34.206 43.2233 34.0521C43.2233 34.0272 43.2233 34.0037 43.2233 33.9774C43.2233 33.9511 43.2316 33.9193 43.2357 33.8903C43.2399 33.8612 43.2454 33.846 43.251 33.8253C43.2664 33.7602 43.2868 33.6964 43.3118 33.6344C43.3118 33.6206 43.3242 33.6054 43.3312 33.5916C43.3532 33.5411 43.3786 33.4921 43.4072 33.445L43.4432 33.3911C43.5055 33.299 43.5794 33.2154 43.6631 33.1421L57.2775 21.1996C57.5188 20.9883 57.8287 20.8718 58.1494 20.8718C58.4702 20.8718 58.78 20.9883 59.0213 21.1996L72.6344 33.1421C72.6687 33.1714 72.701 33.2028 72.7312 33.2362C72.7617 33.2682 72.7903 33.3019 72.8169 33.3371C72.8471 33.3769 72.8748 33.4184 72.8999 33.4616C72.9086 33.4745 72.9164 33.4879 72.9234 33.5017C72.9543 33.5582 72.9812 33.6169 73.0036 33.6773L73.0244 33.7382C73.116 34.0315 73.103 34.3475 72.9875 34.6323C72.872 34.9171 72.6611 35.1529 72.391 35.2994L72.3163 35.3354C72.0842 35.4424 71.826 35.4799 71.573 35.4433C71.32 35.4068 71.0829 35.2977 70.8906 35.1293H70.8602Z" fill="#BC0B14"/>
<path d="M79.1491 59.6754C79.1491 59.8082 79.0964 59.9355 79.0025 60.0294C78.9086 60.1233 78.7813 60.176 78.6486 60.176H10.2333C10.1005 60.176 9.9732 60.1233 9.87932 60.0294C9.78544 59.9355 9.7327 59.8082 9.7327 59.6754C9.7327 59.5426 9.78544 59.4153 9.87932 59.3214C9.9732 59.2275 10.1005 59.1748 10.2333 59.1748H78.6486C78.7813 59.1748 78.9086 59.2275 79.0025 59.3214C79.0964 59.4153 79.1491 59.5426 79.1491 59.6754Z" fill="#780404"/>
<path d="M8.16865 60.176H5.88828C5.75551 60.176 5.6282 60.1233 5.53432 60.0294C5.44044 59.9355 5.3877 59.8082 5.3877 59.6754C5.3877 59.5426 5.44044 59.4153 5.53432 59.3214C5.6282 59.2275 5.75551 59.1748 5.88828 59.1748H8.16865C8.30142 59.1748 8.42876 59.2275 8.52264 59.3214C8.61652 59.4153 8.66927 59.5426 8.66927 59.6754C8.66927 59.8082 8.61652 59.9355 8.52264 60.0294C8.42876 60.1233 8.30142 60.176 8.16865 60.176Z" fill="#333333"/>
<path d="M19.3921 57.7227H17.1118C16.979 57.7227 16.8517 57.6699 16.7578 57.576C16.6639 57.4821 16.6111 57.3548 16.6111 57.2221C16.6111 57.0893 16.6639 56.9619 16.7578 56.8681C16.8517 56.7742 16.979 56.7214 17.1118 56.7214H19.3921C19.5249 56.7214 19.6522 56.7742 19.7461 56.8681C19.84 56.9619 19.8927 57.0893 19.8927 57.2221C19.8927 57.3548 19.84 57.4821 19.7461 57.576C19.6522 57.6699 19.5249 57.7227 19.3921 57.7227Z" fill="#780404"/>
<path d="M15.0457 57.7227H12.7654C12.6326 57.7227 12.5053 57.6699 12.4114 57.576C12.3175 57.4821 12.2648 57.3548 12.2648 57.2221C12.2648 57.0893 12.3175 56.9619 12.4114 56.8681C12.5053 56.7742 12.6326 56.7214 12.7654 56.7214H15.0457C15.1785 56.7214 15.3058 56.7742 15.3997 56.8681C15.4936 56.9619 15.5463 57.0893 15.5463 57.2221C15.5463 57.3548 15.4936 57.4821 15.3997 57.576C15.3058 57.6699 15.1785 57.7227 15.0457 57.7227Z" fill="#780404"/>
<path d="M71.7715 57.7227H69.4912C69.3584 57.7227 69.231 57.6699 69.1372 57.576C69.0433 57.4821 68.9905 57.3548 68.9905 57.2221C68.9905 57.0893 69.0433 56.9619 69.1372 56.8681C69.231 56.7742 69.3584 56.7214 69.4912 56.7214H71.7715C71.9043 56.7214 72.0316 56.7742 72.1255 56.8681C72.2194 56.9619 72.2721 57.0893 72.2721 57.2221C72.2721 57.3548 72.2194 57.4821 72.1255 57.576C72.0316 57.6699 71.9043 57.7227 71.7715 57.7227Z" fill="#780404"/>
<path d="M76.1151 57.7227H73.8348C73.702 57.7227 73.5746 57.6699 73.4808 57.576C73.3869 57.4821 73.3341 57.3548 73.3341 57.2221C73.3341 57.0893 73.3869 56.9619 73.4808 56.8681C73.5746 56.7742 73.702 56.7214 73.8348 56.7214H76.1151C76.2479 56.7214 76.3752 56.7742 76.4691 56.8681C76.563 56.9619 76.6157 57.0893 76.6157 57.2221C76.6157 57.3548 76.563 57.4821 76.4691 57.576C76.3752 57.6699 76.2479 57.7227 76.1151 57.7227Z" fill="#780404"/>
<path d="M82.995 60.176H80.7146C80.5818 60.176 80.4545 60.1233 80.3606 60.0294C80.2667 59.9355 80.214 59.8082 80.214 59.6754C80.214 59.5426 80.2667 59.4153 80.3606 59.3214C80.4545 59.2275 80.5818 59.1748 80.7146 59.1748H82.995C83.1277 59.1748 83.2551 59.2275 83.349 59.3214C83.4429 59.4153 83.4956 59.5426 83.4956 59.6754C83.4956 59.8082 83.4429 59.9355 83.349 60.0294C83.2551 60.1233 83.1277 60.176 82.995 60.176Z" fill="#780404"/>
</g>
<defs>
<radialGradient id="paint0_radial_1_1486" cx="0" cy="0" r="1" gradientUnits="userSpaceOnUse" gradientTransform="translate(42.1096 41.8693) rotate(140.761) scale(62.8311 70.0072)">
<stop stop-color="white"/>
<stop offset="1" stop-color="#FFDAC9"/>
</radialGradient>
<clipPath id="clip0_1_1486">
<rect width="90.8553" height="79.9305" fill="white"/>
</clipPath>
</defs>
</svg>
