<svg width="80" height="66" viewBox="0 0 80 66" fill="none" xmlns="http://www.w3.org/2000/svg">
<g clip-path="url(#clip0_71_576)">
<path d="M47.622 42.0395C47.622 43.5258 47.6391 44.9191 47.6172 46.3105C47.5954 47.6838 47.6723 49.078 47.4616 50.4258C47.0715 52.9257 45.2217 54.6559 42.7009 54.8865C40.9925 55.0422 39.2651 54.9587 37.5454 54.9814C37.161 54.9814 36.7747 54.953 36.3932 54.9814C35.3833 55.0602 34.6971 55.6003 34.5434 56.5949C34.2966 58.1913 34.1229 59.801 33.9606 61.4088C33.8714 62.2933 33.8714 63.1864 33.8268 64.0757C33.7879 64.835 33.4263 65.1625 32.6556 65.1444C31.9789 65.1283 31.5888 64.7743 31.6363 64.0672C31.8109 61.4847 31.9438 58.8955 32.2522 56.3282C32.5113 54.1728 34.0043 52.9001 36.1701 52.8099C37.7665 52.7435 39.3686 52.7976 40.9669 52.7757C41.5306 52.7681 42.1058 52.7615 42.6525 52.6381C44.3229 52.2585 45.234 51.093 45.2426 49.3713C45.2549 46.7594 45.2426 44.1513 45.2426 41.5355C45.2426 40.1385 45.5349 39.8442 46.9064 39.8575C47.4122 39.8623 47.919 39.8888 48.4249 39.8756C49.4566 39.8471 49.9378 39.2283 49.5895 38.2678C49.1766 37.1289 48.6802 36.0194 48.1933 34.9089C47.5442 33.4264 46.8855 31.9468 46.2002 30.4814C45.7646 29.5512 45.6991 28.6012 45.757 27.5866C46.0417 22.5649 44.8658 17.9361 41.7622 13.9195C39.5119 11.0068 36.5146 9.06205 33.0808 7.81778C26.289 5.35771 19.633 5.68989 13.2446 9.12659C8.28364 11.8002 5.11555 16.0114 3.40716 21.3396C1.63424 26.8444 2.02812 32.2106 4.41226 37.4677C5.60718 40.1014 7.26716 42.4467 8.80375 44.8707C10.6868 47.8442 11.5163 51.1006 11.1718 54.598C10.8595 57.7766 10.4125 60.9427 10.0072 64.1127C9.89806 64.9261 9.50704 65.2109 8.78667 65.1159C8.10237 65.021 7.75594 64.5171 7.84991 63.7492C8.1726 61.1193 8.47726 58.4874 8.82273 55.8613C9.34569 51.875 8.35578 48.2884 6.14912 44.9751C4.68086 42.7703 3.21639 40.5599 2.16289 38.1121C-0.5895 31.7389 -0.725221 25.322 1.85918 18.8739C3.61407 14.4947 6.42625 10.9194 10.3062 8.23728C13.833 5.79714 17.7766 4.4124 22.0475 3.99385C26.7854 3.52879 31.3307 4.28617 35.6396 6.30871C42.8945 9.71313 46.9158 15.4856 47.8906 23.3849C48.087 24.9794 47.9266 26.6119 47.9855 28.231C48.0077 28.7749 48.1303 29.3101 48.3471 29.8094C49.318 32.0113 50.3402 34.1914 51.3415 36.3791C51.7961 37.3728 52.0733 38.3864 51.8388 39.4969C51.5171 41.0249 50.5025 41.9389 48.9384 42.0395C48.5179 42.0632 48.0937 42.0395 47.622 42.0395Z" fill="#FF2C36"/>
<path d="M11.9074 16.9814C12.2063 15.0367 13.1032 13.4431 14.8372 12.4058C16.5712 11.3684 18.4011 11.3285 20.2671 12.1049C21.4288 10.5863 22.8856 9.75682 24.7914 9.96657C26.6583 10.1716 28.0307 11.134 28.8877 12.8499C30.0267 12.5272 31.1447 12.5719 32.2532 12.8661C34.4248 13.4431 35.8408 14.8212 36.5062 16.9624C36.6182 17.324 36.7188 17.6059 37.1658 17.715C40.2219 18.4591 42.2017 21.3767 41.936 24.7773C41.6512 28.3896 39.2149 31.2862 35.856 32.017C35.054 32.1917 34.2226 32.2372 33.3305 32.3521C33.3305 32.9396 33.3305 33.5214 33.3305 34.1022C33.3381 36.6335 33.3352 39.1638 33.3646 41.695C33.3767 41.9459 33.3339 42.1965 33.2393 42.4292C33.1448 42.662 33.0007 42.8713 32.817 43.0427C31.7341 44.1067 30.6796 45.2 29.5901 46.2554C29.4637 46.3666 29.364 46.5048 29.2983 46.6597C29.2325 46.8146 29.2025 46.9823 29.2104 47.1504C29.2193 52.1908 29.2193 57.2318 29.2104 62.2734C29.214 62.9409 29.1823 63.6081 29.1155 64.2722C29.0462 64.9214 28.6609 65.1796 27.9681 65.1331C27.3521 65.0904 27.0095 64.7534 27.0076 64.1175C26.9971 60.6552 27 57.1891 26.9924 53.7315C26.9645 40.7535 26.9357 27.7761 26.906 14.7994C26.906 13.6605 26.2701 12.7645 25.2052 12.4001C24.684 12.2242 24.1213 12.2129 23.5934 12.3678C23.0656 12.5226 22.5981 12.8361 22.2545 13.2656C22.0875 13.4941 21.9335 13.7317 21.7932 13.9775C21.2845 14.8089 20.6448 14.9816 19.8067 14.4814C18.9212 13.9537 17.9911 13.6918 16.9661 13.9556C15.4921 14.3353 14.3712 15.664 14.1586 17.2775C14.1216 17.5622 14.114 17.847 14.078 18.1241C13.9831 18.8672 13.6148 19.1956 12.8736 19.2118C10.8102 19.2583 9.27931 20.6905 9.09993 22.7453C8.96421 24.298 9.84687 25.6476 11.2449 25.7824C11.7897 25.8336 12.399 25.529 12.9343 25.287C13.8037 24.8931 14.5639 24.8988 15.1523 25.5717C15.4589 25.9238 15.6269 26.4477 15.7161 26.9204C15.8253 27.5107 15.7427 28.1343 15.8186 28.7341C15.9505 29.7781 16.6728 30.5744 17.7216 30.7519C18.3726 30.8629 19.0503 30.8401 19.7147 30.842C20.4967 30.842 20.8773 31.0945 20.9419 31.7019C21.0083 32.3302 20.6467 32.819 19.9529 32.9358C18.4467 33.1854 16.9594 33.1816 15.607 32.3331C14.3731 31.5586 13.6983 30.4396 13.6575 28.9666C13.6461 28.5642 13.6575 28.1608 13.6575 27.8002C12.9419 27.9027 12.2585 28.0555 11.5695 28.0906C9.14833 28.2111 7.20362 26.1782 6.97204 23.9449C6.73667 21.6728 7.3868 19.693 9.21382 18.2133C9.61136 17.9022 10.0463 17.642 10.5084 17.4388C10.9374 17.2367 11.4176 17.1342 11.9074 16.9814ZM29.293 26.2702V43.3816C29.8122 42.9137 30.3626 42.4676 30.8448 41.9579C31.0346 41.7624 31.1295 41.4217 31.1428 41.1426C31.1817 40.1727 31.1656 39.2008 31.1675 38.2289C31.1732 36.2662 31.1675 34.3034 31.1836 32.3397C31.1978 30.7794 31.7711 30.2223 33.3162 30.2166H33.377C35.1907 30.1881 36.7994 29.6471 38.0712 28.3022C39.7065 26.5758 40.314 24.3084 39.2054 21.9898C38.5714 20.661 37.4856 19.9274 35.9984 19.8382C34.9316 19.7746 34.7911 19.6265 34.6469 18.5512C34.2217 15.3726 31.4057 14.3505 29.2683 15.0291V24.2847L30.7062 24.2002C30.7831 23.9592 30.8315 23.8054 30.8818 23.6526C31.2928 22.3894 32.1289 21.5921 33.452 21.3634C34.9639 21.1014 36.1037 21.7013 36.9038 22.9655C37.9213 24.5713 37.3101 26.909 35.67 27.7603C34.198 28.5272 32.277 28.045 31.2814 26.6878C31.1532 26.5122 30.9416 26.3082 30.748 26.2864C30.2753 26.2313 29.7922 26.2702 29.293 26.2702ZM34.0632 23.5586C33.7365 23.5522 33.4199 23.6724 33.1799 23.894C32.9398 24.1157 32.7948 24.4217 32.7752 24.7479C32.7591 25.3534 33.3447 25.9399 33.9844 25.9637C34.6241 25.9874 35.2287 25.4151 35.2638 24.7507C35.297 24.1442 34.7351 23.5919 34.0632 23.5586Z" fill="#FF2C36"/>
<path d="M61.8717 53.4353L59.4335 52.4862C59.4572 52.4596 59.3898 52.4995 59.3851 52.546C59.1563 54.9074 57.7089 56.4914 55.9256 57.805C53.7132 59.4336 51.1696 60.3808 48.5378 61.087C47.6058 61.3375 46.9708 60.8354 47.0989 59.9414C47.5412 56.8473 48.4277 53.9023 50.231 51.2989C51.1558 49.9284 52.4937 48.8887 54.0502 48.331C54.1258 48.3027 54.198 48.2661 54.2656 48.2219C54.2969 48.2029 54.314 48.1621 54.3377 48.127C53.8489 46.8485 53.849 46.8485 53.9837 46.0608C53.5604 46.0447 53.1495 46.0162 52.7385 46.0152C52.0741 46.0152 51.4031 46.0513 50.7359 46.0352C49.7071 46.0105 49.1433 45.1924 49.5372 44.2376C49.7572 43.7154 50.0478 43.2258 50.4009 42.7826C51.4069 41.5155 52.4604 40.2874 53.4873 39.0374C54.183 38.1908 55.1008 37.7619 56.161 37.6413C56.8633 37.5616 57.5742 37.5464 58.2812 37.5236C58.6134 37.5141 58.8128 37.4088 59.0092 37.1127C61.2643 33.7168 64.0394 30.8201 67.4989 28.6438C70.4762 26.7694 73.7193 25.5545 77.2405 25.1625C77.5023 25.1374 77.7657 25.1326 78.0282 25.1483C79.0723 25.1986 79.7138 25.7548 79.6208 26.7997C79.4576 28.6258 79.2782 30.4699 78.8616 32.2504C77.5556 37.8501 74.7092 42.6194 70.6044 46.6227C69.8954 47.3146 69.5243 47.921 69.6553 48.9537C69.94 51.1242 68.971 52.8839 67.5274 54.4167C66.5565 55.4474 65.5656 56.4601 64.5795 57.4766C64.4232 57.6349 64.2554 57.7815 64.0774 57.9151C63.1663 58.6155 62.239 58.2349 62.1223 57.0865C62.016 56.0425 61.9714 54.988 61.9002 53.9383C61.8926 53.7267 61.8774 53.5027 61.8717 53.4353ZM63.4586 44.5992C63.1198 45.0737 62.8274 45.5549 62.462 45.9725C61.7236 46.8153 60.9435 47.624 60.1842 48.4468C59.7391 48.928 59.7343 49.3845 60.1709 49.8705C60.3607 50.0812 60.5506 50.2919 60.7461 50.495C61.1048 50.8632 61.5158 50.9221 61.9457 50.6402C62.3757 50.3583 62.7591 50.0651 63.1663 49.7784C63.8506 49.2963 64.5472 48.8293 65.2201 48.3301C65.7004 47.9742 66.1398 47.5708 66.6144 47.2026C67.1838 46.7688 67.8434 46.43 68.3322 45.9232C69.7644 44.4369 71.3077 43.054 72.4921 41.3324C73.4265 39.9872 74.2516 38.5695 74.9598 37.0927C75.1715 36.6476 75.1496 36.2158 74.7557 35.8247C73.5219 34.6004 72.3185 33.3409 71.0751 32.1232C70.5441 31.607 69.9753 31.1311 69.3734 30.6996C69.2064 30.5788 69.0041 30.5167 68.7981 30.5229C68.5921 30.529 68.3939 30.6032 68.2345 30.7338C67.3708 31.4095 66.4691 32.0521 65.6947 32.8218C64.271 34.2388 62.7117 35.5362 61.5281 37.1876C60.8638 38.1111 60.1045 38.9767 59.535 39.9495C58.5204 41.6579 57.5875 43.4156 56.6697 45.1791C56.4248 45.6536 56.3631 46.2164 56.2407 46.654L58.1284 48.1146C59.0937 47.0621 59.9858 46.0921 60.8732 45.1174C60.9226 45.0633 60.9169 44.9627 60.953 44.8915C61.6952 43.4517 62.5664 43.316 63.4396 44.5024C63.4501 44.5337 63.4567 44.5662 63.4595 44.5992H63.4586ZM49.6492 58.4276C49.8722 58.4048 49.9519 58.3991 50.0288 58.3877C51.2076 58.2273 52.1956 57.5886 53.2263 57.0751C54.8797 56.2513 56.3793 55.1959 57.1461 53.4457C57.4394 52.7747 57.4774 51.9699 57.5258 51.2201C57.559 50.6839 57.1888 50.1884 56.6858 50.1201C55.992 50.0252 55.2062 49.9825 54.5693 50.215C53.1599 50.7342 52.1966 51.8921 51.4914 53.1477C50.8441 54.298 50.4474 55.5936 49.988 56.8426C49.8181 57.32 49.7697 57.8439 49.6492 58.4276ZM77.287 27.2971C75.0025 27.5733 72.9401 28.2699 70.8806 29.3699C71.2877 29.8511 71.5535 30.2355 71.8895 30.5439C72.5377 31.14 73.2429 31.6743 73.8921 32.2704C74.3828 32.7202 74.8022 33.2489 75.2939 33.6988C75.5198 33.9057 75.8425 34.0082 76.1803 34.1894C76.7413 31.8632 77.4246 29.7144 77.287 27.2971ZM67.6109 49.2593L67.442 49.1254C66.9304 49.4975 66.4113 49.8591 65.9082 50.2425C65.278 50.7228 64.6583 51.2163 64.0413 51.7136C63.935 51.7991 63.7879 51.9424 63.7984 52.0458C63.8933 53.0016 64.01 53.9554 64.122 54.9093L64.3536 54.932C66.0326 53.385 67.6403 51.7981 67.6109 49.2593ZM57.3787 39.7683C55.9218 39.8261 55.6143 39.9581 54.743 40.818C54.1973 41.357 53.6041 41.862 53.1295 42.4542C52.8372 42.8196 52.3816 43.185 52.5155 43.7526L54.3017 44.2205C54.8987 44.3761 55.1407 44.192 55.3666 43.5827C55.5564 43.0825 55.8316 42.6146 56.0841 42.1401C56.4912 41.3789 56.9098 40.6291 57.3787 39.7673V39.7683Z" fill="#FF2C36"/>
<path d="M57.8855 23.5965L55.7206 22.7139C55.2546 23.158 54.7952 23.6117 54.3188 24.0426C53.7816 24.5304 53.2254 24.5504 52.7053 24.0426C51.8796 23.2387 51.0729 22.413 50.2946 21.5626C49.7641 20.9817 49.7783 20.5006 50.2946 19.8903C50.6837 19.4281 51.1156 19.001 51.5588 18.5264L50.4294 16.2733C49.896 16.2733 49.3531 16.2856 48.8159 16.2733C47.9551 16.2486 47.5545 15.8528 47.5432 14.9939C47.5292 13.9018 47.5292 12.8087 47.5432 11.7147C47.5536 11.0039 47.8972 10.6328 48.6194 10.5872C49.2022 10.5502 49.7887 10.5796 50.3838 10.5796L51.4506 8.24861L50.3876 7.16759C49.6065 6.37604 49.6122 5.75912 50.3876 4.98465C51.088 4.28327 51.7638 3.561 52.4756 2.86626C53.0783 2.28256 53.4608 2.27117 54.1347 2.77135C54.4108 2.97541 54.6633 3.21078 54.9224 3.43572C55.1815 3.66066 55.433 3.89034 55.6817 4.10863C56.3461 3.8239 56.9886 3.57619 57.6008 3.27248C57.7545 3.19655 57.8959 2.95263 57.9149 2.7723C57.9671 2.27023 57.9358 1.76056 57.9662 1.25374C58.0146 0.439411 58.4312 0.0312973 59.2351 0.0199081C60.2478 0.0037734 61.2605 -0.0019219 62.2722 0.0132637C63.1416 0.025602 63.5877 0.49351 63.6266 1.38282C63.6503 1.90767 63.6722 2.43347 63.695 2.95832C63.704 2.99852 63.7163 3.03789 63.732 3.07601L65.931 4.0887C66.4682 3.64168 66.9864 3.19085 67.5255 2.76661C68.1614 2.26738 68.6056 2.28256 69.1836 2.85582C69.9593 3.62523 70.7186 4.41203 71.4614 5.21624C72.0784 5.88725 72.0584 6.26025 71.4349 6.94645C71.0144 7.40961 70.5807 7.85948 70.1612 8.30461C70.4582 8.9984 70.7183 9.65423 71.0258 10.2863C71.0922 10.4221 71.3229 10.5407 71.488 10.554C71.9502 10.5919 72.4191 10.5473 72.8832 10.5777C73.6776 10.629 74.0525 11.0323 74.0591 11.8115C74.0677 12.8432 74.0705 13.8758 74.0591 14.9085C74.0515 15.8006 73.6472 16.3207 72.7797 16.2268C71.5212 16.091 70.7942 16.5352 70.481 17.7453C70.4174 17.9921 70.2447 18.2094 70.0805 18.5179C70.4506 18.907 70.8161 19.3028 71.1929 19.6872C72.067 20.5803 72.0765 20.8963 71.2023 21.8103C70.5316 22.5126 69.8502 23.2052 69.158 23.8879C68.5638 24.4725 67.9621 24.4982 67.3234 23.9657C66.92 23.6288 66.5366 23.2672 66.1655 22.8951C65.9453 22.6759 65.7564 22.637 65.4717 22.7907C65.0065 23.0363 64.5291 23.2581 64.0414 23.4551C63.7396 23.5794 63.5981 23.7569 63.6124 24.0948C63.631 24.5399 63.626 24.9856 63.5972 25.4302C63.5497 26.1496 63.1046 26.5862 62.3823 26.6014C61.3099 26.6235 60.2371 26.6283 59.1639 26.6156C58.3771 26.608 57.9966 26.2094 57.97 25.4046C57.9519 24.8588 57.9519 24.3121 57.9406 23.7664C57.9284 23.708 57.91 23.651 57.8855 23.5965ZM72.0973 14.5535V12.3146C71.6285 12.3146 71.1872 12.2927 70.7487 12.3193C70.2286 12.3516 69.9135 12.0858 69.6942 11.6644C69.2889 10.8862 68.8638 10.1155 68.504 9.31635C67.9469 8.08252 67.7448 8.3141 68.8666 7.24446C68.9549 7.15999 69.0783 7.08786 69.1172 6.98441C69.2387 6.66456 69.4854 6.27638 69.3943 6.01633C69.2187 5.51141 68.9966 4.92201 68.3142 4.84893C68.1351 4.8272 67.9537 4.86275 67.796 4.95049C67.3738 5.21971 66.9684 5.51449 66.5821 5.83315C66.2366 6.11788 65.9177 6.08751 65.5315 5.92142C64.6346 5.53703 63.7282 5.16214 62.8075 4.85178C62.3017 4.68379 62.0093 4.43038 61.9391 3.90268C61.8527 3.2516 61.7493 2.60336 61.6316 1.84788L59.6119 1.93709C59.6119 2.67454 59.6015 3.2962 59.6119 3.91692C59.6214 4.37154 59.3718 4.62684 58.9941 4.79199C58.045 5.2058 57.0959 5.61707 56.1468 6.02582C55.8127 6.16818 55.4662 6.32858 55.1265 6.06283C54.7326 5.75438 54.3387 5.44212 53.9762 5.10045C53.6136 4.75877 53.2539 4.73979 52.8809 4.98655C52.2687 5.39087 51.9593 5.99355 52.1852 6.38268C52.4363 6.81583 52.7318 7.2217 53.0669 7.59373C53.607 8.18692 53.6193 8.22299 53.2615 8.95759C52.8429 9.81178 52.4291 10.6774 52.0675 11.56C51.8483 12.0953 51.5607 12.3857 50.9419 12.3193C50.4531 12.269 49.9548 12.3098 49.466 12.3098V14.656C50.0725 14.656 50.6154 14.6607 51.1583 14.656C51.6803 14.6493 51.9773 14.9208 52.1292 15.3972C52.1847 15.5653 52.2513 15.7296 52.3285 15.8889C52.6863 16.6482 53.0327 17.4074 53.4162 18.1572C53.6297 18.5729 53.5111 18.8719 53.2368 19.2012C52.9625 19.5306 52.655 19.8865 52.4927 20.2832C52.3921 20.529 52.4766 20.8954 52.5876 21.1659C52.6692 21.3718 52.9227 21.5066 53.0906 21.6812C53.4447 22.0485 53.8082 21.9992 54.1574 21.6917C54.4422 21.4383 54.706 21.1545 54.9879 20.8935C55.3675 20.5376 55.7804 20.5138 56.2493 20.7578C57.1443 21.2323 58.0525 21.6774 58.9599 22.133C59.3908 22.3504 59.6527 22.6645 59.6243 23.177C59.5945 23.5198 59.598 23.8647 59.6347 24.2068C59.6575 24.3634 59.8302 24.613 59.9498 24.6216C60.524 24.6652 61.103 24.6415 61.7531 24.6415C61.7531 24.2932 61.7398 24.054 61.7531 23.8177C61.81 22.9397 62.1223 22.2213 62.9955 21.8559C63.4539 21.6661 63.917 21.481 64.3603 21.2589C65.9956 20.4398 65.9927 20.4351 67.3537 21.6461C67.7505 21.9992 68.1377 22.0011 68.5278 21.6461C68.7062 21.4819 68.877 21.3082 69.0441 21.1317C69.2975 20.8631 69.3421 20.5528 69.139 20.2481C68.899 19.8802 68.6349 19.5286 68.3484 19.1955C68.0229 18.8263 67.9801 18.5131 68.2478 18.0566C68.6408 17.3658 68.9873 16.6495 69.2852 15.9126C69.5632 15.2549 70.0985 14.5013 71.0362 14.6484C71.3428 14.693 71.6721 14.5953 72.1011 14.5535H72.0973Z" fill="#FF2C36"/>
<path d="M17.0278 44.2044C15.3194 43.4679 14.5421 42.0736 14.862 40.4374C15.1391 39.0137 16.3331 37.9593 17.7311 37.89C19.3123 37.8122 20.6686 38.7119 21.0529 40.091C21.5408 41.8563 20.9248 43.1955 19.1377 44.1835C19.1377 45.7163 19.1377 47.2719 19.1443 48.8274C19.147 48.9665 19.1973 49.1005 19.2867 49.2071C20.456 50.4409 21.6319 51.6684 22.8145 52.8896C22.8325 52.9086 22.8876 52.8896 22.9948 52.8896C22.9948 52.6808 22.9948 52.4691 22.9948 52.2565C22.9676 45.2724 22.9344 38.288 22.8951 31.3032C22.8776 30.9519 22.7406 30.6171 22.507 30.3541C21.463 29.2266 20.381 28.1304 19.2876 27.0484C19.088 26.8644 18.9309 26.6391 18.8273 26.3881C18.7237 26.1371 18.6761 25.8666 18.6878 25.5954C18.7068 24.8683 18.6878 24.1404 18.6878 23.3678C17.6438 22.9284 16.8086 22.2289 16.5789 21.1071C16.4346 20.4019 16.4223 19.5951 16.6168 18.9099C17.0591 17.3515 18.4989 16.5106 20.2054 16.632C21.724 16.7402 22.842 17.771 23.1875 19.3712C23.5434 21.0159 22.7452 22.4083 20.8242 23.4115C20.8242 24.0056 20.7948 24.632 20.8403 25.2527C20.8565 25.4634 21.0302 25.6941 21.1849 25.8592C22.2355 26.9545 23.2938 28.0421 24.3682 29.1165C24.874 29.6224 25.08 30.207 25.08 30.9198C25.0705 41.8528 25.0673 52.7855 25.0705 63.7179C25.0705 64.797 24.5409 65.3228 23.6848 65.1083C23.1153 64.966 22.8828 64.6423 22.88 63.9257C22.8724 61.4761 22.8657 59.0265 22.88 56.5769C22.8878 56.4096 22.8587 56.2427 22.7948 56.088C22.7308 55.9333 22.6335 55.7947 22.5098 55.6818C20.8261 53.9877 19.169 52.2651 17.4948 50.5652C17.3298 50.4032 17.2015 50.2077 17.1183 49.992C17.0352 49.7762 16.9991 49.5452 17.0126 49.3143C17.043 47.6154 17.0278 45.9175 17.0278 44.2044ZM21.09 20.0621C21.0949 19.8954 21.0663 19.7294 21.0057 19.574C20.9452 19.4185 20.8539 19.2769 20.7374 19.1575C20.621 19.0381 20.4817 18.9434 20.3278 18.879C20.1739 18.8146 20.0087 18.7819 19.8419 18.7827C19.1908 18.7732 18.5407 19.4034 18.5388 20.045C18.5388 20.7692 19.1082 21.295 19.8865 21.2855C20.6164 21.2769 21.0871 20.7986 21.09 20.0621ZM19.0133 41.0752C19.0086 40.4792 18.5644 40.0131 18.0025 40.0141C17.4672 40.0141 16.9671 40.5323 16.968 41.0847C16.967 41.2267 16.9944 41.3674 17.0488 41.4986C17.1031 41.6298 17.1833 41.7488 17.2844 41.8484C17.3856 41.9481 17.5057 42.0264 17.6377 42.0788C17.7697 42.1312 17.9109 42.1565 18.0528 42.1534C18.6451 42.1562 19.0181 41.7367 19.0133 41.0752Z" fill="#FF2C36"/>
<path d="M64.6436 38.2175C64.6227 36.847 66.1185 35.262 67.4757 35.3265C69.1926 35.4081 70.4302 36.6448 70.5536 38.225C70.6571 39.5538 69.13 41.1568 67.9445 41.247C66.0302 41.3884 64.5477 39.9401 64.6436 38.2175ZM68.6896 38.3276C68.7038 37.7467 68.1799 37.1886 67.601 37.1583C66.9878 37.1307 66.3984 37.7087 66.389 38.3456C66.3814 38.9492 66.9242 39.4522 67.5867 39.4541C68.2036 39.456 68.6725 38.9767 68.6896 38.3276Z" fill="#FF2C36"/>
<path d="M60.6882 19.3502C57.5818 19.7659 54.649 16.3662 54.7307 13.5056C54.8322 9.99393 57.4612 7.55854 60.673 7.46553C64.1979 7.36303 66.8583 10.1287 66.8345 13.6233C66.8165 16.4099 64.3394 19.5314 60.6882 19.3502ZM56.7969 13.4363C56.7523 15.6306 58.4739 17.4074 60.7024 17.4672C62.8768 17.5251 64.757 15.7208 64.7997 13.5331C64.8424 11.3455 63.0495 9.46149 60.8742 9.42827C58.6505 9.3941 56.8415 11.1746 56.7931 13.4363H56.7969Z" fill="#FF2C36"/>
</g>
<defs>
<clipPath id="clip0_71_576">
<rect width="79.6305" height="65.1539" fill="white"/>
</clipPath>
</defs>
</svg>
