<svg width="91" height="80" viewBox="0 0 91 80" fill="none" xmlns="http://www.w3.org/2000/svg">
<g clip-path="url(#clip0_1_1158)">
<path d="M88.6703 64.481L88.1711 64.9802C88.0774 65.0739 88.0247 65.201 88.0247 65.3335C88.0247 65.466 88.0774 65.5931 88.1711 65.6868C88.2648 65.7805 88.3919 65.8332 88.5244 65.8332C88.6569 65.8332 88.784 65.7805 88.8777 65.6868L89.3769 65.1876L89.8762 65.6868C89.9699 65.7805 90.097 65.8332 90.2295 65.8332C90.362 65.8332 90.4891 65.7805 90.5828 65.6868C90.6765 65.5931 90.7292 65.466 90.7292 65.3335C90.7292 65.201 90.6765 65.0739 90.5828 64.9802L90.0836 64.481L90.5828 63.9818C90.6763 63.8879 90.7288 63.7609 90.7288 63.6284C90.7288 63.496 90.6763 63.3689 90.5828 63.2751C90.5364 63.2286 90.4814 63.1918 90.4208 63.1667C90.3601 63.1415 90.2951 63.1285 90.2295 63.1285C90.1639 63.1285 90.0989 63.1415 90.0382 63.1667C89.9776 63.1918 89.9225 63.2286 89.8762 63.2751L89.3769 63.7743L88.8777 63.2751C88.784 63.1814 88.6569 63.1287 88.5244 63.1287C88.3919 63.1287 88.2648 63.1814 88.1711 63.2751C88.0774 63.3688 88.0247 63.4959 88.0247 63.6284C88.0247 63.7609 88.0774 63.8881 88.1711 63.9818L88.6703 64.481Z" fill="white"/>
<path d="M17.3247 75.2385L16.8255 75.7377C16.7318 75.8314 16.6791 75.9585 16.6791 76.091C16.6791 76.2235 16.7318 76.3506 16.8255 76.4443C16.9192 76.538 17.0463 76.5907 17.1788 76.5907C17.3113 76.5907 17.4384 76.538 17.5321 76.4443L18.0314 75.9451L18.5306 76.4443C18.577 76.4907 18.6321 76.5275 18.6927 76.5526C18.7533 76.5777 18.8183 76.5907 18.8839 76.5907C18.9495 76.5907 19.0145 76.5777 19.0751 76.5526C19.1357 76.5275 19.1908 76.4907 19.2372 76.4443C19.2836 76.3979 19.3204 76.3429 19.3455 76.2822C19.3706 76.2216 19.3836 76.1566 19.3836 76.091C19.3836 76.0254 19.3706 75.9604 19.3455 75.8998C19.3204 75.8392 19.2836 75.7841 19.2372 75.7377L18.738 75.2385L19.2372 74.7392C19.3068 74.6691 19.3541 74.58 19.3731 74.4832C19.3922 74.3863 19.3821 74.2859 19.3443 74.1947C19.3064 74.1035 19.2425 74.0256 19.1605 73.9706C19.0784 73.9157 18.9819 73.8862 18.8832 73.886C18.8176 73.8858 18.7527 73.8986 18.6921 73.9238C18.6316 73.949 18.5767 73.986 18.5306 74.0326L18.0314 74.5318L17.5321 74.0326C17.4384 73.9389 17.3113 73.8862 17.1788 73.8862C17.0463 73.8862 16.9192 73.9389 16.8255 74.0326C16.7318 74.1263 16.6791 74.2534 16.6791 74.3859C16.6791 74.5184 16.7318 74.6455 16.8255 74.7392L17.3247 75.2385Z" fill="white"/>
<path d="M4.54827 30.9806L4.04904 31.4799C3.95533 31.5736 3.90268 31.7007 3.90268 31.8332C3.90268 31.9657 3.95533 32.0928 4.04904 32.1865C4.14275 32.2802 4.26987 32.3329 4.40239 32.3329C4.53491 32.3329 4.662 32.2802 4.75571 32.1865L5.25491 31.6873L5.75276 32.1934C5.79841 32.2431 5.85362 32.2831 5.91512 32.311C5.97661 32.3388 6.04312 32.3539 6.1106 32.3553C6.17808 32.3568 6.24515 32.3446 6.3078 32.3195C6.37045 32.2944 6.42738 32.2569 6.47516 32.2092C6.52293 32.1615 6.56055 32.1047 6.58579 32.0421C6.61103 31.9795 6.62336 31.9124 6.62202 31.8449C6.62068 31.7775 6.6057 31.7109 6.578 31.6494C6.55029 31.5878 6.51044 31.5325 6.46081 31.4868L5.96019 30.9876L6.46081 30.4883C6.54816 30.3932 6.59533 30.268 6.59251 30.1389C6.58969 30.0097 6.53706 29.8867 6.44565 29.7955C6.35423 29.7042 6.23112 29.6518 6.10199 29.6493C5.97286 29.6467 5.84773 29.6942 5.75276 29.7817L5.25352 30.2809L4.75432 29.7817C4.70795 29.7352 4.65286 29.6984 4.59223 29.6732C4.5316 29.6481 4.46664 29.6351 4.40101 29.6351C4.33537 29.6351 4.27037 29.6481 4.20974 29.6732C4.14912 29.6984 4.09402 29.7352 4.04765 29.7817C3.95417 29.8755 3.9017 30.0026 3.9017 30.135C3.9017 30.2675 3.95417 30.3945 4.04765 30.4883L4.54827 30.9806Z" fill="white"/>
<path d="M64.6455 5.32L64.1463 5.81923C64.0999 5.86563 64.0631 5.9207 64.038 5.98132C64.0129 6.04195 63.9999 6.10693 63.9999 6.17255C63.9999 6.23817 64.0129 6.30315 64.038 6.36378C64.0631 6.4244 64.0999 6.47947 64.1463 6.52587C64.1927 6.57227 64.2478 6.6091 64.3084 6.63421C64.369 6.65932 64.434 6.67222 64.4996 6.67222C64.5652 6.67222 64.6302 6.65932 64.6908 6.63421C64.7515 6.6091 64.8066 6.57227 64.853 6.52587L65.3522 6.02666L65.8514 6.52587C65.8978 6.57227 65.9529 6.6091 66.0135 6.63421C66.0741 6.65932 66.1391 6.67222 66.2047 6.67222C66.2703 6.67222 66.3353 6.65932 66.3959 6.63421C66.4566 6.6091 66.5116 6.57227 66.558 6.52587C66.6044 6.47947 66.6412 6.4244 66.6663 6.36378C66.6915 6.30315 66.7044 6.23817 66.7044 6.17255C66.7044 6.10693 66.6915 6.04195 66.6663 5.98132C66.6412 5.9207 66.6044 5.86563 66.558 5.81923L66.0588 5.32L66.558 4.8208C66.6044 4.7744 66.6412 4.7193 66.6663 4.65867C66.6915 4.59805 66.7044 4.53307 66.7044 4.46745C66.7044 4.40183 66.6915 4.33688 66.6663 4.27625C66.6412 4.21563 66.6044 4.16053 66.558 4.11413C66.5116 4.06773 66.4566 4.03093 66.3959 4.00582C66.3353 3.98071 66.2703 3.96777 66.2047 3.96777C66.1391 3.96777 66.0741 3.98071 66.0135 4.00582C65.9529 4.03093 65.8978 4.06773 65.8514 4.11413L65.3522 4.61337L64.853 4.11413C64.8066 4.06773 64.7515 4.03093 64.6908 4.00582C64.6302 3.98071 64.5652 3.96777 64.4996 3.96777C64.434 3.96777 64.369 3.98071 64.3084 4.00582C64.2478 4.03093 64.1927 4.06773 64.1463 4.11413C64.0999 4.16053 64.0631 4.21563 64.038 4.27625C64.0129 4.33688 63.9999 4.40183 63.9999 4.46745C63.9999 4.53307 64.0129 4.59805 64.038 4.65867C64.0631 4.7193 64.0999 4.7744 64.1463 4.8208L64.6455 5.32Z" fill="white"/>
<path d="M55.5033 75.934C55.7922 75.9337 56.0747 76.0191 56.315 76.1794C56.5553 76.3397 56.7427 76.5677 56.8534 76.8345C56.9642 77.1013 56.9933 77.395 56.9371 77.6783C56.8809 77.9617 56.7419 78.222 56.5377 78.4264C56.3336 78.6308 56.0734 78.77 55.7901 78.8264C55.5067 78.8829 55.2131 78.8541 54.9462 78.7436C54.6792 78.6331 54.4511 78.4459 54.2906 78.2057C54.13 77.9655 54.0443 77.6832 54.0443 77.3943C54.0451 77.0075 54.199 76.6366 54.4724 76.363C54.7458 76.0893 55.1165 75.9351 55.5033 75.934ZM55.5033 77.8548C55.5944 77.8548 55.6834 77.8278 55.7591 77.7772C55.8349 77.7266 55.8939 77.6546 55.9287 77.5705C55.9636 77.4863 55.9727 77.3938 55.955 77.3045C55.9372 77.2151 55.8933 77.1331 55.8289 77.0687C55.7645 77.0043 55.6825 76.9604 55.5931 76.9426C55.5038 76.9249 55.4112 76.934 55.3271 76.9688C55.2429 77.0037 55.171 77.0627 55.1204 77.1384C55.0698 77.2142 55.0428 77.3032 55.0428 77.3943C55.0428 77.5164 55.0913 77.6335 55.1777 77.7199C55.264 77.8062 55.3812 77.8548 55.5033 77.8548Z" fill="white"/>
<path d="M83.0157 29.4194C83.3047 29.4192 83.5872 29.5046 83.8275 29.665C84.0679 29.8253 84.2553 30.0534 84.366 30.3203C84.4767 30.5872 84.5057 30.8809 84.4494 31.1643C84.3931 31.4477 84.254 31.7081 84.0497 31.9124C83.8454 32.1167 83.585 32.2558 83.3016 32.3121C83.0182 32.3684 82.7245 32.3393 82.4576 32.2286C82.1907 32.1179 81.9627 31.9306 81.8023 31.6902C81.642 31.4499 81.5565 31.1673 81.5568 30.8784C81.5575 30.4917 81.7115 30.121 81.9849 29.8476C82.2583 29.5741 82.629 29.4202 83.0157 29.4194ZM83.0157 31.3389C83.1068 31.3389 83.1958 31.3119 83.2716 31.2613C83.3473 31.2107 83.4063 31.1388 83.4412 31.0546C83.476 30.9705 83.4851 30.8779 83.4674 30.7885C83.4496 30.6992 83.4057 30.6172 83.3413 30.5527C83.2769 30.4883 83.1949 30.4445 83.1055 30.4267C83.0162 30.4089 82.9236 30.4181 82.8395 30.4529C82.7553 30.4878 82.6834 30.5468 82.6328 30.6225C82.5822 30.6983 82.5552 30.7873 82.5552 30.8784C82.5552 31.0005 82.6037 31.1177 82.6901 31.204C82.7764 31.2904 82.8936 31.3389 83.0157 31.3389Z" fill="white"/>
<path d="M21.9062 5.99072C22.195 5.99072 22.4773 6.07635 22.7175 6.23681C22.9576 6.39727 23.1448 6.62536 23.2553 6.89219C23.3659 7.15903 23.3948 7.45266 23.3384 7.73593C23.2821 8.01921 23.143 8.27943 22.9388 8.48366C22.7346 8.68788 22.4743 8.82695 22.1911 8.88329C21.9078 8.93964 21.6142 8.91073 21.3473 8.80021C21.0805 8.68968 20.8524 8.5025 20.692 8.26235C20.5315 8.0222 20.4459 7.73988 20.4459 7.45105C20.4462 7.06386 20.6002 6.69264 20.874 6.41886C21.1478 6.14507 21.519 5.99109 21.9062 5.99072ZM21.9062 7.91014C21.9973 7.91014 22.0864 7.88312 22.1622 7.83246C22.2379 7.7818 22.2969 7.70979 22.3318 7.62557C22.3666 7.54134 22.3756 7.44869 22.3577 7.35932C22.3398 7.26996 22.2959 7.18791 22.2313 7.12356C22.1668 7.05922 22.0846 7.01545 21.9952 6.99784C21.9058 6.98022 21.8131 6.98954 21.729 7.02461C21.6449 7.05967 21.5731 7.11892 21.5226 7.19483C21.4722 7.27075 21.4454 7.35992 21.4457 7.45105C21.4457 7.51146 21.4576 7.57126 21.4808 7.62705C21.5039 7.68285 21.5379 7.73353 21.5807 7.77618C21.6234 7.81883 21.6742 7.85262 21.7301 7.87561C21.7859 7.8986 21.8458 7.91033 21.9062 7.91014Z" fill="white"/>
<path d="M4.89954 51.5691C5.18836 51.5691 5.47068 51.6547 5.71083 51.8152C5.95098 51.9756 6.13816 52.2037 6.24869 52.4706C6.35922 52.7374 6.38813 53.031 6.33178 53.3143C6.27543 53.5976 6.13637 53.8578 5.93214 54.062C5.72791 54.2662 5.46769 54.4053 5.18442 54.4617C4.90115 54.518 4.60752 54.4891 4.34068 54.3786C4.07384 54.268 3.84576 54.0809 3.6853 53.8407C3.52484 53.6006 3.43921 53.3182 3.43921 53.0294C3.43994 52.6423 3.59404 52.2713 3.86775 51.9976C4.14145 51.7239 4.51246 51.5698 4.89954 51.5691ZM4.89954 53.4899C4.99062 53.4899 5.07962 53.4629 5.15535 53.4123C5.23108 53.3617 5.29012 53.2898 5.32497 53.2056C5.35982 53.1215 5.36894 53.0289 5.35117 52.9395C5.3334 52.8502 5.28954 52.7682 5.22514 52.7038C5.16074 52.6394 5.07871 52.5955 4.98938 52.5778C4.90005 52.56 4.80745 52.5691 4.7233 52.604C4.63916 52.6388 4.56725 52.6978 4.51665 52.7736C4.46605 52.8493 4.43903 52.9383 4.43903 53.0294C4.43939 53.1514 4.48803 53.2683 4.57431 53.3546C4.66059 53.4409 4.77752 53.4895 4.89954 53.4899Z" fill="white"/>
<path d="M2.11302 33.7231C3.29323 34.9042 4.84665 35.6392 6.50829 35.8029C8.16993 35.9665 9.83688 35.5487 11.2248 34.6206L6.08742 39.758C4.82082 41.0247 4.07066 42.7172 3.98285 44.5064C3.89503 46.2955 4.47586 48.0534 5.61232 49.4381C6.74878 50.8227 8.35963 51.7352 10.1316 51.9979C11.9035 52.2607 13.7099 51.855 15.1992 50.8597L12.504 53.5563C11.2374 54.8231 10.4872 56.5156 10.3994 58.3048C10.3116 60.0939 10.8924 61.8518 12.0289 63.2364C13.1653 64.6211 14.7762 65.5336 16.5482 65.7963C18.3201 66.0591 20.1264 65.6534 21.6158 64.6581L20.9562 65.3164C19.6028 66.6697 18.8425 68.5052 18.8425 70.4192C18.8425 72.3331 19.6028 74.1687 20.9562 75.522C22.3095 76.8754 24.1451 77.6357 26.059 77.6357C27.9729 77.6357 29.8085 76.8754 31.1618 75.522L38.0002 68.6837C37.0049 70.1731 36.5992 71.9794 36.8619 73.7513C37.1247 75.5233 38.0372 77.1341 39.4218 78.2706C40.8065 79.4071 42.5643 79.9879 44.3535 79.9001C46.1427 79.8122 47.8352 79.0621 49.1019 77.7955L59.4915 67.4059C58.4947 68.8954 58.0878 70.7025 58.3502 72.4755C58.6125 74.2484 59.5253 75.8603 60.9107 76.9973C62.2962 78.1343 64.0552 78.7149 65.8453 78.6263C67.6353 78.5376 69.3283 77.786 70.5947 76.5177L86.7744 60.338C88.0409 59.0713 88.7911 57.3787 88.8789 55.5896C88.9667 53.8004 88.3859 52.0426 87.2495 50.6579C86.113 49.2732 84.5022 48.3608 82.7302 48.098C80.9583 47.8353 79.1519 48.241 77.6626 49.2362L81.0492 45.8496C82.3158 44.5828 83.066 42.8903 83.1538 41.1011C83.2416 39.312 82.6608 37.5541 81.5244 36.1695C80.3879 34.7848 78.777 33.8723 77.0051 33.6096C75.2331 33.3468 73.4268 33.7525 71.9375 34.7478L78.7758 27.9094C80.0424 26.6427 80.7925 24.9502 80.8804 23.161C80.9682 21.3719 80.3873 19.614 79.2509 18.2293C78.1144 16.8447 76.5036 15.9322 74.7316 15.6695C72.9597 15.4067 71.1534 15.8124 69.664 16.8077L74.0187 12.453C75.372 11.0996 76.1323 9.2641 76.1323 7.35017C76.1323 5.43624 75.372 3.60067 74.0187 2.24732C72.6653 0.893966 70.8298 0.133667 68.9158 0.133667C67.0019 0.133667 65.1664 0.893966 63.813 2.24732L54.1135 11.9469C55.1087 10.4575 55.5145 8.65113 55.2517 6.87919C54.9889 5.10725 54.0765 3.49641 52.6918 2.35995C51.3072 1.22349 49.5493 0.642658 47.7601 0.730473C45.971 0.818288 44.2784 1.56845 43.0117 2.83504L29.3959 16.4509C30.3911 14.9615 30.7969 13.1552 30.5341 11.3832C30.2713 9.61131 29.3589 8.00043 27.9742 6.86397C26.5895 5.72751 24.8317 5.14671 23.0425 5.23452C21.2534 5.32234 19.5608 6.0725 18.2941 7.3391L2.1144 23.5188C0.761321 24.872 0.00119019 26.7073 0.00119019 28.6209C0.00119019 30.5346 0.761321 32.3699 2.1144 33.7231H2.11302Z" fill="url(#paint0_radial_1_1158)"/>
<path d="M88.6703 64.481L88.1711 64.9802C88.0774 65.0739 88.0247 65.201 88.0247 65.3335C88.0247 65.466 88.0774 65.5931 88.1711 65.6868C88.2648 65.7805 88.3919 65.8332 88.5244 65.8332C88.6569 65.8332 88.784 65.7805 88.8777 65.6868L89.3769 65.1876L89.8762 65.6868C89.9699 65.7805 90.097 65.8332 90.2295 65.8332C90.362 65.8332 90.4891 65.7805 90.5828 65.6868C90.6765 65.5931 90.7292 65.466 90.7292 65.3335C90.7292 65.201 90.6765 65.0739 90.5828 64.9802L90.0836 64.481L90.5828 63.9818C90.6763 63.8879 90.7288 63.7609 90.7288 63.6284C90.7288 63.496 90.6763 63.3689 90.5828 63.2751C90.5364 63.2286 90.4814 63.1918 90.4208 63.1667C90.3601 63.1415 90.2951 63.1285 90.2295 63.1285C90.1639 63.1285 90.0989 63.1415 90.0382 63.1667C89.9776 63.1918 89.9225 63.2286 89.8762 63.2751L89.3769 63.7743L88.8777 63.2751C88.784 63.1814 88.6569 63.1287 88.5244 63.1287C88.3919 63.1287 88.2648 63.1814 88.1711 63.2751C88.0774 63.3688 88.0247 63.4959 88.0247 63.6284C88.0247 63.7609 88.0774 63.8881 88.1711 63.9818L88.6703 64.481Z" fill="#FF6050"/>
<path d="M17.3247 75.2385L16.8255 75.7377C16.7318 75.8314 16.6791 75.9585 16.6791 76.091C16.6791 76.2235 16.7318 76.3506 16.8255 76.4443C16.9192 76.538 17.0463 76.5907 17.1788 76.5907C17.3113 76.5907 17.4384 76.538 17.5321 76.4443L18.0314 75.9451L18.5306 76.4443C18.577 76.4907 18.6321 76.5275 18.6927 76.5526C18.7533 76.5777 18.8183 76.5907 18.8839 76.5907C18.9495 76.5907 19.0145 76.5777 19.0751 76.5526C19.1357 76.5275 19.1908 76.4907 19.2372 76.4443C19.2836 76.3979 19.3204 76.3429 19.3455 76.2822C19.3706 76.2216 19.3836 76.1566 19.3836 76.091C19.3836 76.0254 19.3706 75.9604 19.3455 75.8998C19.3204 75.8392 19.2836 75.7841 19.2372 75.7377L18.738 75.2385L19.2372 74.7392C19.3068 74.6691 19.3541 74.58 19.3731 74.4832C19.3922 74.3863 19.3821 74.2859 19.3443 74.1947C19.3064 74.1035 19.2425 74.0256 19.1605 73.9706C19.0784 73.9157 18.9819 73.8862 18.8832 73.886C18.8176 73.8858 18.7527 73.8986 18.6921 73.9238C18.6316 73.949 18.5767 73.986 18.5306 74.0326L18.0314 74.5318L17.5321 74.0326C17.4384 73.9389 17.3113 73.8862 17.1788 73.8862C17.0463 73.8862 16.9192 73.9389 16.8255 74.0326C16.7318 74.1263 16.6791 74.2534 16.6791 74.3859C16.6791 74.5184 16.7318 74.6455 16.8255 74.7392L17.3247 75.2385Z" fill="#FF6050"/>
<path d="M4.54827 30.9806L4.04904 31.4799C3.95533 31.5736 3.90268 31.7007 3.90268 31.8332C3.90268 31.9657 3.95533 32.0928 4.04904 32.1865C4.14275 32.2802 4.26987 32.3329 4.40239 32.3329C4.53491 32.3329 4.662 32.2802 4.75571 32.1865L5.25491 31.6873L5.75276 32.1934C5.79841 32.2431 5.85362 32.2831 5.91512 32.311C5.97661 32.3388 6.04312 32.3539 6.1106 32.3553C6.17808 32.3568 6.24515 32.3446 6.3078 32.3195C6.37045 32.2944 6.42738 32.2569 6.47516 32.2092C6.52293 32.1615 6.56055 32.1047 6.58579 32.0421C6.61103 31.9795 6.62336 31.9124 6.62202 31.8449C6.62068 31.7775 6.6057 31.7109 6.578 31.6494C6.55029 31.5878 6.51044 31.5325 6.46081 31.4868L5.96019 30.9876L6.46081 30.4883C6.54816 30.3932 6.59533 30.268 6.59251 30.1389C6.58969 30.0097 6.53706 29.8867 6.44565 29.7955C6.35423 29.7042 6.23112 29.6518 6.10199 29.6493C5.97286 29.6467 5.84773 29.6942 5.75276 29.7817L5.25352 30.2809L4.75432 29.7817C4.70795 29.7352 4.65286 29.6984 4.59223 29.6732C4.5316 29.6481 4.46664 29.6351 4.40101 29.6351C4.33537 29.6351 4.27037 29.6481 4.20974 29.6732C4.14912 29.6984 4.09402 29.7352 4.04765 29.7817C3.95417 29.8755 3.9017 30.0026 3.9017 30.135C3.9017 30.2675 3.95417 30.3945 4.04765 30.4883L4.54827 30.9806Z" fill="#FF6050"/>
<path d="M64.6455 5.32L64.1463 5.81923C64.0999 5.86563 64.0631 5.9207 64.038 5.98132C64.0129 6.04195 63.9999 6.10693 63.9999 6.17255C63.9999 6.23817 64.0129 6.30315 64.038 6.36378C64.0631 6.4244 64.0999 6.47947 64.1463 6.52587C64.1927 6.57227 64.2478 6.6091 64.3084 6.63421C64.369 6.65932 64.434 6.67222 64.4996 6.67222C64.5652 6.67222 64.6302 6.65932 64.6908 6.63421C64.7515 6.6091 64.8066 6.57227 64.853 6.52587L65.3522 6.02666L65.8514 6.52587C65.8978 6.57227 65.9529 6.6091 66.0135 6.63421C66.0741 6.65932 66.1391 6.67222 66.2047 6.67222C66.2703 6.67222 66.3353 6.65932 66.3959 6.63421C66.4566 6.6091 66.5116 6.57227 66.558 6.52587C66.6044 6.47947 66.6412 6.4244 66.6663 6.36378C66.6915 6.30315 66.7044 6.23817 66.7044 6.17255C66.7044 6.10693 66.6915 6.04195 66.6663 5.98132C66.6412 5.9207 66.6044 5.86563 66.558 5.81923L66.0588 5.32L66.558 4.8208C66.6044 4.7744 66.6412 4.7193 66.6663 4.65867C66.6915 4.59805 66.7044 4.53307 66.7044 4.46745C66.7044 4.40183 66.6915 4.33688 66.6663 4.27625C66.6412 4.21563 66.6044 4.16053 66.558 4.11413C66.5116 4.06773 66.4566 4.03093 66.3959 4.00582C66.3353 3.98071 66.2703 3.96777 66.2047 3.96777C66.1391 3.96777 66.0741 3.98071 66.0135 4.00582C65.9529 4.03093 65.8978 4.06773 65.8514 4.11413L65.3522 4.61337L64.853 4.11413C64.8066 4.06773 64.7515 4.03093 64.6908 4.00582C64.6302 3.98071 64.5652 3.96777 64.4996 3.96777C64.434 3.96777 64.369 3.98071 64.3084 4.00582C64.2478 4.03093 64.1927 4.06773 64.1463 4.11413C64.0999 4.16053 64.0631 4.21563 64.038 4.27625C64.0129 4.33688 63.9999 4.40183 63.9999 4.46745C63.9999 4.53307 64.0129 4.59805 64.038 4.65867C64.0631 4.7193 64.0999 4.7744 64.1463 4.8208L64.6455 5.32Z" fill="#FF6050"/>
<path d="M55.5033 75.934C55.7922 75.9337 56.0747 76.0191 56.315 76.1794C56.5553 76.3397 56.7427 76.5677 56.8534 76.8345C56.9642 77.1013 56.9933 77.395 56.9371 77.6783C56.8809 77.9617 56.7419 78.222 56.5377 78.4264C56.3336 78.6308 56.0734 78.77 55.7901 78.8264C55.5067 78.8829 55.2131 78.8541 54.9462 78.7436C54.6792 78.6331 54.4511 78.4459 54.2906 78.2057C54.13 77.9655 54.0443 77.6832 54.0443 77.3943C54.0451 77.0075 54.199 76.6366 54.4724 76.363C54.7458 76.0893 55.1165 75.9351 55.5033 75.934ZM55.5033 77.8548C55.5944 77.8548 55.6834 77.8278 55.7591 77.7772C55.8349 77.7266 55.8939 77.6546 55.9287 77.5705C55.9636 77.4863 55.9727 77.3938 55.955 77.3045C55.9372 77.2151 55.8933 77.1331 55.8289 77.0687C55.7645 77.0043 55.6825 76.9604 55.5931 76.9426C55.5038 76.9249 55.4112 76.934 55.3271 76.9688C55.2429 77.0037 55.171 77.0627 55.1204 77.1384C55.0698 77.2142 55.0428 77.3032 55.0428 77.3943C55.0428 77.5164 55.0913 77.6335 55.1777 77.7199C55.264 77.8062 55.3812 77.8548 55.5033 77.8548Z" fill="#FF6050"/>
<path d="M83.0157 29.4194C83.3047 29.4192 83.5872 29.5046 83.8275 29.665C84.0679 29.8253 84.2553 30.0534 84.366 30.3203C84.4767 30.5872 84.5057 30.8809 84.4494 31.1643C84.3931 31.4477 84.254 31.7081 84.0497 31.9124C83.8454 32.1167 83.585 32.2558 83.3016 32.3121C83.0182 32.3684 82.7245 32.3393 82.4576 32.2286C82.1907 32.1179 81.9627 31.9306 81.8023 31.6902C81.642 31.4499 81.5565 31.1673 81.5568 30.8784C81.5575 30.4917 81.7115 30.121 81.9849 29.8476C82.2583 29.5741 82.629 29.4202 83.0157 29.4194ZM83.0157 31.3389C83.1068 31.3389 83.1958 31.3119 83.2716 31.2613C83.3473 31.2107 83.4063 31.1388 83.4412 31.0546C83.476 30.9705 83.4851 30.8779 83.4674 30.7885C83.4496 30.6992 83.4057 30.6172 83.3413 30.5527C83.2769 30.4883 83.1949 30.4445 83.1055 30.4267C83.0162 30.4089 82.9236 30.4181 82.8395 30.4529C82.7553 30.4878 82.6834 30.5468 82.6328 30.6225C82.5822 30.6983 82.5552 30.7873 82.5552 30.8784C82.5552 31.0005 82.6037 31.1177 82.6901 31.204C82.7764 31.2904 82.8936 31.3389 83.0157 31.3389Z" fill="#FF6050"/>
<path d="M21.9062 5.99072C22.195 5.99072 22.4773 6.07635 22.7175 6.23681C22.9576 6.39727 23.1448 6.62536 23.2553 6.89219C23.3659 7.15903 23.3948 7.45266 23.3384 7.73593C23.2821 8.01921 23.143 8.27943 22.9388 8.48366C22.7346 8.68788 22.4743 8.82695 22.1911 8.88329C21.9078 8.93964 21.6142 8.91073 21.3473 8.80021C21.0805 8.68968 20.8524 8.5025 20.692 8.26235C20.5315 8.0222 20.4459 7.73988 20.4459 7.45105C20.4462 7.06386 20.6002 6.69264 20.874 6.41886C21.1478 6.14507 21.519 5.99109 21.9062 5.99072ZM21.9062 7.91014C21.9973 7.91014 22.0864 7.88312 22.1622 7.83246C22.2379 7.7818 22.2969 7.70979 22.3318 7.62557C22.3666 7.54134 22.3756 7.44869 22.3577 7.35932C22.3398 7.26996 22.2959 7.18791 22.2313 7.12356C22.1668 7.05922 22.0846 7.01545 21.9952 6.99784C21.9058 6.98022 21.8131 6.98954 21.729 7.02461C21.6449 7.05967 21.5731 7.11892 21.5226 7.19483C21.4722 7.27075 21.4454 7.35992 21.4457 7.45105C21.4457 7.51146 21.4576 7.57126 21.4808 7.62705C21.5039 7.68285 21.5379 7.73353 21.5807 7.77618C21.6234 7.81883 21.6742 7.85262 21.7301 7.87561C21.7859 7.8986 21.8458 7.91033 21.9062 7.91014Z" fill="#FF6050"/>
<path d="M4.89954 51.5691C5.18836 51.5691 5.47068 51.6547 5.71083 51.8152C5.95098 51.9756 6.13816 52.2037 6.24869 52.4706C6.35922 52.7374 6.38813 53.031 6.33178 53.3143C6.27543 53.5976 6.13637 53.8578 5.93214 54.062C5.72791 54.2662 5.46769 54.4053 5.18442 54.4617C4.90115 54.518 4.60752 54.4891 4.34068 54.3786C4.07384 54.268 3.84576 54.0809 3.6853 53.8407C3.52484 53.6006 3.43921 53.3182 3.43921 53.0294C3.43994 52.6423 3.59404 52.2713 3.86775 51.9976C4.14145 51.7239 4.51246 51.5698 4.89954 51.5691ZM4.89954 53.4899C4.99062 53.4899 5.07962 53.4629 5.15535 53.4123C5.23108 53.3617 5.29012 53.2898 5.32497 53.2056C5.35982 53.1215 5.36894 53.0289 5.35117 52.9395C5.3334 52.8502 5.28954 52.7682 5.22514 52.7038C5.16074 52.6394 5.07871 52.5955 4.98938 52.5778C4.90005 52.56 4.80745 52.5691 4.7233 52.604C4.63916 52.6388 4.56725 52.6978 4.51665 52.7736C4.46605 52.8493 4.43903 52.9383 4.43903 53.0294C4.43939 53.1514 4.48803 53.2683 4.57431 53.3546C4.66059 53.4409 4.77752 53.4895 4.89954 53.4899Z" fill="#FF6050"/>
<path d="M55.4646 15.9986V24.3969L54.964 24.1825L53.3239 23.4814L52.8233 23.2684V15.9972C52.8175 15.8205 52.8474 15.6444 52.9111 15.4794C52.9748 15.3144 53.071 15.1639 53.194 15.0369C53.317 14.9098 53.4643 14.8088 53.6271 14.7398C53.79 14.6708 53.965 14.6353 54.1419 14.6353C54.3187 14.6353 54.4937 14.6708 54.6566 14.7398C54.8194 14.8088 54.9667 14.9098 55.0897 15.0369C55.2127 15.1639 55.3089 15.3144 55.3726 15.4794C55.4363 15.6444 55.4661 15.8205 55.4604 15.9972L55.4646 15.9986Z" fill="white"/>
<path d="M28.3477 12.5815V20.1873H25.7091V12.5815C25.7091 12.2316 25.8481 11.896 26.0955 11.6486C26.343 11.4012 26.6785 11.2622 27.0284 11.2622C27.3783 11.2622 27.7138 11.4012 27.9612 11.6486C28.2087 11.896 28.3477 12.2316 28.3477 12.5815Z" fill="white"/>
<path d="M55.9666 24.0663L55.4646 23.8519L54.964 23.6376L53.328 22.9392L52.8274 22.7249L52.3268 22.5119L46.9737 20.226L46.7704 20.1389V32.6512H54.2061V43.6893H61.5216V26.4393L55.9666 24.0663ZM61.021 43.1888H54.7068V32.1506H47.2696V20.8967L52.3254 23.0554L52.826 23.2697L53.3239 23.4813L54.9598 24.1811L55.4604 24.3954L55.9624 24.6084L61.0168 26.7684L61.021 43.1888Z" fill="#FF6050"/>
<path d="M61.0224 26.7698V43.1901H54.7081V32.1506H47.271V20.8967L52.3268 23.0554L52.8274 23.2698L53.328 23.4841L54.9653 24.1825L55.4659 24.3968L55.9665 24.6098L61.0224 26.7698Z" fill="#FF6050"/>
<path d="M19.9232 19.6868V62.5464H26.6025V49.1808H34.6757V19.6868H19.9232ZM34.1751 48.6802H26.1019V62.0458H20.4238V20.1874H34.1751V48.6802Z" fill="white"/>
<path d="M34.1751 20.1874V48.6802H26.1019V62.0458H20.4251V20.1874H34.1751Z" fill="#FBC4C4"/>
<path d="M54.0858 32.7729H39.3333V62.5464H54.0858V32.7729Z" fill="#B3B3B3"/>
<path d="M39.2129 49.3025H26.7242V62.5463H39.2129V49.3025Z" fill="#FF6050"/>
<path d="M59.1292 27.9799H50.5747V29.4526H59.1292V27.9799Z" fill="#DDDDDD"/>
<path d="M59.1278 38.4124H57.1268V39.8851H59.1278V38.4124Z" fill="#DDDDDD"/>
<path d="M59.1278 34.9358H57.1268V36.4086H59.1278V34.9358Z" fill="#DDDDDD"/>
<path d="M59.1278 31.4578H57.1268V32.9305H59.1278V31.4578Z" fill="#DDDDDD"/>
<path d="M44.2051 58.9357H42.0741V60.4084H44.2051V58.9357Z" fill="#DDDDDD"/>
<path d="M44.2051 55.6361H42.0741V57.1089H44.2051V55.6361Z" fill="#DDDDDD"/>
<path d="M44.2051 52.3365H42.0741V53.8093H44.2051V52.3365Z" fill="#DDDDDD"/>
<path d="M44.2051 49.037H42.0741V50.5098H44.2051V49.037Z" fill="#DDDDDD"/>
<path d="M44.2051 45.7374H42.0741V47.2102H44.2051V45.7374Z" fill="#DDDDDD"/>
<path d="M44.2051 42.4379H42.0741V43.9106H44.2051V42.4379Z" fill="#DDDDDD"/>
<path d="M44.2051 39.1383H42.0741V40.6111H44.2051V39.1383Z" fill="#DDDDDD"/>
<path d="M44.2051 35.8387H42.0741V37.3115H44.2051V35.8387Z" fill="#DDDDDD"/>
<path d="M48.3081 58.9357H46.1771V60.4084H48.3081V58.9357Z" fill="#DDDDDD"/>
<path d="M48.3081 55.6361H46.1771V57.1089H48.3081V55.6361Z" fill="#DDDDDD"/>
<path d="M48.3081 52.3365H46.1771V53.8093H48.3081V52.3365Z" fill="#DDDDDD"/>
<path d="M48.3081 49.037H46.1771V50.5098H48.3081V49.037Z" fill="#DDDDDD"/>
<path d="M48.3081 45.7374H46.1771V47.2102H48.3081V45.7374Z" fill="#DDDDDD"/>
<path d="M48.3081 42.4379H46.1771V43.9106H48.3081V42.4379Z" fill="#DDDDDD"/>
<path d="M48.3081 39.1383H46.1771V40.6111H48.3081V39.1383Z" fill="#DDDDDD"/>
<path d="M48.3081 35.8387H46.1771V37.3115H48.3081V35.8387Z" fill="#DDDDDD"/>
<path d="M52.4112 58.9357H50.2802V60.4084H52.4112V58.9357Z" fill="#DDDDDD"/>
<path d="M52.4112 55.6361H50.2802V57.1089H52.4112V55.6361Z" fill="#DDDDDD"/>
<path d="M52.4112 52.3365H50.2802V53.8093H52.4112V52.3365Z" fill="#DDDDDD"/>
<path d="M52.4112 49.037H50.2802V50.5098H52.4112V49.037Z" fill="#DDDDDD"/>
<path d="M52.4112 45.7374H50.2802V47.2102H52.4112V45.7374Z" fill="#DDDDDD"/>
<path d="M52.4112 42.4379H50.2802V43.9106H52.4112V42.4379Z" fill="#DDDDDD"/>
<path d="M52.4112 39.1383H50.2802V40.6111H52.4112V39.1383Z" fill="#DDDDDD"/>
<path d="M52.4112 35.8387H50.2802V37.3115H52.4112V35.8387Z" fill="#DDDDDD"/>
<path d="M31.0415 59.103H29.5687V60.5758H31.0415V59.103Z" fill="#DDDDDD"/>
<path d="M31.0415 55.719H29.5687V57.1918H31.0415V55.719Z" fill="#DDDDDD"/>
<path d="M31.0415 52.3365H29.5687V53.8093H31.0415V52.3365Z" fill="#DDDDDD"/>
<path d="M34.236 59.103H32.7632V60.5758H34.236V59.103Z" fill="#DDDDDD"/>
<path d="M34.236 55.719H32.7632V57.1918H34.236V55.719Z" fill="#DDDDDD"/>
<path d="M34.236 52.3365H32.7632V53.8093H34.236V52.3365Z" fill="#DDDDDD"/>
<path d="M37.4318 59.103H35.959V60.5758H37.4318V59.103Z" fill="#DDDDDD"/>
<path d="M37.4318 55.719H35.959V57.1918H37.4318V55.719Z" fill="#DDDDDD"/>
<path d="M37.4318 52.3365H35.959V53.8093H37.4318V52.3365Z" fill="#DDDDDD"/>
<path d="M68.9601 43.811H54.2075V62.5449H68.9601V43.811Z" fill="white"/>
<path d="M58.5968 27.4474H50.0423V28.9202H58.5968V27.4474Z" fill="white"/>
<path d="M58.5954 37.8799H56.5944V39.3526H58.5954V37.8799Z" fill="white"/>
<path d="M58.5954 34.4033H56.5944V35.8761H58.5954V34.4033Z" fill="white"/>
<path d="M58.5954 30.9254H56.5944V32.3982H58.5954V30.9254Z" fill="white"/>
<path d="M43.6727 58.4032H41.5417V59.876H43.6727V58.4032Z" fill="white"/>
<path d="M43.6727 55.1036H41.5417V56.5764H43.6727V55.1036Z" fill="white"/>
<path d="M43.6727 51.8041H41.5417V53.2768H43.6727V51.8041Z" fill="white"/>
<path d="M43.6727 48.5045H41.5417V49.9773H43.6727V48.5045Z" fill="white"/>
<path d="M43.6727 45.2051H41.5417V46.6778H43.6727V45.2051Z" fill="white"/>
<path d="M43.6727 41.9055H41.5417V43.3783H43.6727V41.9055Z" fill="white"/>
<path d="M43.6727 38.606H41.5417V40.0787H43.6727V38.606Z" fill="white"/>
<path d="M43.6727 35.3064H41.5417V36.7792H43.6727V35.3064Z" fill="white"/>
<path d="M47.7757 58.4032H45.6447V59.876H47.7757V58.4032Z" fill="white"/>
<path d="M47.7757 55.1036H45.6447V56.5764H47.7757V55.1036Z" fill="white"/>
<path d="M47.7757 51.8041H45.6447V53.2768H47.7757V51.8041Z" fill="white"/>
<path d="M47.7757 48.5045H45.6447V49.9773H47.7757V48.5045Z" fill="white"/>
<path d="M47.7757 45.2051H45.6447V46.6778H47.7757V45.2051Z" fill="white"/>
<path d="M47.7757 41.9055H45.6447V43.3783H47.7757V41.9055Z" fill="white"/>
<path d="M47.7757 38.606H45.6447V40.0787H47.7757V38.606Z" fill="white"/>
<path d="M47.7757 35.3064H45.6447V36.7792H47.7757V35.3064Z" fill="white"/>
<path d="M51.8788 58.4032H49.7477V59.876H51.8788V58.4032Z" fill="white"/>
<path d="M51.8788 55.1036H49.7477V56.5764H51.8788V55.1036Z" fill="white"/>
<path d="M51.8788 51.8041H49.7477V53.2768H51.8788V51.8041Z" fill="white"/>
<path d="M51.8788 48.5045H49.7477V49.9773H51.8788V48.5045Z" fill="white"/>
<path d="M51.8788 45.2051H49.7477V46.6778H51.8788V45.2051Z" fill="white"/>
<path d="M51.8788 41.9055H49.7477V43.3783H51.8788V41.9055Z" fill="white"/>
<path d="M51.8788 38.606H49.7477V40.0787H51.8788V38.606Z" fill="white"/>
<path d="M51.8788 35.3064H49.7477V36.7792H51.8788V35.3064Z" fill="white"/>
<path d="M30.5091 58.5706H29.0363V60.0433H30.5091V58.5706Z" fill="white"/>
<path d="M30.5091 55.188H29.0363V56.6608H30.5091V55.188Z" fill="white"/>
<path d="M30.5091 51.8041H29.0363V53.2768H30.5091V51.8041Z" fill="white"/>
<path d="M33.7049 58.5706H32.2322V60.0433H33.7049V58.5706Z" fill="white"/>
<path d="M33.7049 55.188H32.2322V56.6608H33.7049V55.188Z" fill="white"/>
<path d="M33.7049 51.8041H32.2322V53.2768H33.7049V51.8041Z" fill="white"/>
<path d="M36.9008 58.5706H35.428V60.0433H36.9008V58.5706Z" fill="white"/>
<path d="M36.9008 55.188H35.428V56.6608H36.9008V55.188Z" fill="white"/>
<path d="M36.9008 51.8041H35.428V53.2768H36.9008V51.8041Z" fill="white"/>
<path d="M24.5115 22.6295H22.3805V24.1023H24.5115V22.6295Z" fill="#DDDDDD"/>
<path d="M28.6145 22.6295H26.4835V24.1023H28.6145V22.6295Z" fill="#DDDDDD"/>
<path d="M32.7189 22.6295H30.5879V24.1023H32.7189V22.6295Z" fill="#DDDDDD"/>
<path d="M54.0858 32.8559V33.9774H54.2919V43.3105H55.4134V32.8559H54.0858ZM62.7275 44.0158V26.8127L62.1204 26.5527L62.0236 26.5113L56.6704 24.2267V16.7053C56.6697 16.2228 56.4777 15.7604 56.1366 15.4192C55.7955 15.0781 55.333 14.8861 54.8506 14.8854C54.3683 14.8861 53.9059 15.0781 53.565 15.4193C53.2241 15.7605 53.0324 16.2229 53.0321 16.7053V22.6751L52.8274 22.588L52.3268 22.3737L48.369 20.6838L46.9737 20.0878V32.979H39.5379V49.5086H35.8816V19.8859H29.5535V13.2826C29.553 12.9584 29.466 12.6402 29.3014 12.3609C29.1368 12.0816 28.9007 11.8512 28.6173 11.6937C28.3476 11.5419 28.0432 11.4624 27.7337 11.4628C27.2513 11.4635 26.789 11.6555 26.4481 11.9967C26.1072 12.3379 25.9155 12.8003 25.9152 13.2826V19.8859H20.1347V63.0428H70.1715V44.0158H62.7275ZM69.1634 45.017V62.7552H55.412V45.017H69.1634ZM54.2919 62.7552H40.5405V33.9774H54.2919V62.7552ZM55.6748 23.8036L55.4701 23.7165L54.9695 23.5035L54.0388 23.1052V16.7053C54.0388 16.4885 54.1249 16.2806 54.2782 16.1274C54.4314 15.9741 54.6394 15.888 54.8561 15.888C54.8915 15.8852 54.9272 15.8852 54.9626 15.888C55.1603 15.9138 55.3413 16.0124 55.4701 16.1646C55.6019 16.3133 55.6747 16.5051 55.6748 16.7039V23.8036ZM47.9804 21.6076L53.0376 23.7663L54.0388 24.1935L55.6748 24.8933L56.676 25.3206L61.0265 27.1792L61.5271 27.3922L61.7318 27.4793V43.8996H55.412V32.8615H47.9749L47.9804 21.6076ZM39.4218 50.5098V62.7552H27.9342V50.5125L39.4218 50.5098ZM28.551 19.8859H26.9108V13.2826C26.9108 13.0655 26.9971 12.8573 27.1506 12.7038C27.3042 12.5502 27.5124 12.464 27.7295 12.464C27.765 12.4619 27.8005 12.4619 27.836 12.464C28.0329 12.4898 28.2136 12.5865 28.3444 12.7359C28.4752 12.8852 28.5472 13.0771 28.5468 13.2757L28.551 19.8859ZM21.129 20.8871H34.8804V49.3744H26.8057V62.7552H21.1359L21.129 20.8871Z" fill="#DDDDDD"/>
<path d="M24.5115 58.9246H22.3805V60.3973H24.5115V58.9246Z" fill="#DDDDDD"/>
<path d="M24.5115 55.625H22.3805V57.0978H24.5115V55.625Z" fill="#DDDDDD"/>
<path d="M24.5115 52.3254H22.3805V53.7982H24.5115V52.3254Z" fill="#DDDDDD"/>
<path d="M24.5115 49.0259H22.3805V50.4987H24.5115V49.0259Z" fill="#DDDDDD"/>
<path d="M24.5115 45.7263H22.3805V47.1991H24.5115V45.7263Z" fill="#DDDDDD"/>
<path d="M24.5115 42.4268H22.3805V43.8995H24.5115V42.4268Z" fill="#DDDDDD"/>
<path d="M24.5115 39.1272H22.3805V40.6H24.5115V39.1272Z" fill="#DDDDDD"/>
<path d="M24.5115 35.8276H22.3805V37.3004H24.5115V35.8276Z" fill="#DDDDDD"/>
<path d="M24.5115 32.5282H22.3805V34.001H24.5115V32.5282Z" fill="#DDDDDD"/>
<path d="M24.5115 29.2286H22.3805V30.7014H24.5115V29.2286Z" fill="#DDDDDD"/>
<path d="M24.5115 25.9291H22.3805V27.4018H24.5115V25.9291Z" fill="#DDDDDD"/>
<path d="M28.6145 45.7263H26.4835V47.1991H28.6145V45.7263Z" fill="#DDDDDD"/>
<path d="M28.6145 42.4268H26.4835V43.8995H28.6145V42.4268Z" fill="#DDDDDD"/>
<path d="M28.6145 39.1272H26.4835V40.6H28.6145V39.1272Z" fill="#DDDDDD"/>
<path d="M28.6145 35.8276H26.4835V37.3004H28.6145V35.8276Z" fill="#DDDDDD"/>
<path d="M28.6145 32.5282H26.4835V34.001H28.6145V32.5282Z" fill="#DDDDDD"/>
<path d="M28.6145 29.2286H26.4835V30.7014H28.6145V29.2286Z" fill="#DDDDDD"/>
<path d="M28.6145 25.9291H26.4835V27.4018H28.6145V25.9291Z" fill="#DDDDDD"/>
<path d="M32.7189 45.7263H30.5879V47.1991H32.7189V45.7263Z" fill="#DDDDDD"/>
<path d="M32.7189 42.4268H30.5879V43.8995H32.7189V42.4268Z" fill="#DDDDDD"/>
<path d="M32.7189 39.1272H30.5879V40.6H32.7189V39.1272Z" fill="#DDDDDD"/>
<path d="M32.7189 35.8276H30.5879V37.3004H32.7189V35.8276Z" fill="#DDDDDD"/>
<path d="M32.7189 32.5282H30.5879V34.001H32.7189V32.5282Z" fill="#DDDDDD"/>
<path d="M32.7189 29.2286H30.5879V30.7014H32.7189V29.2286Z" fill="#DDDDDD"/>
<path d="M32.7189 25.9291H30.5879V27.4018H32.7189V25.9291Z" fill="#DDDDDD"/>
<path d="M59.645 57.7948H58.1722V59.2676H59.645V57.7948Z" fill="#DDDDDD"/>
<path d="M59.645 54.4122H58.1722V55.885H59.645V54.4122Z" fill="#DDDDDD"/>
<path d="M59.645 51.0297H58.1722V52.5024H59.645V51.0297Z" fill="#DDDDDD"/>
<path d="M59.645 47.6458H58.1722V49.1185H59.645V47.6458Z" fill="#DDDDDD"/>
<path d="M62.8408 57.7948H61.3681V59.2676H62.8408V57.7948Z" fill="#DDDDDD"/>
<path d="M62.8408 54.4122H61.3681V55.885H62.8408V54.4122Z" fill="#DDDDDD"/>
<path d="M62.8408 51.0297H61.3681V52.5024H62.8408V51.0297Z" fill="#DDDDDD"/>
<path d="M62.8408 47.6458H61.3681V49.1185H62.8408V47.6458Z" fill="#DDDDDD"/>
<path d="M66.0353 57.7948H64.5625V59.2676H66.0353V57.7948Z" fill="#DDDDDD"/>
<path d="M66.0353 54.4122H64.5625V55.885H66.0353V54.4122Z" fill="#DDDDDD"/>
<path d="M66.0353 51.0297H64.5625V52.5024H66.0353V51.0297Z" fill="#DDDDDD"/>
<path d="M66.0353 47.6458H64.5625V49.1185H66.0353V47.6458Z" fill="#DDDDDD"/>
<path d="M55.7356 15.1136C55.54 14.7609 55.2328 14.4833 54.8622 14.3243C54.4916 14.1653 54.0786 14.134 53.6883 14.2354C53.298 14.3367 52.9524 14.5649 52.706 14.8841C52.4595 15.2033 52.3261 15.5953 52.3268 15.9986V23.0513L52.8274 23.2656L53.3239 23.4814V15.9972C53.3207 15.7876 53.3982 15.5847 53.5404 15.4307C53.6826 15.2766 53.8785 15.183 54.0878 15.1693C54.297 15.1557 54.5035 15.2229 54.6645 15.3572C54.8255 15.4915 54.9288 15.6825 54.9529 15.8908C54.958 15.926 54.9603 15.9616 54.9598 15.9972V24.1811L55.4604 24.3955L55.9624 24.6084V15.9972C55.9636 15.6881 55.8855 15.3839 55.7356 15.1136Z" fill="#780404"/>
<path d="M28.6173 11.6978C28.4218 11.3452 28.1146 11.0676 27.7442 10.9086C27.3737 10.7496 26.9609 10.7182 26.5707 10.8194C26.1804 10.9206 25.8349 11.1485 25.5883 11.4675C25.3417 11.7865 25.2081 12.1783 25.2085 12.5814V20.1873H26.2097V12.5814C26.2096 12.3735 26.2887 12.1733 26.4308 12.0215C26.5729 11.8698 26.7675 11.7778 26.975 11.7642C27.1825 11.7506 27.3874 11.8166 27.5481 11.9486C27.7088 12.0806 27.8132 12.2688 27.8401 12.475C27.8445 12.5103 27.8468 12.5458 27.847 12.5814V20.1873H28.8469V12.5814C28.8477 12.272 28.7686 11.9677 28.6173 11.6978Z" fill="#780404"/>
<path d="M61.4151 25.8489L56.6704 23.8229L55.9665 23.5215L55.6692 23.3943L55.4645 23.3071L54.964 23.0942L54.0333 22.6959L53.328 22.3944L53.032 22.2686L52.8274 22.1815L52.3268 21.9671L47.6637 19.9758L46.2698 19.3798V33.1518H53.7055V44.19H62.0235V26.1088L61.4151 25.8489ZM47.271 20.8968L52.3268 23.0554L52.8274 23.2698L53.3239 23.4814L54.9598 24.1811L55.4604 24.3955L55.9624 24.6084L61.0168 26.7685V43.1874H54.7067V32.1493H47.2696L47.271 20.8968Z" fill="#780404"/>
<path d="M19.4225 19.1862V63.047H27.103V49.6814H35.1763V19.1862H19.4225ZM34.1751 20.1874V48.6747H26.1018V62.0403H20.4238V20.1874H34.1751Z" fill="#780404"/>
<path d="M38.8326 32.2723V63.047H54.5864V32.2723H38.8326ZM39.8338 33.2735H53.5852V62.0458H39.8338V33.2735Z" fill="#780404"/>
<path d="M26.2194 48.8005V63.0442H39.7108V48.8005H26.2194ZM38.7082 49.8031V62.0458H27.222V49.8031H38.7082Z" fill="#780404"/>
<path d="M23.9916 22.1082H21.8606V23.5809H23.9916V22.1082Z" fill="#780404"/>
<path d="M28.0946 22.1082H25.9636V23.5809H28.0946V22.1082Z" fill="#780404"/>
<path d="M32.1976 22.1082H30.0666V23.5809H32.1976V22.1082Z" fill="#780404"/>
<path d="M53.7055 43.3104V63.0469H69.4593V43.3104H53.7055ZM68.4581 44.3116V62.0457H54.7067V44.3116H68.4581Z" fill="#780404"/>
<path d="M23.9916 58.4032H21.8606V59.876H23.9916V58.4032Z" fill="#780404"/>
<path d="M23.9916 55.1036H21.8606V56.5764H23.9916V55.1036Z" fill="#780404"/>
<path d="M23.9916 51.8041H21.8606V53.2768H23.9916V51.8041Z" fill="#780404"/>
<path d="M23.9916 48.5045H21.8606V49.9773H23.9916V48.5045Z" fill="#780404"/>
<path d="M23.9916 45.2051H21.8606V46.6778H23.9916V45.2051Z" fill="#780404"/>
<path d="M23.9916 41.9055H21.8606V43.3783H23.9916V41.9055Z" fill="#780404"/>
<path d="M23.9916 38.606H21.8606V40.0787H23.9916V38.606Z" fill="#780404"/>
<path d="M23.9916 35.3064H21.8606V36.7792H23.9916V35.3064Z" fill="#780404"/>
<path d="M23.9916 32.0068H21.8606V33.4796H23.9916V32.0068Z" fill="#780404"/>
<path d="M23.9916 28.7073H21.8606V30.18H23.9916V28.7073Z" fill="#780404"/>
<path d="M23.9916 25.4077H21.8606V26.8805H23.9916V25.4077Z" fill="#780404"/>
<path d="M28.0946 45.2051H25.9636V46.6778H28.0946V45.2051Z" fill="#780404"/>
<path d="M28.0946 41.9055H25.9636V43.3783H28.0946V41.9055Z" fill="#780404"/>
<path d="M28.0946 38.606H25.9636V40.0787H28.0946V38.606Z" fill="#780404"/>
<path d="M28.0946 35.3064H25.9636V36.7792H28.0946V35.3064Z" fill="#780404"/>
<path d="M28.0946 32.0068H25.9636V33.4796H28.0946V32.0068Z" fill="#780404"/>
<path d="M28.0946 28.7073H25.9636V30.18H28.0946V28.7073Z" fill="#780404"/>
<path d="M28.0946 25.4077H25.9636V26.8805H28.0946V25.4077Z" fill="#780404"/>
<path d="M32.1976 45.2051H30.0666V46.6778H32.1976V45.2051Z" fill="#780404"/>
<path d="M32.1976 41.9055H30.0666V43.3783H32.1976V41.9055Z" fill="#780404"/>
<path d="M32.1976 38.606H30.0666V40.0787H32.1976V38.606Z" fill="#780404"/>
<path d="M32.1976 35.3064H30.0666V36.7792H32.1976V35.3064Z" fill="#780404"/>
<path d="M32.1976 32.0068H30.0666V33.4796H32.1976V32.0068Z" fill="#780404"/>
<path d="M32.1976 28.7073H30.0666V30.18H32.1976V28.7073Z" fill="#780404"/>
<path d="M32.1976 25.4077H30.0666V26.8805H32.1976V25.4077Z" fill="#780404"/>
<path d="M59.1236 57.2748H57.6509V58.7475H59.1236V57.2748Z" fill="#780404"/>
<path d="M59.1236 53.8909H57.6509V55.3636H59.1236V53.8909Z" fill="#780404"/>
<path d="M59.1236 50.5083H57.6509V51.9811H59.1236V50.5083Z" fill="#780404"/>
<path d="M59.1236 47.1259H57.6509V48.5986H59.1236V47.1259Z" fill="#780404"/>
<path d="M62.3195 57.2748H60.8467V58.7475H62.3195V57.2748Z" fill="#780404"/>
<path d="M62.3195 53.8909H60.8467V55.3636H62.3195V53.8909Z" fill="#780404"/>
<path d="M62.3195 50.5083H60.8467V51.9811H62.3195V50.5083Z" fill="#780404"/>
<path d="M62.3195 47.1259H60.8467V48.5986H62.3195V47.1259Z" fill="#780404"/>
<path d="M65.5153 57.2748H64.0426V58.7475H65.5153V57.2748Z" fill="#780404"/>
<path d="M65.5153 53.8909H64.0426V55.3636H65.5153V53.8909Z" fill="#780404"/>
<path d="M65.5153 50.5083H64.0426V51.9811H65.5153V50.5083Z" fill="#780404"/>
<path d="M65.5153 47.1259H64.0426V48.5986H65.5153V47.1259Z" fill="#780404"/>
<path d="M78.9749 62.5449C78.9745 62.6776 78.9217 62.8047 78.8279 62.8985C78.7341 62.9923 78.607 63.0452 78.4743 63.0455H10.4089C10.2761 63.0455 10.1488 62.9928 10.055 62.8989C9.96107 62.805 9.90833 62.6777 9.90833 62.5449C9.90833 62.4121 9.96107 62.2848 10.055 62.1909C10.1488 62.097 10.2761 62.0443 10.4089 62.0443H78.4743C78.607 62.0447 78.7341 62.0975 78.8279 62.1913C78.9217 62.2851 78.9745 62.4122 78.9749 62.5449Z" fill="#780404"/>
<path d="M8.3429 63.047H6.06254C5.92977 63.047 5.80243 62.9942 5.70854 62.9004C5.61466 62.8065 5.56195 62.6791 5.56195 62.5464C5.56195 62.4136 5.61466 62.2863 5.70854 62.1924C5.80243 62.0985 5.92977 62.0458 6.06254 62.0458H8.3429C8.47567 62.0458 8.60302 62.0985 8.6969 62.1924C8.79078 62.2863 8.84352 62.4136 8.84352 62.5464C8.84352 62.6791 8.79078 62.8065 8.6969 62.9004C8.60302 62.9942 8.47567 63.047 8.3429 63.047Z" fill="#780404"/>
<path d="M19.5664 60.5924H17.286C17.1532 60.5924 17.0259 60.5396 16.932 60.4458C16.8381 60.3519 16.7854 60.2245 16.7854 60.0918C16.7854 59.959 16.8381 59.8317 16.932 59.7378C17.0259 59.6439 17.1532 59.5912 17.286 59.5912H19.5664C19.6991 59.5912 19.8265 59.6439 19.9203 59.7378C20.0142 59.8317 20.067 59.959 20.067 60.0918C20.067 60.2245 20.0142 60.3519 19.9203 60.4458C19.8265 60.5396 19.6991 60.5924 19.5664 60.5924Z" fill="#780404"/>
<path d="M15.22 60.5924H12.9437C12.811 60.5924 12.6836 60.5396 12.5897 60.4458C12.4959 60.3519 12.4431 60.2245 12.4431 60.0918C12.4431 59.959 12.4959 59.8317 12.5897 59.7378C12.6836 59.6439 12.811 59.5912 12.9437 59.5912H15.2241C15.3569 59.5912 15.4842 59.6439 15.5781 59.7378C15.672 59.8317 15.7247 59.959 15.7247 60.0918C15.7247 60.2245 15.672 60.3519 15.5781 60.4458C15.4842 60.5396 15.3569 60.5924 15.2241 60.5924H15.22Z" fill="#780404"/>
<path d="M71.5958 60.5924H69.3155C69.1827 60.5924 69.0554 60.5396 68.9615 60.4458C68.8676 60.3519 68.8149 60.2245 68.8149 60.0918C68.8149 59.959 68.8676 59.8317 68.9615 59.7378C69.0554 59.6439 69.1827 59.5912 69.3155 59.5912H71.5958C71.7286 59.5912 71.8559 59.6439 71.9498 59.7378C72.0437 59.8317 72.0965 59.959 72.0965 60.0918C72.0965 60.2245 72.0437 60.3519 71.9498 60.4458C71.8559 60.5396 71.7286 60.5924 71.5958 60.5924Z" fill="#780404"/>
<path d="M75.9423 60.5924H73.6619C73.5291 60.5924 73.4018 60.5396 73.3079 60.4458C73.214 60.3519 73.1613 60.2245 73.1613 60.0918C73.1613 59.959 73.214 59.8317 73.3079 59.7378C73.4018 59.6439 73.5291 59.5912 73.6619 59.5912H75.9423C76.075 59.5912 76.2024 59.6439 76.2962 59.7378C76.3901 59.8317 76.4429 59.959 76.4429 60.0918C76.4429 60.2245 76.3901 60.3519 76.2962 60.4458C76.2024 60.5396 76.075 60.5924 75.9423 60.5924Z" fill="#780404"/>
<path d="M82.8193 63.047H80.5389C80.4062 63.047 80.2788 62.9942 80.185 62.9004C80.0911 62.8065 80.0383 62.6791 80.0383 62.5464C80.0383 62.4136 80.0911 62.2863 80.185 62.1924C80.2788 62.0985 80.4062 62.0458 80.5389 62.0458H82.8193C82.9521 62.0458 83.0794 62.0985 83.1733 62.1924C83.2672 62.2863 83.3199 62.4136 83.3199 62.5464C83.3199 62.6791 83.2672 62.8065 83.1733 62.9004C83.0794 62.9942 82.9521 63.047 82.8193 63.047Z" fill="#780404"/>
</g>
<defs>
<radialGradient id="paint0_radial_1_1158" cx="0" cy="0" r="1" gradientUnits="userSpaceOnUse" gradientTransform="translate(42.1096 41.8694) rotate(140.761) scale(62.831 70.0072)">
<stop stop-color="white"/>
<stop offset="1" stop-color="#FFDAC9"/>
</radialGradient>
<clipPath id="clip0_1_1158">
<rect width="90.8553" height="79.9305" fill="white"/>
</clipPath>
</defs>
</svg>
