<svg width="24" height="26" viewBox="0 0 24 26" fill="none" xmlns="http://www.w3.org/2000/svg">
<path d="M10.3 8.12776C10.2074 8.22437 10.1338 8.33942 10.0836 8.46626C10.0334 8.5931 10.0076 8.72919 10.0076 8.86665C10.0076 9.00411 10.0334 9.1402 10.0836 9.26704C10.1338 9.39387 10.2074 9.50893 10.3 9.60554L12.2 11.6111H3C2.45 11.6111 2 12.0861 2 12.6666C2 13.2472 2.45 13.7222 3 13.7222H12.2L10.3 15.7278C10.2074 15.8244 10.1338 15.9394 10.0836 16.0663C10.0334 16.1931 10.0076 16.3292 10.0076 16.4667C10.0076 16.6041 10.0334 16.7402 10.0836 16.867C10.1338 16.9939 10.2074 17.1089 10.3 17.2055C10.69 17.6172 11.31 17.6172 11.7 17.2055L15.29 13.4161C15.3827 13.3184 15.4563 13.2024 15.5064 13.0748C15.5566 12.9471 15.5824 12.8102 15.5824 12.6719C15.5824 12.5337 15.5566 12.3968 15.5064 12.2691C15.4563 12.1414 15.3827 12.0254 15.29 11.9278L11.7 8.12776C11.6085 8.02997 11.4995 7.95234 11.3793 7.89935C11.2592 7.84636 11.1302 7.81907 11 7.81907C10.8698 7.81907 10.7408 7.84636 10.6207 7.89935C10.5005 7.95234 10.3915 8.02997 10.3 8.12776ZM20 20.0555H13C12.45 20.0555 12 20.5305 12 21.1111C12 21.6916 12.45 22.1666 13 22.1666H20C21.1 22.1666 22 21.2167 22 20.0555V5.27776C22 4.11665 21.1 3.16665 20 3.16665H13C12.45 3.16665 12 3.64165 12 4.2222C12 4.80276 12.45 5.27776 13 5.27776H20V20.0555Z" fill="#FF4C8E"/>
</svg>
