<svg width="148" height="79" viewBox="0 0 148 79" fill="none" xmlns="http://www.w3.org/2000/svg">
<circle cx="39.2607" cy="39.2607" r="39.2607" fill="#FF0044"/>
<path d="M61.9207 28.9673C61.5651 28.5762 61.0496 28.1673 60.374 27.7406C59.6985 27.2784 58.8985 26.8517 57.974 26.4606C57.0496 26.0695 56.054 25.7495 54.9874 25.5006C53.9207 25.2517 52.8185 25.1273 51.6807 25.1273C49.1918 25.1273 47.3429 25.5895 46.134 26.514C44.9251 27.4384 44.3207 28.7184 44.3207 30.354C44.3207 31.5629 44.6585 32.5229 45.334 33.234C46.0096 33.9095 47.0407 34.4784 48.4274 34.9406C49.814 35.4029 51.5563 35.9006 53.654 36.434C56.214 37.0384 58.4363 37.7673 60.3207 38.6206C62.2051 39.4384 63.6451 40.5406 64.6407 41.9273C65.6363 43.314 66.134 45.1451 66.134 47.4206C66.134 49.3406 65.7785 50.994 65.0674 52.3806C64.3563 53.7673 63.3607 54.9051 62.0807 55.794C60.8007 56.6473 59.3251 57.2873 57.654 57.714C55.9829 58.1051 54.1874 58.3006 52.2674 58.3006C50.3829 58.3006 48.4985 58.1051 46.614 57.714C44.7651 57.3229 42.9874 56.754 41.2807 56.0073C39.6096 55.2251 38.0629 54.2829 36.6407 53.1806L39.3607 48.0606C39.8229 48.5229 40.4807 49.0384 41.334 49.6073C42.2229 50.1406 43.2363 50.6562 44.374 51.154C45.5474 51.6518 46.8096 52.0784 48.1607 52.434C49.5474 52.754 50.9518 52.914 52.374 52.914C54.7563 52.914 56.5696 52.5051 57.814 51.6873C59.094 50.834 59.734 49.6251 59.734 48.0606C59.734 46.7806 59.3251 45.7673 58.5074 45.0206C57.6896 44.2384 56.4985 43.5806 54.934 43.0473C53.3696 42.514 51.5029 41.9806 49.334 41.4473C46.8451 40.7718 44.7651 40.0429 43.094 39.2606C41.4229 38.4429 40.1607 37.4117 39.3074 36.1673C38.4896 34.8873 38.0807 33.2695 38.0807 31.314C38.0807 28.8251 38.6851 26.7273 39.894 25.0206C41.1029 23.2784 42.7385 21.9806 44.8007 21.1273C46.8985 20.2384 49.2451 19.794 51.8407 19.794C53.5474 19.794 55.1651 19.9895 56.694 20.3806C58.2229 20.7362 59.6451 21.234 60.9607 21.874C62.3118 22.514 63.5385 23.2429 64.6407 24.0606L61.9207 28.9673ZM103.965 57.9273V30.9406L92.8182 51.4206H89.2982L78.0982 30.9406V57.9273H72.1249V20.0606H78.5249L91.0582 43.2073L103.592 20.0606H109.992V57.9273H103.965ZM140.931 28.9673C140.576 28.5762 140.06 28.1673 139.384 27.7406C138.709 27.2784 137.909 26.8517 136.984 26.4606C136.06 26.0695 135.064 25.7495 133.998 25.5006C132.931 25.2517 131.829 25.1273 130.691 25.1273C128.202 25.1273 126.353 25.5895 125.144 26.514C123.936 27.4384 123.331 28.7184 123.331 30.354C123.331 31.5629 123.669 32.5229 124.344 33.234C125.02 33.9095 126.051 34.4784 127.438 34.9406C128.824 35.4029 130.567 35.9006 132.664 36.434C135.224 37.0384 137.447 37.7673 139.331 38.6206C141.216 39.4384 142.656 40.5406 143.651 41.9273C144.647 43.314 145.144 45.1451 145.144 47.4206C145.144 49.3406 144.789 50.994 144.078 52.3806C143.367 53.7673 142.371 54.9051 141.091 55.794C139.811 56.6473 138.336 57.2873 136.664 57.714C134.993 58.1051 133.198 58.3006 131.278 58.3006C129.393 58.3006 127.509 58.1051 125.624 57.714C123.776 57.3229 121.998 56.754 120.291 56.0073C118.62 55.2251 117.073 54.2829 115.651 53.1806L118.371 48.0606C118.833 48.5229 119.491 49.0384 120.344 49.6073C121.233 50.1406 122.247 50.6562 123.384 51.154C124.558 51.6518 125.82 52.0784 127.171 52.434C128.558 52.754 129.962 52.914 131.384 52.914C133.767 52.914 135.58 52.5051 136.824 51.6873C138.104 50.834 138.744 49.6251 138.744 48.0606C138.744 46.7806 138.336 45.7673 137.518 45.0206C136.7 44.2384 135.509 43.5806 133.944 43.0473C132.38 42.514 130.513 41.9806 128.344 41.4473C125.856 40.7718 123.776 40.0429 122.104 39.2606C120.433 38.4429 119.171 37.4117 118.318 36.1673C117.5 34.8873 117.091 33.2695 117.091 31.314C117.091 28.8251 117.696 26.7273 118.904 25.0206C120.113 23.2784 121.749 21.9806 123.811 21.1273C125.909 20.2384 128.256 19.794 130.851 19.794C132.558 19.794 134.176 19.9895 135.704 20.3806C137.233 20.7362 138.656 21.234 139.971 21.874C141.322 22.514 142.549 23.2429 143.651 24.0606L140.931 28.9673Z" fill="white"/>
</svg>
