<svg width="38" height="40" viewBox="0 0 38 40" fill="none" xmlns="http://www.w3.org/2000/svg">
<path d="M0.188843 3.74128V36.4913C0.189062 36.5623 0.210254 36.6317 0.249762 36.6908C0.289269 36.7499 0.345334 36.7959 0.410924 36.8233C0.476515 36.8506 0.548712 36.8579 0.618463 36.8444C0.688213 36.8308 0.752412 36.797 0.803009 36.7471L17.8555 20.1171L0.803009 3.48544C0.752412 3.43556 0.688213 3.40172 0.618463 3.38818C0.548712 3.37463 0.476515 3.38198 0.410924 3.4093C0.345334 3.43662 0.289269 3.4827 0.249762 3.54176C0.210254 3.60082 0.189062 3.67022 0.188843 3.74128ZM25.0055 13.2838L3.62384 1.50378L3.61051 1.49628C3.24218 1.29628 2.89218 1.79461 3.19384 2.08461L19.9547 18.1113L25.0055 13.2838ZM3.19551 38.1496C2.89218 38.4396 3.24218 38.9379 3.61218 38.7379L3.62551 38.7304L25.0055 26.9504L19.9547 22.1213L3.19551 38.1496ZM33.6372 18.0338L27.6663 14.7454L22.0522 20.1171L27.6663 25.4863L33.6372 22.2004C35.2613 21.3029 35.2613 18.9313 33.6372 18.0338Z" fill="white"/>
</svg>
