<svg width="1440" height="276" viewBox="0 0 1440 276" fill="none" xmlns="http://www.w3.org/2000/svg">
<g clip-path="url(#clip0_3121_497754)">
<g clip-path="url(#clip1_3121_497754)">
<path opacity="0.6" fill-rule="evenodd" clip-rule="evenodd" d="M847 235.668H822.336V192.56H808.573V211.755H788.937V205.574V167.526H756.788V207.968L747.171 208.227V167.45H735.95V150.073H729.218V138.403H702.931V150.073H696.199V167.45H684.979V189.539L679.802 189.8L678.247 124.357H643.625V159.171L631.443 159.431V105.018H627.276V93.5348H590.73V105.018H586.563V168.839H578.869V155.481H572.458V144.3H563.161V111.665H549.697V144.3H540.4V155.481H533.989V177.587L525.974 177.549V149.308L449.288 151.373L431.084 188.348H423.07V175.121H403.11V86H384.831V95.3366H376.494V167.814H347.632V181.041H323.16V150.077L284.494 149.343V194.161L280.966 194.199H276.477V155.517H270.063V144.336H260.764V111.701H247.295V144.336H237.995V155.517H231.582V178.38H223.885V105.053H219.717V93.5706H183.159V105.053H178.99V159.466L166.804 159.207V124.392H147.281L146.969 189.835L141.467 189.575V123.5H114.213V106.124H107.479V94.453H81.1833V106.124H74.449V167.485H63.2251V208.263L53.6047 208.003V167.562L21.4448 194.316V205.61V211.79H0V283.536L847 283.5V235.668Z" fill="#F7F7F8"/>
<path opacity="0.6" fill-rule="evenodd" clip-rule="evenodd" d="M1694 235.668H1669.34V192.56H1655.57V211.755H1635.94V205.574V167.526H1603.79V207.968L1594.17 208.227V167.45H1582.95V150.073H1576.22V138.403H1549.93V150.073H1543.2V167.45H1531.98V189.539L1526.8 189.8L1525.25 124.357H1490.62V159.171L1478.44 159.431V105.018H1474.28V93.5348H1437.73V105.018H1433.56V168.839H1425.87V155.481H1419.46V144.3H1410.16V111.665H1396.7V144.3H1387.4V155.481H1380.99V177.587L1372.97 177.549V149.308L1296.29 151.373L1278.08 188.348H1270.07V175.121H1250.11V86H1231.83V95.3366H1223.49V167.814H1194.63V181.041H1170.16V150.077L1131.49 149.343V194.161L1127.97 194.199H1123.48V155.517H1117.06V144.336H1107.76V111.701H1094.3V144.336H1085V155.517H1078.58V178.38H1070.89V105.053H1066.72V93.5706H1030.16V105.053H1025.99V159.466L1013.8 159.207V124.392H994.281L993.969 189.835L988.467 189.575V123.5H961.213V106.124H954.479V94.453H928.183V106.124H921.449V167.485H910.225V208.263L900.605 208.003V167.562L868.445 194.316V205.61V211.79H847V283.536L1694 283.5V235.668Z" fill="url(#paint0_linear_3121_497754)"/>
<path fill-rule="evenodd" clip-rule="evenodd" d="M-40 391.888C-40 391.888 14.0198 221.967 358.581 224.018C703.143 226.07 940.64 394.018 1202 394.018L-40 391.888Z" fill="#EEEFF0"/>
<path fill-rule="evenodd" clip-rule="evenodd" d="M340 241H344V204H340V241Z" fill="white"/>
<path fill-rule="evenodd" clip-rule="evenodd" d="M342.5 138L332 213H353L342.5 138Z" fill="#E4E6E8"/>
<path fill-rule="evenodd" clip-rule="evenodd" d="M333 208L352 202.048L351.713 200L333.314 205.764L333 208Z" fill="#F7F7F8"/>
<path fill-rule="evenodd" clip-rule="evenodd" d="M336 184L348 180.051L347.726 178L336.299 181.761L336 184Z" fill="#F7F7F8"/>
<path fill-rule="evenodd" clip-rule="evenodd" d="M25.2951 171.548C25.3126 170.965 26.1163 170.513 26.5424 171.029C26.9671 171.544 26.949 171.196 27.3628 172.31C28.5506 175.505 30.2962 178.597 32.328 181.299C36.2212 186.476 40.0754 189.087 44.4513 191.675C42.6481 187.612 41.4406 183.275 41.2867 178.9C41.2308 177.306 41.2613 175.653 41.9433 174.19C42.1337 173.781 42.8654 173.865 42.9396 174.32C43.3073 176.578 42.7662 178.28 43.4967 182.32C45.2403 191.961 52.1404 202.187 58.7966 209.347C57.5201 197.225 56.9013 183.448 59.1841 171.221C59.5585 169.215 60.1539 167.308 60.7072 165.348C60.8374 164.887 61.4924 165.085 61.4119 165.543C61.2967 166.195 60.2093 174.609 60.1437 175.189C59.0885 184.501 59.2995 194.817 60.1204 204.224C65.2838 197.231 68.7399 189.053 70.3556 180.512C70.8334 177.988 70.9609 175.381 71.6307 172.903C71.7228 172.562 72.2867 172.525 72.3569 172.903C73.0446 176.615 71.6675 183.182 70.6638 186.75C68.6295 193.981 65.375 200.462 60.9255 206.252C60.7527 206.477 68.0712 263.056 67.8744 263.772C67.5427 264.98 65.4381 265.828 65.1116 263.685C64.9786 262.812 60.9571 228.41 59.1426 212.474C58.457 212.096 58.0158 211.424 56.2521 209.442C52.1701 204.852 48.1333 199.143 45.4354 193.757C43.8165 193.666 32.1254 187.976 26.326 175.022C26.1588 174.649 25.4056 172.895 25.2981 172.504C25.2058 172.169 25.2851 171.878 25.2951 171.548Z" fill="#EEEFF0"/>
<path fill-rule="evenodd" clip-rule="evenodd" d="M62.8265 152.883C62.6941 151.14 62.625 149.358 62.625 147.545C62.625 127.325 71.1619 110.934 81.6928 110.934C92.2235 110.934 100.761 127.325 100.761 147.545C100.761 149.358 100.692 151.14 100.559 152.883H62.8265Z" fill="#EEEFF0"/>
<path fill-rule="evenodd" clip-rule="evenodd" d="M41.471 143.729C41.3386 141.289 41.2695 138.795 41.2695 136.257C41.2695 107.948 49.8064 85 60.3373 85C70.868 85 79.4051 107.948 79.4051 136.257C79.4051 138.795 79.3361 141.289 79.2034 143.729H41.471Z" fill="#F7F7F8"/>
<path fill-rule="evenodd" clip-rule="evenodd" d="M47.9339 175.762C48.0665 174.019 48.1356 172.237 48.1356 170.424C48.1356 150.204 39.5985 133.812 29.0678 133.812C18.5369 133.812 10 150.204 10 170.424C10 172.237 10.0689 174.019 10.2015 175.762H47.9339Z" fill="#F7F7F8"/>
<path fill-rule="evenodd" clip-rule="evenodd" d="M78.3906 175.764C78.5576 173.325 78.6446 170.83 78.6446 168.292C78.6446 139.984 67.888 117.035 54.6192 117.035C41.3503 117.035 30.5938 139.984 30.5938 168.292C30.5938 170.83 30.6807 173.325 30.8475 175.764H78.3906Z" fill="#EEEFF0"/>
<path fill-rule="evenodd" clip-rule="evenodd" d="M60.3652 117.035C67.0161 117.035 72.9577 124.315 76.8791 135.733C78.8759 134.685 80.9976 134.12 83.1968 134.12C95.0052 134.12 104.578 150.392 104.578 170.466C104.578 172.265 104.5 174.034 104.352 175.764H39.2103C39.0617 173.325 38.9844 170.83 38.9844 168.292C38.9844 139.984 48.5568 117.035 60.3652 117.035Z" fill="#F7F7F8"/>
<path fill-rule="evenodd" clip-rule="evenodd" d="M754 319C754 319 777.341 287.811 792.03 283.028C806.719 278.244 792.875 297.243 792.875 297.243C792.875 297.243 818.932 268.581 828.495 271.165C837.26 273.533 828.495 291.299 828.495 291.299C828.495 291.299 838.367 281.462 850.339 281.462C862.311 281.462 841.085 318.299 841.085 318.299L754 319Z" fill="#E4E6E8"/>
<path fill-rule="evenodd" clip-rule="evenodd" d="M901.814 242.543L905.033 235.927C907.325 230.977 905.404 225.215 900.744 223.058C888.999 217.622 874.797 223.328 869.021 235.803L864.799 244.924C862.949 248.92 859.222 251.407 855.303 251.707C851.745 251.98 848.554 254.34 846.983 257.733L844.758 262.542C842.348 267.748 842.398 273.672 844.712 278.7C846.065 281.64 846.142 285.229 844.622 288.51L841.47 295.319C837.986 302.846 840.906 311.607 847.992 314.887L852.035 316.758C859.121 320.039 867.69 316.596 871.175 309.068C874.413 299.022 879.772 294.84 884.476 293.209C891.392 290.811 897.194 285.62 900.37 278.76L900.816 277.797C904.168 270.556 904.161 262.321 901.038 255.277C899.659 252.168 899.303 247.968 901.814 242.543Z" fill="#F7F7F8"/>
<path fill-rule="evenodd" clip-rule="evenodd" d="M868.928 263.586C872.503 254.27 876.006 244.949 878.548 235.256C886.37 205.429 884.482 183.689 884.19 173.236C884.151 171.855 886.364 171.477 886.557 172.902C887.222 177.809 887.37 182.793 887.402 187.743C887.457 196.108 886.949 204.477 885.879 212.836C891.616 214.332 897.044 212.091 901.485 208.065C909.139 201.125 911.872 191.876 913.075 181.629C913.198 180.582 913.236 179.592 914.087 178.986C914.276 178.449 915.06 178.284 915.254 179.086C916.467 180.334 915.88 182.841 915.693 184.454C913.167 206.276 899.922 216.854 889.259 216.762C888.09 216.752 886.667 216.694 885.396 216.34C884.628 221.56 883.639 226.744 882.43 231.873C880.127 241.646 876.895 251.076 873.339 260.42C861.178 292.368 857.299 308.689 853.844 317.937C853.321 319.796 850.576 319.018 851.056 317.135C851.227 316.465 860.714 284.989 868.928 263.586Z" fill="#EEEFF0"/>
<path fill-rule="evenodd" clip-rule="evenodd" d="M820.201 179.807C820.316 179.12 820.715 178.664 820.867 178.021C821.067 177.172 822.445 177.087 822.589 178.021C822.672 178.555 822.967 178.883 823.081 179.43C823.451 181.196 822.558 191.13 824.888 206.338C825.508 210.379 826.192 214.398 827.531 218.256C829.695 224.492 833.639 231.214 838.543 235.462C838.699 226.554 839.228 217.658 840.291 208.81C840.927 203.514 841.729 198.244 842.704 193.005C843.178 190.454 843.692 187.911 844.244 185.377C844.823 182.717 845.369 180.164 846.636 177.757C847.025 177.018 848.13 177.362 848.132 178.181C848.137 180.543 847.668 182.717 847.178 185.011C846.69 187.295 846.233 189.587 845.808 191.885C842.657 208.913 841.472 224.033 841.485 241.082C846.68 234.512 851.222 226.645 854.588 218.917C858.633 209.629 861.358 199.632 862.492 189.489C862.809 186.651 863.002 183.798 863.063 180.941C863.094 179.462 863.124 177.984 863.153 176.505C863.169 175.744 863.459 173.45 864.734 174.122C865.906 174.74 865.796 176.12 865.894 177.326C866.001 178.641 866.01 179.951 865.993 181.27C865.962 183.795 865.828 186.319 865.595 188.832C863.909 207.049 857.071 225.055 846.674 239.81C845.09 242.059 843.453 244.469 841.529 246.432C841.972 275.588 846.372 314.462 846.448 317.406C846.464 318.056 846.448 317.888 846.208 318.129C845.266 319.075 844.163 319.387 843.809 318.37C843.142 316.449 843.251 314.649 842.255 304.012C840.478 285.045 838.488 241.594 838.496 239.832C832.323 235.374 827.952 228.515 825.095 221.352C823.58 217.551 822.691 213.641 822.023 209.592C819.754 195.822 819.825 182.058 820.201 179.807Z" fill="#EEEFF0"/>
<path fill-rule="evenodd" clip-rule="evenodd" d="M863.359 156C863.123 153.882 863 151.715 863 149.511C863 124.929 878.222 105 897 105C915.778 105 931 124.929 931 149.511C931 151.715 930.877 153.882 930.641 156H863.359Z" fill="#EEEFF0"/>
<path fill-rule="evenodd" clip-rule="evenodd" d="M824.36 144C824.123 141.051 824 138.035 824 134.966C824 100.743 839.222 73 858 73C876.778 73 892 100.743 892 134.966C892 138.035 891.877 141.051 891.641 144H824.36Z" fill="#F7F7F8"/>
<path fill-rule="evenodd" clip-rule="evenodd" d="M891.545 183C891.844 180.051 892 177.035 892 173.966C892 139.743 872.748 112 849 112C825.252 112 806 139.743 806 173.966C806 177.035 806.156 180.051 806.454 183H891.545Z" fill="#EEEFF0"/>
<path fill-rule="evenodd" clip-rule="evenodd" d="M858.137 112C870.001 112 880.599 120.801 887.593 134.605C891.155 133.338 894.94 132.655 898.863 132.655C919.925 132.655 937 152.327 937 176.594C937 178.77 936.862 180.909 936.597 183H820.403C820.138 180.051 820 177.035 820 173.966C820 139.743 837.074 112 858.137 112Z" fill="#F7F7F8"/>
</g>
<g clip-path="url(#clip2_3121_497754)">
<g opacity="0.6">
<rect y="264" width="1440" height="114" fill="url(#paint1_linear_3121_497754)"/>
<rect width="500" height="348.41" transform="matrix(0 -1 -1 0 348.41 328)" fill="url(#paint2_linear_3121_497754)"/>
</g>
<rect y="181" width="1440" height="186" fill="url(#paint3_linear_3121_497754)"/>
</g>
<rect x="1005" y="181" width="438" height="186" fill="url(#paint4_linear_3121_497754)"/>
<g clip-path="url(#clip3_3121_497754)">
<g opacity="0.6">
<rect x="1025" y="264" width="415" height="114" fill="url(#paint5_linear_3121_497754)"/>
<rect width="500" height="100.41" transform="matrix(0 -1 -1 0 1125.41 328)" fill="url(#paint6_linear_3121_497754)"/>
<rect x="1340" y="328" width="500" height="100.005" transform="rotate(-90 1340 328)" fill="url(#paint7_linear_3121_497754)"/>
<rect x="1025" y="193" width="415" height="201" fill="url(#paint8_linear_3121_497754)"/>
</g>
<rect x="937" y="181" width="503" height="186" fill="url(#paint9_linear_3121_497754)"/>
<path opacity="0.6" fill-rule="evenodd" clip-rule="evenodd" d="M1694 227.668H1669.34V184.56H1655.57V203.755H1635.94V197.574V159.526H1603.79V199.968L1594.17 200.227V159.45H1582.95V142.073H1576.22V130.403H1549.93V142.073H1543.2V159.45H1531.98V181.539L1526.8 181.8L1525.25 116.357H1490.62V151.171L1478.44 151.431V97.0176H1474.28V85.5348H1437.73V97.0176H1433.56V160.839H1425.87V147.481H1419.46V136.3H1410.16V103.665H1396.7V136.3H1387.4V147.481H1380.99V169.587L1372.97 169.549V141.308L1296.29 143.373L1278.08 180.348H1270.07V167.121H1250.11V78H1231.83V87.3366H1223.49V159.814H1194.63V173.041H1170.16V142.077L1131.49 141.343V186.161L1127.97 186.199H1123.48V147.517H1117.06V136.336H1107.76V103.701H1094.3V136.336H1085V147.517H1078.58V170.38H1070.89V97.0534H1066.72V85.5706H1030.16V97.0534H1025.99V151.466L1013.8 151.207V116.392H994.281L993.969 181.835L988.467 181.575V115.5H961.213V98.1239H954.479V86.453H928.183V98.1239H921.449V159.485H910.225V200.263L900.605 200.003V159.562L868.445 186.316V197.61V203.79H847V275.536L1694 275.5V227.668Z" fill="url(#paint10_linear_3121_497754)"/>
</g>
</g>
<defs>
<linearGradient id="paint0_linear_3121_497754" x1="1270.5" y1="86" x2="1270.5" y2="283.536" gradientUnits="userSpaceOnUse">
<stop stop-color="#F4F4F4"/>
<stop offset="1" stop-color="white" stop-opacity="0.85"/>
</linearGradient>
<linearGradient id="paint1_linear_3121_497754" x1="0" y1="264" x2="0" y2="378" gradientUnits="userSpaceOnUse">
<stop stop-color="#EEEEEE"/>
<stop offset="1" stop-color="#F7F7F8"/>
</linearGradient>
<linearGradient id="paint2_linear_3121_497754" x1="30.8837" y1="64.0721" x2="30.8837" y2="348.41" gradientUnits="userSpaceOnUse">
<stop stop-color="white" stop-opacity="0.01"/>
<stop offset="1" stop-color="white"/>
</linearGradient>
<linearGradient id="paint3_linear_3121_497754" x1="1288.39" y1="295.754" x2="1288.39" y2="181" gradientUnits="userSpaceOnUse">
<stop stop-color="white"/>
<stop offset="1" stop-color="white" stop-opacity="0.01"/>
</linearGradient>
<linearGradient id="paint4_linear_3121_497754" x1="1396.89" y1="295.754" x2="1396.89" y2="181" gradientUnits="userSpaceOnUse">
<stop stop-color="white"/>
<stop offset="1" stop-color="white" stop-opacity="0.01"/>
</linearGradient>
<linearGradient id="paint5_linear_3121_497754" x1="1025" y1="264" x2="1025" y2="378" gradientUnits="userSpaceOnUse">
<stop stop-color="#EEEEEE"/>
<stop offset="1" stop-color="#F7F7F8"/>
</linearGradient>
<linearGradient id="paint6_linear_3121_497754" x1="30.8837" y1="18.4652" x2="30.8837" y2="100.41" gradientUnits="userSpaceOnUse">
<stop stop-color="white" stop-opacity="0.01"/>
<stop offset="1" stop-color="white" stop-opacity="0"/>
</linearGradient>
<linearGradient id="paint7_linear_3121_497754" x1="1465.17" y1="384.11" x2="1465.17" y2="428.005" gradientUnits="userSpaceOnUse">
<stop stop-color="white" stop-opacity="0.01"/>
<stop offset="1" stop-color="white"/>
</linearGradient>
<linearGradient id="paint8_linear_3121_497754" x1="1376.48" y1="293.5" x2="1376.48" y2="193" gradientUnits="userSpaceOnUse">
<stop stop-color="white"/>
<stop offset="1" stop-color="white" stop-opacity="0.01"/>
</linearGradient>
<linearGradient id="paint9_linear_3121_497754" x1="1387.04" y1="295.754" x2="1387.04" y2="181" gradientUnits="userSpaceOnUse">
<stop stop-color="white"/>
<stop offset="1" stop-color="white" stop-opacity="0.01"/>
</linearGradient>
<linearGradient id="paint10_linear_3121_497754" x1="1271" y1="194.5" x2="1270.5" y2="275.536" gradientUnits="userSpaceOnUse">
<stop stop-color="#F1F1F1" stop-opacity="0.63"/>
<stop offset="1" stop-color="white" stop-opacity="0.72"/>
</linearGradient>
<clipPath id="clip0_3121_497754">
<rect width="1440" height="276" fill="white"/>
</clipPath>
<clipPath id="clip1_3121_497754">
<rect width="1025" height="203" fill="white" transform="translate(0 73)"/>
</clipPath>
<clipPath id="clip2_3121_497754">
<rect width="1440" height="276" fill="white"/>
</clipPath>
<clipPath id="clip3_3121_497754">
<rect width="415" height="276" fill="white" transform="translate(1025)"/>
</clipPath>
</defs>
</svg>
