<svg width="330" height="257" viewBox="0 0 330 257" fill="none" xmlns="http://www.w3.org/2000/svg">
<g clip-path="url(#clip0_61_593)">
<path d="M124.348 199.688C138.447 199.688 149.877 187.646 149.877 172.792C149.877 157.938 138.447 145.896 124.348 145.896C110.248 145.896 98.8187 157.938 98.8187 172.792C98.8187 187.646 110.248 199.688 124.348 199.688Z" fill="#EAE7E4"/>
<path d="M80.4053 237.959C72.0339 238.421 64.7545 233.28 59.2002 227.136C53.0382 220.322 48.1937 211.994 44.3174 203.568C40.6304 195.554 36.9797 185.965 39.1199 176.933C41.1909 168.185 49.1291 163.537 56.1829 159.664C62.5925 156.143 69.3224 153.111 75.2078 148.629C81.1697 144.087 85.4864 138.155 87.3318 130.576C89.4501 121.87 89.1189 112.785 91.9797 104.222C94.5712 96.4767 99.0772 89.22 105.388 84.2913C111.195 79.683 118.486 77.5777 125.746 78.4124C132.632 79.2187 139.413 82.7733 143.314 88.9512C148.119 96.5638 148.083 106.111 149.204 114.844C150.183 122.46 152.261 130.83 158.212 135.857C164.29 140.99 172.458 140.865 179.686 139.007C188.422 136.735 196.258 131.678 205.041 129.543C209.485 128.456 214.14 128.237 218.544 129.672C222.379 130.986 225.844 133.261 228.633 136.296C234.941 142.978 237.711 152.275 238.439 161.485C238.825 166.364 238.392 171.225 238.592 176.101C238.763 180.147 239.713 184.024 242.1 187.26C246.37 193.048 253.58 195.736 260.299 196.413C265.074 196.894 269.89 196.47 274.662 196.16C279.433 195.849 284.66 195.38 289.417 196.538C290.538 196.78 291.601 197.253 292.542 197.931C293.483 198.609 294.283 199.476 294.895 200.483C296.1 202.44 296.904 204.696 297.588 206.918C298.997 211.483 299.671 216.259 299.583 221.053C299.494 225.688 298.694 230.278 297.213 234.651C296.94 235.461 298.163 235.809 298.433 235.006C301.468 225.964 301.647 216.149 298.942 206.994C297.803 203.167 296.249 198.564 292.755 196.436C291.033 195.384 289.042 195.02 287.091 194.801C284.611 194.545 282.117 194.466 279.626 194.562C270.439 194.831 260.987 196.61 252.139 193.097C248.67 191.719 245.362 189.55 243.065 186.439C240.153 182.502 239.724 177.679 239.789 172.853C239.949 163.181 239.647 153.547 235.64 144.628C232.364 137.299 226.461 130.94 219.021 128.438C200.822 122.32 185.364 141.717 167.188 138.575C163.152 137.921 159.469 135.803 156.789 132.598C154.11 129.357 152.563 125.246 151.577 121.124C149.48 112.383 150.063 103.116 147.253 94.5386C144.858 87.2402 139.86 81.7209 133.021 78.9273C126.472 76.293 119.231 76.1936 112.617 78.6471C105.49 81.3348 99.6122 86.9449 95.5102 93.5581C91.0552 100.751 88.9587 108.863 87.9833 117.32C87.4191 122.173 87.0151 127.094 85.6611 131.795C84.4904 135.906 82.4227 139.68 79.6192 142.822C74.56 148.501 67.7646 152.029 61.2458 155.458C54.4577 159.032 46.6213 162.545 41.6385 168.802C36.0625 175.805 36.583 185.28 39.0216 193.525C41.7659 202.788 46.4539 211.627 51.7316 219.535C56.3831 226.504 62.0684 233.337 69.5407 236.982C72.9113 238.671 76.6313 239.465 80.3689 239.295C81.1806 239.25 81.1842 237.917 80.3689 237.959H80.4053Z" fill="#EAE7E4"/>
<path d="M170.23 217.843C170.23 217.843 164.385 215.625 166.918 210.488C169.451 205.351 173.768 210.488 173.768 210.488C173.768 210.488 175.999 206.241 178.733 206.46C181.466 206.68 182.736 212.138 182.736 212.138C182.736 212.138 187.588 206.46 191.173 209.56C194.759 212.661 193.608 214.224 193.608 214.224C193.608 214.224 196.233 203.322 203.192 206.441C210.151 209.56 206.628 214.224 206.628 214.224C206.628 214.224 213.31 207.823 215.421 212.468C217.532 217.112 214.366 221.443 214.366 221.443C214.366 221.443 173.04 226.054 170.23 217.843Z" fill="url(#paint0_linear_61_593)"/>
<path d="M14.6353 233.405C9.8233 221.659 6.13069 209.451 3.61057 196.955C2.38034 190.811 1.53959 184.273 3.78167 178.273C5.68525 173.193 9.41595 169.131 13.4524 165.948C21.751 159.403 32.0151 156.174 39.5894 148.501C46.1736 141.846 49.8243 132.655 51.6005 123.244C55.7279 101.576 50.1919 79.143 55.0291 57.5998C57.4568 46.7885 62.9018 37.0523 71.3751 30.5791C79.6191 24.2801 89.8904 21.7552 99.8014 24.0681C109.629 26.3394 117.272 32.9715 122.517 42.068C127.307 50.3582 130.317 59.6554 134.801 68.1273C139.212 76.4553 145.2 83.432 153.589 87.0282C161.881 90.5865 171.49 90.6849 179.73 86.9146C189.608 82.3947 196.775 73.0219 206.868 68.8957C216.539 64.9437 228.106 65.7122 235.494 74.2711C239.28 78.6547 240.59 84.1815 240.677 90.0642C240.765 95.9468 239.971 101.799 241.129 107.583C243.167 117.744 250.501 125.28 259.593 128.078C269.26 131.05 279.874 129.778 289.038 134.771C293.559 137.235 297.046 141.206 298.545 146.506C300.118 152.082 299.594 158.063 298.382 163.654C297.049 169.809 294.917 175.745 293.854 181.972C293.013 186.893 293.068 192.083 295.979 196.224C300.587 202.777 310.313 204.829 312.78 213.183C314.477 218.918 311.739 224.918 308.795 229.57C308.38 230.225 309.363 230.842 309.774 230.191C312.577 225.77 315.022 220.376 314.298 214.864C313.745 210.639 311.197 207.456 308.158 204.953C304.959 202.304 301.268 200.339 298.371 197.284C294.185 192.874 294.003 187.01 295.164 181.128C297.377 169.771 302.898 158.237 299.714 146.43C296.962 136.232 287.874 131.826 278.913 130.126C268.43 128.139 256.71 128.79 248.656 119.988C245.055 116.051 242.714 111.051 241.955 105.675C241.067 99.3159 242.253 92.8692 241.631 86.4906C240.663 76.3191 233.747 68.5437 224.681 66.1058C214.184 63.2819 203.774 67.9758 195.341 74.4907C190.926 77.8976 186.718 81.6831 181.903 84.4465C177.43 87.0027 172.425 88.389 167.322 88.4856C162.397 88.5794 157.514 87.5272 153.03 85.4058C148.546 83.2843 144.575 80.1474 141.407 76.2244C129.276 61.215 127.522 37.957 110.608 27.263C106.474 24.6705 101.873 22.9861 97.0895 22.3136C92.3058 21.641 87.4403 21.9946 82.793 23.3526C73.7592 26.0327 65.8318 32.4378 60.5506 40.7658C48.15 60.3027 52.9071 85.2376 52.1392 107.39C51.7752 117.808 50.3193 128.615 45.6786 137.897C43.3108 142.693 39.9821 146.905 35.9168 150.249C31.6365 153.736 26.792 156.268 22.0859 158.956C13.8928 163.605 4.85902 169.673 2.08918 179.882C0.487702 185.784 1.45585 192.034 2.65696 197.905C3.96484 204.287 5.57604 210.585 7.49053 216.798C9.3104 222.651 11.3668 228.401 13.6781 234.045C13.9729 234.768 14.952 234.143 14.6608 233.424L14.6353 233.405Z" fill="#EAE7E4"/>
<path d="M258.931 224.388C258.931 224.388 253.449 216.772 253.66 212.551C253.871 208.33 265.045 215.201 265.045 215.201C265.045 215.201 264.412 205.218 270.527 205.434C276.642 205.65 279.171 216.533 279.171 216.533C279.171 216.533 283.699 211.048 287.233 214.902C290.767 218.755 289.934 222.196 289.934 222.196C289.934 222.196 293.803 209.212 300.893 212.093C307.983 214.974 303 222.196 303 222.196C303 222.196 307.637 219.149 310.378 223.506C313.119 227.863 311.856 230.99 311.856 230.99L258.931 224.388Z" fill="url(#paint1_linear_61_593)"/>
<path d="M156.494 248.301C242.923 248.301 312.988 241.351 312.988 232.777C312.988 224.203 242.923 217.252 156.494 217.252C70.0647 217.252 0 224.203 0 232.777C0 241.351 70.0647 248.301 156.494 248.301Z" fill="#EAE7E4"/>
<path d="M86.8732 234.416C122.393 234.416 151.187 230.936 151.187 226.644C151.187 222.352 122.393 218.873 86.8732 218.873C51.3535 218.873 22.5591 222.352 22.5591 226.644C22.5591 230.936 51.3535 234.416 86.8732 234.416Z" fill="#BFB4D6"/>
<path d="M108.264 240.647C130.973 240.647 149.382 238.471 149.382 235.786C149.382 233.102 130.973 230.926 108.264 230.926C85.555 230.926 67.1458 233.102 67.1458 235.786C67.1458 238.471 85.555 240.647 108.264 240.647Z" fill="#BFB4D6"/>
<path d="M213.798 240.113C258.329 240.113 294.429 237.811 294.429 234.972C294.429 232.133 258.329 229.832 213.798 229.832C169.267 229.832 133.167 232.133 133.167 234.972C133.167 237.811 169.267 240.113 213.798 240.113Z" fill="#BFB4D6"/>
<path d="M198.828 59.2087C198.828 59.2087 197.132 53.0384 198.795 49.3135C200.458 45.5886 205.033 46.9059 205.033 46.9059C205.033 46.9059 209.19 42.9614 214.18 46.2472C219.17 49.533 218.755 58.7393 217.922 61.1431C217.088 63.5469 217.092 63.7702 217.092 63.7702C217.092 63.7702 221.248 62.6762 221.874 67.9342C222.5 73.1923 223.33 75.5998 225.824 76.4743C228.317 77.3487 229.358 76.9134 229.358 76.9134C229.358 76.9134 223.953 80.8579 218.548 79.9796C213.143 79.1014 208.568 74.5058 208.153 69.9027C207.738 65.2995 198.828 59.2087 198.828 59.2087Z" fill="#5B3939"/>
<path d="M210.595 65.4774C210.595 65.4774 210.668 66.2724 210.806 67.5065C210.944 68.7405 211.447 72.2004 211.447 72.2004L212.699 77.0231C212.699 77.0231 203.898 85.2414 201.186 84.1436C198.475 83.0458 205.132 71.9506 205.132 71.9506L205.416 71.379L205.696 68.6042C205.51 68.6724 203.538 69.3046 200.786 67.8017C197.892 66.2194 198.901 55.8926 198.901 55.8926C198.901 55.8926 200.174 54.3784 200.691 53.8901L201.201 53.4055C201.201 53.4055 201.536 53.9166 204.4 55.6579C207.265 57.3992 208.175 57.3462 208.528 57.4711C208.881 57.5961 208.986 59.6251 209.397 60.121C209.809 60.6169 210.082 60.174 210.104 60.1399C210.438 59.4358 211.123 59.08 211.825 59.8068C212.764 60.7834 213.008 63.2137 212.753 64.2736C212.499 65.3336 210.595 65.4774 210.595 65.4774Z" fill="url(#paint2_linear_61_593)"/>
<path d="M210.65 63.4636C210.799 63.2591 211.013 63.8421 211.068 63.8951C211.169 64.0078 211.309 64.0744 211.458 64.0806C211.61 64.0644 211.754 63.9986 211.868 63.8925C211.982 63.7865 212.062 63.6457 212.095 63.49C212.295 62.7027 212 61.5973 211.21 61.3778C211.152 61.3617 211.09 61.3702 211.039 61.4014C210.987 61.4327 210.949 61.4841 210.933 61.5443C210.918 61.6046 210.926 61.6687 210.956 61.7227C210.986 61.7766 211.036 61.8159 211.094 61.832C211.53 61.9607 211.672 62.4188 211.698 62.8617C211.716 63.0258 211.709 63.1921 211.676 63.3538C211.599 63.6377 211.476 63.6566 211.312 63.403C211.305 63.3469 211.29 63.2921 211.268 63.2402C211.039 62.8617 210.635 62.7292 210.344 63.1191C210.173 63.3538 210.478 63.6983 210.653 63.4636H210.65Z" fill="#C65252"/>
<path d="M205.776 60.8591C205.776 61.1885 205.608 61.4497 205.412 61.4459C205.215 61.4421 205.048 61.1695 205.048 60.8402C205.048 60.5109 205.215 60.2497 205.412 60.2535C205.608 60.2572 205.78 60.5185 205.776 60.8591Z" fill="#3D325E"/>
<path d="M200.535 61.4648C200.535 61.7942 200.364 62.0554 200.171 62.0516C199.978 62.0478 199.807 61.7752 199.807 61.4459C199.807 61.1166 199.978 60.8554 200.171 60.8629C200.364 60.8705 200.535 61.1393 200.535 61.4648Z" fill="#3D325E"/>
<path d="M202.366 64.974C202.276 64.9714 202.187 64.9612 202.1 64.9437C202.033 64.9333 201.968 64.9089 201.911 64.8718C201.845 64.8196 201.793 64.7525 201.757 64.6757C201.721 64.5988 201.702 64.5143 201.703 64.4289C201.681 64.1539 201.742 63.8785 201.878 63.6415C201.92 63.5675 201.968 63.4967 202.02 63.4295C202.063 63.3651 202.107 63.3084 202.143 63.244C202.259 63.0357 202.303 62.7926 202.267 62.555C202.264 62.5351 202.264 62.5147 202.268 62.4948C202.272 62.475 202.28 62.4562 202.291 62.4397C202.302 62.4231 202.317 62.409 202.333 62.3982C202.35 62.3875 202.368 62.3803 202.387 62.3771C202.407 62.3745 202.426 62.3758 202.445 62.3811C202.463 62.3863 202.481 62.3954 202.496 62.4077C202.511 62.42 202.524 62.4354 202.533 62.4529C202.543 62.4704 202.549 62.4897 202.551 62.5096C202.599 62.823 202.541 63.144 202.387 63.4181C202.345 63.4902 202.299 63.5597 202.249 63.6263C202.204 63.6852 202.162 63.7471 202.125 63.8118C202.023 63.9923 201.976 64.201 201.991 64.4099C201.989 64.4453 201.994 64.4807 202.006 64.514C202.018 64.5472 202.036 64.5775 202.06 64.603C202.087 64.6181 202.117 64.6284 202.147 64.6333C202.391 64.6777 202.642 64.6555 202.875 64.5689C202.893 64.5618 202.913 64.5587 202.932 64.5596C202.951 64.5606 202.97 64.5657 202.988 64.5745C203.005 64.5834 203.02 64.5959 203.033 64.6112C203.046 64.6265 203.055 64.6443 203.061 64.6636C203.074 64.7023 203.073 64.745 203.058 64.7829C203.042 64.8209 203.013 64.8513 202.977 64.868C202.781 64.9424 202.574 64.9784 202.366 64.974Z" fill="#C65252"/>
<path d="M199.072 58.5122C199.493 58.2705 199.985 58.1978 200.455 58.3077C200.662 58.3569 200.749 58.0125 200.546 57.967C199.992 57.8321 199.409 57.9157 198.911 58.2017C198.726 58.3039 198.89 58.6181 199.072 58.5122Z" fill="#3D325E"/>
<path d="M204.287 57.4901V57.4333C204.258 57.4825 204.233 57.5355 204.207 57.5847C204.673 57.2629 205.492 57.4674 205.969 57.6718C206.165 57.755 206.253 57.4144 206.056 57.3311C205.622 57.1397 205.15 57.0617 204.68 57.1039C204.433 57.1304 203.985 57.1304 203.952 57.4825C203.952 57.7096 204.262 57.7172 204.28 57.4825L204.287 57.4901Z" fill="#3D325E"/>
<path d="M202.005 66.42C202.005 66.42 202.475 67.3853 203.199 67.4573C203.923 67.5292 204.433 66.7342 204.484 66.4844C204.535 66.2345 204.619 66.0377 204.531 66.0491C204.043 66.2276 203.527 66.3086 203.01 66.2875C202.384 66.1967 201.838 65.9544 202.005 66.42Z" fill="#C65252"/>
<path d="M209.893 60.8175L207.69 60.6547C207.63 60.0714 207.375 59.5284 206.971 59.1198C206.566 58.7112 206.036 58.4628 205.474 58.4175C204.917 58.4298 204.383 58.6525 203.973 59.044C203.562 59.4355 203.303 59.969 203.243 60.545C202.999 60.433 202.734 60.3763 202.467 60.3784C202.273 60.3769 202.083 60.4363 201.922 60.5488C201.796 60.0907 201.537 59.6846 201.179 59.3868C200.822 59.089 200.384 58.9143 199.927 58.8869C199.637 58.8937 199.351 58.9606 199.085 59.0838C198.82 59.2069 198.581 59.3838 198.383 59.6041C198.184 59.8244 198.03 60.0837 197.929 60.3668C197.828 60.6499 197.782 60.9511 197.794 61.2529C197.771 61.87 197.978 62.4725 198.373 62.9335C198.769 63.3945 199.32 63.6782 199.912 63.7248C200.203 63.718 200.489 63.6511 200.754 63.5279C201.019 63.4048 201.258 63.2279 201.456 63.0076C201.655 62.7873 201.809 62.528 201.911 62.2449C202.012 61.9618 202.057 61.6606 202.045 61.3588C202.044 61.1693 202.025 60.9803 201.987 60.7948C202.053 60.7327 202.131 60.685 202.216 60.6545C202.3 60.624 202.389 60.6112 202.478 60.6169C202.73 60.6185 202.979 60.6779 203.206 60.791C203.206 60.8554 203.206 60.9235 203.206 60.9917C203.206 62.4415 204.211 63.6415 205.456 63.6793C206.7 63.7172 207.72 62.5437 207.723 61.1052C207.723 61.0333 207.723 60.9652 207.723 60.8932L209.889 61.056L209.893 60.8175ZM199.912 63.4863C199.38 63.4427 198.884 63.186 198.53 62.7702C198.176 62.3543 197.99 61.8118 198.012 61.2567C198 60.9851 198.04 60.7138 198.131 60.4587C198.221 60.2036 198.359 59.9698 198.538 59.7712C198.716 59.5726 198.931 59.4131 199.169 59.3022C199.408 59.1913 199.666 59.1312 199.927 59.1254C200.46 59.169 200.955 59.4258 201.309 59.8416C201.664 60.2574 201.849 60.7999 201.827 61.3551C201.839 61.6277 201.798 61.9 201.706 62.1559C201.615 62.4118 201.475 62.646 201.295 62.8447C201.116 63.0435 200.899 63.2026 200.659 63.3128C200.419 63.423 200.16 63.482 199.898 63.4863H199.912ZM205.459 63.4409C204.331 63.4144 203.421 62.3052 203.425 60.9992C203.428 59.6933 204.349 58.6295 205.474 58.656C206.599 58.6825 207.512 59.7917 207.505 61.1014C207.498 62.4112 206.584 63.4711 205.459 63.4409Z" fill="white"/>
<path d="M208.633 66.5525C208.589 66.6661 207.254 70.338 206.154 70.955L205.427 71.379L205.707 68.6042C206.189 68.4465 206.662 68.2595 207.123 68.044C207.905 67.6806 208.593 66.6169 208.633 66.5525Z" fill="#C65252"/>
<path d="M279.655 180.742C278.927 181.457 278.927 180.866 277.704 180.681C276.481 180.495 275.007 170.926 274.6 169.552C274.192 168.178 274.298 168.795 272.117 167.602C269.937 166.41 226.621 163.139 223.021 160.932C222.559 160.648 222.097 159.868 221.642 158.725C218.57 150.98 215.843 126.549 215.843 126.549L233.558 142.035C233.558 142.035 234.381 145.442 235.087 148.092C235.513 149.689 235.898 151.007 236.04 151.15C236.422 151.529 238.887 151.908 244.346 152.687C249.806 153.467 268.478 159.558 269.162 159.88C269.846 160.201 275.863 159.592 277.1 159.191C278.338 158.79 280.376 160.474 280.885 163.203C281.395 165.933 280.383 180.026 279.655 180.742Z" fill="url(#paint3_linear_61_593)"/>
<path d="M235.087 148.126L221.642 158.725C218.57 150.98 215.843 126.549 215.843 126.549L233.558 142.035C233.558 142.035 234.381 145.468 235.087 148.126Z" fill="#C65252"/>
<path d="M204.993 146.593C204.993 146.593 188.727 166.069 187.625 166.069C187.261 166.069 187.049 167.689 186.846 170.256C186.423 175.677 186.092 185.337 184.818 192.969C182.944 204.193 177.608 219.921 178.016 220.871C178.228 221.49 178.403 222.123 178.54 222.764C179.18 225.482 180.047 230.085 179.632 230.74C179.089 231.618 160.112 231.978 159.213 231.944C158.314 231.91 156.45 231.001 156.876 229.203C157.12 228.174 161.175 226.269 164.778 224.596C167.424 223.366 169.834 222.253 170.307 221.7C171.399 220.394 172.178 216.643 172.6 207.997C172.876 202.429 174.081 185.303 175.013 173.023C175.53 166.209 175.963 160.909 176.105 159.868C176.512 156.931 189.572 126.935 189.572 126.935L204.993 146.593Z" fill="url(#paint4_linear_61_593)"/>
<path d="M204.993 146.593C204.993 146.593 188.727 166.069 187.625 166.069C187.261 166.069 187.05 167.689 186.846 170.256C182.332 171.846 178.354 172.906 175.563 173.004H175.006C175.522 166.19 175.956 160.89 176.098 159.849C176.505 156.912 189.565 126.916 189.565 126.916L204.993 146.593Z" fill="#C65252"/>
<path d="M240.612 135.134C239.837 137.697 221.711 155.754 207.705 162.658C193.699 169.563 174.023 161.212 174.784 158.184C175.544 155.155 197.394 104.74 197.394 104.74L200.567 104.551L215.807 103.646C215.807 103.646 221.831 122.362 227.432 128.737L227.774 129.115C228.876 130.273 230.17 131.216 231.593 131.897C234.978 133.544 238.322 133.487 239.829 133.987C240.488 134.203 240.794 134.525 240.612 135.134Z" fill="#5D2168"/>
<path opacity="0.71" d="M240.612 135.134C239.837 137.697 221.711 155.754 207.705 162.658C193.699 169.563 174.023 161.212 174.784 158.184C175.544 155.155 197.394 104.74 197.394 104.74L200.567 104.551C197.849 111.316 186.405 140.347 189.961 140.634C193.237 140.899 218.351 132 227.432 128.737L227.774 129.115C228.876 130.273 230.17 131.216 231.593 131.897C221.252 135.683 198.413 144.412 192.862 149.712C185.626 156.624 185.16 159.399 189.652 161.356C194.143 163.313 208.353 160.376 215.807 154.993C221.707 150.73 234.683 138.779 239.829 133.987C240.488 134.203 240.794 134.525 240.612 135.134Z" fill="#381F3D"/>
<path d="M201.547 73.2945L199.13 80.9638C199.13 80.9638 195.807 79.8698 192.265 78.6925C188.724 77.5153 184.909 76.179 184.065 75.7739C182.383 74.9638 177.481 63.4446 176.851 62.4869C176.352 61.6227 175.621 60.9293 174.747 60.492C173.837 60.0491 171.315 59.3109 170.893 58.5727C170.471 57.8345 172.294 58.4629 172.294 58.4629L174.329 57.8345C174.329 57.8345 173.066 53.4434 172.818 52.5576C172.571 51.6718 170.929 49.938 170.507 49.3437C170.343 49.1654 170.251 48.9281 170.251 48.6813C170.251 48.4344 170.343 48.1971 170.507 48.0188C170.751 47.7576 172.887 49.5671 173.521 50.1198C174.154 50.6724 175.097 53.4283 175.166 53.6175C175.144 53.4358 174.776 50.4718 174.573 49.9002C174.369 49.3286 172.753 47.8712 172.716 47.3525C172.68 46.8339 172.749 46.974 172.887 46.8718C173.026 46.7696 175.868 48.5336 176.218 49.5671C176.567 50.6005 176.851 54.1096 178.005 55.9607C179.159 57.8118 187.887 71.273 189.252 71.5986C190.143 71.8143 195.122 72.4768 198.467 72.9121L201.547 73.2945Z" fill="url(#paint5_linear_61_593)"/>
<path opacity="0.54" d="M201.547 73.2944L199.13 80.9638C199.13 80.9638 195.807 79.8698 192.265 78.6925L198.453 72.9121L201.547 73.2944Z" fill="#C65252"/>
<path d="M227.68 127.824C226.868 129.214 199.53 134.222 199.472 131.962C199.472 131.962 199.454 131.526 199.436 130.788C199.37 128.301 199.257 122.373 199.523 117.74C199.712 114.39 200.102 111.717 200.851 111.524C202.941 110.983 222.016 106.459 223.243 108.564C223.971 109.775 225.583 115.518 226.686 120.431C227.05 122.142 227.389 123.747 227.582 125.034C227.8 126.473 227.862 127.521 227.68 127.824Z" fill="url(#paint6_linear_61_593)"/>
<path opacity="0.71" d="M199.534 117.74C199.723 114.39 200.113 111.717 200.862 111.524C202.952 110.983 222.027 106.459 223.254 108.564C223.982 109.775 225.594 115.518 226.697 120.431L217.78 121.866C217.78 121.866 216.542 123.585 215.843 123.884C215.104 124.094 214.323 124.094 213.583 123.884C213.408 123.774 206.304 124.641 204.386 124.398C203.243 124.258 201.103 120.681 199.534 117.74Z" fill="#381F3D"/>
<path d="M227.68 127.824C226.868 129.214 199.53 134.222 199.472 131.962C199.472 131.962 199.454 131.527 199.436 130.788L227.582 125.034C227.8 126.473 227.862 127.521 227.68 127.824Z" fill="url(#paint7_linear_61_593)"/>
<path d="M217.154 104.865C216.426 106.33 198.875 108.083 198.413 105.922C198.183 104.85 198.238 102.829 198.325 100.792C198.413 98.7556 198.529 96.6584 198.413 95.5152C198.413 95.4547 198.413 95.3903 198.384 95.326C198.067 93.543 195.81 90.5638 194.973 87.8231C194.706 87.0505 194.611 86.2245 194.697 85.408C195.159 82.1033 200.851 72.7834 201.547 72.4882C202.242 72.1929 205.132 71.9506 205.132 71.9506C205.132 71.9506 201.856 77.4547 205.132 77.5759C208.407 77.697 211.246 71.5645 213.044 71.9506C213.044 71.9506 216.429 72.4654 217.154 73.427C217.409 73.7639 217.241 76.2471 216.924 79.5632C216.331 85.7828 215.217 94.9209 215.37 98.184C215.6 103.192 217.9 103.397 217.154 104.865Z" fill="url(#paint8_linear_61_593)"/>
<path opacity="0.72" d="M217.154 104.865C216.426 106.33 198.875 108.083 198.413 105.922C198.183 104.85 198.238 102.829 198.325 100.792C204.204 99.1455 213.277 96.4578 213.277 95.5152C213.277 94.4591 203.283 95.0004 198.384 95.3259C198.067 93.543 195.81 90.5638 194.973 87.8231C199.985 88.0843 208.284 88.478 209.328 88.2244C210.839 87.8458 212.717 79.0446 212.717 79.0446L216.924 79.5632C216.331 85.7828 215.217 94.9209 215.37 98.184C215.6 103.192 217.9 103.397 217.154 104.865Z" fill="#B27966"/>
<path d="M216.448 73.1733C216.448 73.1733 211.65 75.7815 212.928 80.9639C214.206 86.1462 217.78 94.7089 217.157 96.0528C216.535 97.3966 204.393 100.399 201.954 101.133C200.368 101.648 198.733 101.981 197.077 102.125C195.916 102.234 194.405 102.602 194.165 103.151C193.925 103.699 192.655 108.287 192.946 108.564C193.237 108.84 192.946 109.207 193.237 108.84C193.528 108.473 194.282 105.475 194.456 105.108C194.631 104.74 195.676 103.824 195.676 103.824C195.676 103.824 194.631 105.717 194.748 106.209C194.864 106.701 195.839 109.207 195.839 109.207C195.839 109.207 196.535 109.207 196.476 108.829C196.418 108.45 195.665 106.319 195.607 106.016C195.548 105.713 196.36 104.79 196.36 104.79C196.36 104.79 196.302 106.137 196.651 106.811C196.979 107.329 197.392 107.784 197.87 108.155C197.87 108.155 198.395 107.667 198.162 107.421C197.843 107.097 197.605 106.698 197.466 106.258C197.408 105.88 197.637 105.403 197.83 105.524C198.023 105.645 199.749 106.872 200.618 106.872C201.488 106.872 203.115 104.301 204.043 104.18C204.972 104.059 213.117 103.169 216.448 102.113C219.778 101.057 221.642 100.489 222.104 100.489C222.566 100.489 224.197 99.755 224.197 99.3537C224.197 98.9524 219.632 72.4882 216.448 73.1733Z" fill="url(#paint9_linear_61_593)"/>
<path d="M224.819 119.057C223.6 120.405 210.26 122.729 205.98 122.604C201.699 122.479 199.355 111.524 199.355 111.524C199.323 111.388 199.643 111.214 200.236 111.013C204.469 109.582 222.551 106.849 223.243 106.936C223.716 107.004 224.626 110.85 225.019 114.215C225.281 116.475 225.31 118.516 224.819 119.057Z" fill="url(#paint10_linear_61_593)"/>
<path d="M224.819 119.057C223.6 120.405 210.26 122.729 205.98 122.604C201.699 122.479 199.355 111.524 199.355 111.524C199.323 111.388 199.643 111.214 200.236 111.013C202.351 113.122 208.069 118.618 210.085 118.542C211.647 118.482 219.421 116.036 225.008 114.216C225.281 116.475 225.31 118.516 224.819 119.057Z" fill="url(#paint11_linear_61_593)"/>
<path d="M215.01 123.308C215.804 123.308 216.448 122.629 216.448 121.79C216.448 120.952 215.804 120.272 215.01 120.272C214.216 120.272 213.572 120.952 213.572 121.79C213.572 122.629 214.216 123.308 215.01 123.308Z" fill="white"/>
<path d="M207.159 109.574L206.475 109.438L207.519 103.646L208.204 103.783L207.159 109.574Z" fill="#5D2168"/>
<path d="M215.137 108.091C214.647 105.866 214.028 103.674 213.285 101.527C212.291 98.7405 211.061 98.9563 211.046 98.9601L210.89 98.2446C210.963 98.2257 212.71 97.8206 213.936 101.273C214.691 103.451 215.32 105.675 215.818 107.932L215.137 108.091Z" fill="#5D2168"/>
<path d="M179.646 230.74C179.104 231.618 160.126 231.978 159.227 231.944C158.328 231.91 156.465 231.001 156.891 229.203C157.134 228.174 161.189 226.269 164.793 224.596C166.371 225.411 168.129 225.778 169.888 225.66C173.284 225.44 176.403 222.961 178.543 222.764C179.184 225.482 180.05 230.085 179.646 230.74Z" fill="#5D2168"/>
<path d="M78.3635 137.364C78.3635 137.364 71.9139 112.758 68.5872 113.076C65.2604 113.394 57.2421 119.462 58.0319 123.111C58.8218 126.761 76.8166 142.588 76.8166 142.588C76.8166 142.588 90.5675 114.48 92.5767 113.969C94.5858 113.458 107.47 119.326 105.21 123.585C102.95 127.843 85.9815 142.588 85.9815 142.588L78.3635 137.364Z" fill="#B27966"/>
<path d="M82.844 133.555C82.844 133.555 94.2109 117.956 101.585 120.715C108.959 123.475 114.477 127.344 111.642 131.209C108.806 135.073 91.4119 141.649 91.4119 141.649L87.9141 139.079C87.9141 139.079 105.618 136.489 105.214 131.019C104.81 125.549 100.049 128.309 95.8997 130.262C91.7504 132.215 86.0724 139.786 86.0724 139.786L82.844 133.555Z" fill="url(#paint12_linear_61_593)"/>
<path d="M76.0268 133.555C76.0268 133.555 64.6599 117.956 57.2858 120.715C49.9117 123.475 44.3938 127.344 47.2292 131.209C50.0645 135.073 67.4588 141.649 67.4588 141.649L70.9566 139.079C70.9566 139.079 53.2493 136.489 53.6533 131.019C54.0573 125.549 58.8217 128.309 62.9674 130.262C67.113 132.215 72.7947 139.786 72.7947 139.786L76.0268 133.555Z" fill="url(#paint13_linear_61_593)"/>
<path d="M84.0232 131.988H74.1013C72.6077 131.988 71.397 133.248 71.397 134.801V135.327C71.397 136.88 72.6077 138.14 74.1013 138.14H84.0232C85.5168 138.14 86.7275 136.88 86.7275 135.327V134.801C86.7275 133.248 85.5168 131.988 84.0232 131.988Z" fill="url(#paint14_linear_61_593)"/>
<path d="M118.946 139.079V144.215C118.946 145.73 117.964 146.933 116.763 146.933H42.3738C41.1581 146.933 40.1899 145.718 40.1899 144.215V139.079C40.1899 137.564 41.1727 136.364 42.3738 136.364H116.763C117.964 136.364 118.946 137.579 118.946 139.079Z" fill="#C5DD7A"/>
<path d="M67.1458 139.079V144.215C67.1458 145.73 66.1631 146.933 64.962 146.933H42.3738C41.1581 146.933 40.1899 145.718 40.1899 144.215V139.079C40.1899 137.564 41.1727 136.364 42.3738 136.364H64.962C66.1631 136.364 67.1458 137.579 67.1458 139.079Z" fill="url(#paint15_linear_61_593)"/>
<path d="M114.084 146.93H69.8501V225.308H114.084V146.93Z" fill="url(#paint16_linear_61_593)"/>
<path d="M69.8501 146.93H45.0308V225.308H69.8501V146.93Z" fill="#39725F"/>
<path d="M96.0416 136.364H87.5392V146.933H96.0416V136.364Z" fill="#DEEF97"/>
<path d="M95.23 146.933H86.7275V225.308H95.23V146.933Z" fill="#C5DD7A"/>
<path d="M51.0363 146.933H57.9445V136.364H51.0363V146.933Z" fill="#C5DD7A"/>
<path d="M51.6951 225.304H58.6033L58.6033 146.93H51.6951L51.6951 225.304Z" fill="url(#paint17_linear_61_593)"/>
<g opacity="0.35">
<path d="M114.084 146.93V151.37L69.8501 163.241L45.0308 169.9V146.93H114.084Z" fill="#2E2059"/>
</g>
<path d="M121.367 190.008C121.367 190.008 116.915 173.015 114.619 173.242C112.322 173.47 106.786 177.649 107.339 180.17C107.893 182.691 120.308 193.616 120.308 193.616C120.308 193.616 129.8 174.212 131.187 173.86C132.574 173.507 141.469 177.558 139.922 180.495C138.375 183.433 126.648 193.616 126.648 193.616L121.367 190.008Z" fill="#BFB4D6"/>
<path d="M124.461 187.389C124.461 187.389 132.304 176.619 137.396 178.527C142.488 180.435 146.295 183.1 144.337 185.769C142.379 188.437 130.375 192.961 130.375 192.961L127.958 191.186C127.958 191.186 140.181 189.399 139.9 185.625C139.62 181.851 136.337 183.732 133.473 185.087C130.608 186.442 126.685 191.663 126.685 191.663L124.461 187.389Z" fill="url(#paint18_linear_61_593)"/>
<path d="M119.754 187.389C119.754 187.389 111.907 176.619 106.815 178.527C101.723 180.435 97.916 183.1 99.8742 185.769C101.832 188.437 113.836 192.961 113.836 192.961L116.253 191.186C116.253 191.186 104.031 189.399 104.311 185.625C104.591 181.851 107.878 183.732 110.739 185.087C113.6 186.442 117.527 191.663 117.527 191.663L119.754 187.389Z" fill="url(#paint19_linear_61_593)"/>
<path d="M125.276 186.306H118.426C117.395 186.306 116.559 187.176 116.559 188.248V188.608C116.559 189.68 117.395 190.55 118.426 190.55H125.276C126.307 190.55 127.143 189.68 127.143 188.608V188.248C127.143 187.176 126.307 186.306 125.276 186.306Z" fill="url(#paint20_linear_61_593)"/>
<path d="M149.382 191.205V194.748C149.382 195.785 148.705 196.641 147.868 196.641H96.5294C95.6922 196.641 95.0116 195.804 95.0116 194.748V191.205C95.0116 190.167 95.6922 189.312 96.5294 189.312H147.882C148.705 189.327 149.382 190.167 149.382 191.205Z" fill="#B3E5D4"/>
<path d="M113.636 191.205V194.748C113.636 195.785 112.959 196.641 112.122 196.641H96.5294C95.6922 196.641 95.0116 195.804 95.0116 194.748V191.205C95.0116 190.167 95.6922 189.312 96.5294 189.312H112.122C112.945 189.327 113.636 190.167 113.636 191.205Z" fill="url(#paint21_linear_61_593)"/>
<path d="M146.026 196.622H115.489V224.354H146.026V196.622Z" fill="url(#paint22_linear_61_593)"/>
<path d="M115.489 196.622H98.3565V224.354H115.489V196.622Z" fill="#3D237C"/>
<path opacity="0.61" d="M133.571 189.327H127.7V196.622H133.571V189.327Z" fill="white"/>
<path d="M133.014 196.622H127.143V224.354H133.014V196.622Z" fill="#B3E5D4"/>
<path d="M102.502 196.625H107.27V189.331H102.502V196.625Z" fill="#B3E5D4"/>
<path d="M102.957 224.354H107.725V196.622H102.957V224.354Z" fill="url(#paint23_linear_61_593)"/>
<g opacity="0.46">
<path d="M146.026 196.622V199.688L115.489 207.883L98.3565 212.479V196.622H146.026Z" fill="#3D237C"/>
</g>
<path d="M96.4493 46.3835C94.149 46.3835 93.734 49.0712 93.694 50.9526C93.694 51.0369 93.7262 51.1178 93.7835 51.1774C93.8409 51.237 93.9187 51.2706 93.9997 51.2706C94.0808 51.2706 94.1586 51.237 94.2159 51.1774C94.2732 51.1178 94.3055 51.0369 94.3055 50.9526C94.3346 49.4384 94.5275 47.0308 96.4493 47.027C96.5313 47.027 96.61 46.9931 96.668 46.9328C96.726 46.8724 96.7586 46.7906 96.7586 46.7053C96.7586 46.6199 96.726 46.5381 96.668 46.4777C96.61 46.4174 96.5313 46.3835 96.4493 46.3835Z" fill="#5D2168"/>
<path d="M100.14 44.4983C100.693 43.6049 101.445 42.8633 102.332 42.3361C103.219 41.809 104.215 41.5118 105.236 41.4699C105.625 41.4699 105.629 40.8112 105.236 40.8302C104.109 40.8756 103.01 41.2037 102.031 41.7863C101.053 42.369 100.224 43.189 99.6159 44.1765C99.3975 44.521 99.9253 44.8466 100.144 44.5021L100.14 44.4983Z" fill="#5D2168"/>
<path d="M101.45 42.2384C101.531 41.446 101.895 40.714 102.469 40.1867C102.764 39.9103 102.331 39.4599 102.04 39.7324C101.352 40.3817 100.925 41.2763 100.842 42.2384C100.799 42.6472 101.41 42.6434 101.45 42.2384Z" fill="#5D2168"/>
<path d="M96.6931 53.4358C94.3418 57.649 93.097 65.0118 98.3856 67.3399C98.7496 67.4989 98.9061 66.8781 98.5494 66.7191C93.6794 64.5765 95.1135 57.5355 97.2209 53.7614C97.2624 53.6886 97.2744 53.6016 97.2543 53.5196C97.2341 53.4376 97.1835 53.3673 97.1135 53.3241C97.0435 53.281 96.9599 53.2685 96.8811 53.2894C96.8022 53.3104 96.7346 53.363 96.6931 53.4358Z" fill="#5D2168"/>
<path d="M101.447 42.6169C101.447 42.6169 102.331 41.3337 101.035 39.1191C99.7396 36.9046 94.8478 37.957 93.3264 41.6327C91.805 45.3084 93.1226 48.6775 96.533 47.6895C99.9434 46.7015 101.447 42.6169 101.447 42.6169Z" fill="#5D2168"/>
<path d="M97.9852 63.3841C97.9852 63.3841 94.0434 59.4699 94.007 54.9727C93.9706 50.4756 96.4456 42.1021 103.106 42.5298C109.767 42.9576 113.858 46.9172 114.026 51.8989C114.086 54.965 113.151 57.9627 111.372 60.4087L97.9852 63.3841Z" fill="#5D2168"/>
<path d="M110.863 64.2547C109.996 67.2036 106.768 67.8509 106.768 67.8509L106.164 72.9537C106.164 72.9537 116.952 78.9651 114.04 82.2168C111.128 85.4685 103.31 83.4925 101.352 80.8465C100.344 79.4799 91.4701 77.2465 97.1918 75.9026C98.9825 72.4124 100.468 66.8175 99.5612 66.1058C98.655 65.3941 97.7632 61.2945 97.7632 61.2945L97.6249 60.8061C97.6249 59.9582 94.7605 56.8579 95.7141 55.6087C96.6677 54.3595 98.5785 56.4604 98.5785 56.4604C99.2155 58.0579 99.0808 54.1096 99.2628 53.3601C99.4448 52.6106 100.216 53.4131 104.766 53.8636C109.316 54.314 111.409 53.8636 111.409 53.8636C111.409 53.8636 111.725 61.3058 110.863 64.2547Z" fill="url(#paint24_linear_61_593)"/>
<path d="M106.768 67.8547C105.523 68.0202 104.259 67.9523 103.037 67.6541C102.011 67.4011 101.068 66.8665 100.307 66.1058C100.307 66.1058 105.767 73.9986 105.993 73.6995C106.218 73.4005 106.768 67.8547 106.768 67.8547Z" fill="#B25D67"/>
<path d="M107.685 60.1399C107.909 60.6263 108.11 61.1241 108.286 61.6314C108.406 62.01 108.351 62.1235 108.02 62.3242C107.885 62.4074 107.732 62.4604 107.594 62.5399C107.365 62.68 107.572 63.0699 107.802 62.9185C108.246 62.6535 108.806 62.6421 108.773 61.9456C108.741 61.2491 108.293 60.5147 108.045 59.9014C107.936 59.6365 107.583 59.8674 107.681 60.1286L107.685 60.1399Z" fill="#B25D67"/>
<path d="M104.508 63.6529C104.952 64.8226 106.029 65.2125 107.11 65.1671C107.376 65.1671 107.376 64.709 107.11 64.7166C106.24 64.7431 105.29 64.497 104.904 63.5204C104.802 63.2554 104.409 63.3727 104.508 63.6377V63.6529Z" fill="#B25D67"/>
<path d="M105.745 59.0573C105.761 59.2409 105.707 59.4238 105.594 59.5657C105.48 59.7077 105.318 59.7971 105.141 59.8144C105.054 59.8058 104.969 59.7794 104.891 59.7367C104.814 59.694 104.745 59.6358 104.689 59.5655C104.634 59.4952 104.592 59.4141 104.566 59.3269C104.541 59.2396 104.532 59.148 104.54 59.0573C104.524 58.8742 104.578 58.6918 104.691 58.55C104.803 58.4082 104.965 58.3184 105.141 58.3002C105.318 58.3174 105.48 58.4068 105.594 58.5488C105.707 58.6907 105.761 58.8736 105.745 59.0573Z" fill="#5D2168"/>
<path d="M110.52 58.9588C110.537 59.1425 110.482 59.3254 110.369 59.4673C110.256 59.6093 110.093 59.6987 109.916 59.7159C109.74 59.6977 109.578 59.6079 109.466 59.4661C109.353 59.3243 109.299 59.1419 109.316 58.9588C109.299 58.7758 109.353 58.5934 109.466 58.4516C109.578 58.3098 109.74 58.22 109.916 58.2018C110.093 58.219 110.256 58.3084 110.369 58.4504C110.482 58.5923 110.537 58.7752 110.52 58.9588Z" fill="#5D2168"/>
<path d="M103.492 57.9102C103.709 57.5499 104.005 57.2487 104.357 57.0314C104.708 56.8141 105.104 56.6872 105.512 56.661C105.771 56.6232 105.774 56.1727 105.512 56.2106C104.562 56.3468 103.645 56.7368 103.139 57.6869C103.004 57.9368 103.357 58.1601 103.503 57.9102H103.492Z" fill="#5D2168"/>
<path d="M109.716 57.0169C110.134 57.1125 110.498 57.3766 110.728 57.7513C110.874 57.986 111.23 57.7513 111.092 57.5242C110.952 57.2896 110.769 57.0859 110.554 56.9248C110.338 56.7637 110.095 56.6484 109.836 56.5853C109.578 56.5248 109.472 56.9639 109.727 57.0169H109.716Z" fill="#5D2168"/>
<path opacity="0.6" d="M104.537 61.2945C104.537 61.6465 104.096 61.9304 103.558 61.9304C103.019 61.9304 102.579 61.6465 102.579 61.2945C102.579 60.9424 103.015 60.6585 103.558 60.6585C104.1 60.6585 104.537 60.9424 104.537 61.2945Z" fill="#F7576E"/>
<path opacity="0.6" d="M111.001 61.7601C111.001 62.0175 110.681 62.2257 110.273 62.2257C109.865 62.2257 109.545 62.0175 109.545 61.7601C109.545 61.5027 109.865 61.2945 110.273 61.2945C110.681 61.2945 111.001 61.5027 111.001 61.7601Z" fill="#F7576E"/>
<path d="M155.362 52.0314L119.987 62.7746L118.754 59.8598L120.41 58.1563L147.242 30.5829L152.468 44.3923L155.362 52.0314Z" fill="url(#paint25_linear_61_593)"/>
<path d="M155.362 52.0314L119.987 62.7898L118.754 59.8749L120.41 58.1715C121.866 58.6144 123.321 58.9513 123.853 58.7242C125.025 58.2131 146.317 49.639 145.928 49.2605C145.538 48.8819 145.706 36.9349 145.706 36.9349L152.468 44.3885L155.362 52.0314Z" fill="#B27966"/>
<path d="M128.413 60.897C128.413 60.897 130.037 66.0036 133.327 68.0894C136.617 70.1752 137.007 71.5569 138.233 71.4964C139.46 71.4358 144.308 66.6434 144.308 66.6434C144.308 66.6434 137.287 64.3077 134.215 62.2295C131.143 60.1513 130.412 58.7734 130.412 58.7734L128.413 60.897Z" fill="#774C40"/>
<path d="M154.084 78.0566C154.11 78.7645 151.941 78.5979 151.347 78.6774C150.754 78.7569 146.936 82.1865 147.617 82.4629C148.297 82.7392 150.55 81.2099 150.434 82.0048C150.362 82.4896 150.155 82.9417 149.838 83.3046C149.521 83.6675 149.107 83.9251 148.65 84.0452C147.558 84.3291 145.338 85.1354 145.338 85.1354C145.338 85.1354 133.145 97.3815 131.402 98.555C129.658 99.7285 126.339 100.743 126.339 100.743C125.689 100.745 125.04 100.672 124.406 100.523C124.349 100.501 124.293 100.474 124.239 100.444C123.78 100.149 114.073 96.1133 113.927 92.4566C113.782 88.7998 116.042 83.2313 117.895 84.155C117.895 84.155 119.714 86.4717 121.673 88.7581C123.54 90.9613 125.505 93.1379 126.004 93.1758C127.012 93.2477 139.798 85.6048 141.746 83.8787C143.693 82.1525 145.047 79.6427 145.964 78.4238C146.881 77.2049 148.563 74.3279 148.599 75.1796C148.636 76.0313 146.885 78.6623 146.743 78.878C146.914 78.6661 149.251 75.8497 150.041 75.8118C150.831 75.774 153.222 75.1986 153.247 75.8118C153.273 76.4251 150.285 76.338 149.924 76.6673C149.564 76.9966 148.235 79.2566 148.235 79.2566C148.235 79.2566 150.332 77.5266 151.224 77.4017C152.115 77.2768 154.055 77.3487 154.084 78.0566Z" fill="url(#paint26_linear_61_593)"/>
<path d="M124.406 100.512C124.349 100.489 124.293 100.463 124.239 100.433C123.78 100.137 114.073 96.102 113.927 92.4452C113.782 88.7884 116.042 83.22 117.895 84.1436C117.895 84.1436 119.714 86.4603 121.673 88.7468C120.69 91.7486 119.809 94.7165 120.002 95.1178C120.249 95.6326 122.604 98.4111 124.406 100.512Z" fill="#C65252"/>
<path d="M112.355 74.2105L120.814 83.6288L115.856 86.4187L112.355 74.2105Z" fill="white"/>
<path d="M136.141 233.178C135.158 234.794 115.325 234.881 113.174 233.405C111.656 232.356 112.81 228.673 113.563 225.774C113.876 224.581 114.127 223.502 114.098 222.832C114.004 220.481 113.585 197.091 114.604 187.767C115.623 178.444 117.367 173.5 117.367 173.5L112.657 162.336L108.187 151.737L121.214 133.245C121.214 133.245 124.126 144.083 126.746 154.005C128.861 162.022 130.779 169.442 130.805 170.07C130.859 171.482 130.059 173.856 129.52 175.313C128.981 176.771 123.027 207.191 122.47 215.7C121.913 224.21 121.986 226.095 122.899 226.527C123.289 226.709 125.949 227.663 128.792 228.798C132.588 230.358 136.701 232.254 136.141 233.178Z" fill="url(#paint27_linear_61_593)"/>
<path d="M126.739 154.02L112.65 162.348L108.18 151.749L121.207 133.256C121.207 133.256 124.133 144.091 126.739 154.02Z" fill="#C65252"/>
<path d="M106.357 147.384L104.675 162.333C104.009 168.227 103.376 173.825 103.263 174.745C103.012 176.801 97.3046 202.198 95.8741 211.218C95.7686 211.869 95.6667 212.502 95.5684 213.111C95.452 213.528 91.6885 226.932 91.6411 228.556C91.5938 230.18 91.7212 236.214 91.2044 237.297C90.6875 238.379 84.7912 236.403 83.5391 235.866C82.2871 235.328 82.3526 234.151 82.3999 232.5C82.4472 230.85 84.1652 229.003 84.8931 227.674C84.9875 227.486 85.0607 227.288 85.1115 227.083C85.7812 224.748 86.5674 217.699 86.662 216.972C86.662 216.935 86.662 216.912 86.662 216.912C87.5028 210.707 88.8167 193.998 89.3627 188.108C89.7502 183.98 90.6054 179.914 91.9105 175.995C92.0816 175.362 91.2808 166.841 91.1025 158.381C90.9787 152.475 91.1607 146.6 92.1944 143.451C94.7094 135.781 106.251 136.455 106.357 147.384Z" fill="url(#paint28_linear_61_593)"/>
<path d="M106.357 147.384L104.675 162.333C102.084 162.248 99.5143 161.811 97.0317 161.034C94.9947 160.312 93.0148 159.426 91.1098 158.385C90.9861 152.479 91.1681 146.604 92.2017 143.455C94.7095 135.781 106.251 136.455 106.357 147.384Z" fill="#C65252"/>
<path d="M126.972 149C126.608 150.159 123.023 152.472 120.646 153.543C119.744 153.944 119.016 154.156 118.695 154.061C117.538 153.683 114.724 149.034 115.056 150.299C115.387 151.563 115.558 155.625 115.558 155.625C115.558 155.625 112.209 156.628 111.634 156.045C111.059 155.462 107.885 118.872 108.642 118.383C109.399 117.895 116.566 113.667 116.566 113.667C116.566 113.667 117.443 116.369 118.684 120.287C121.84 130.171 127.343 147.857 126.972 149Z" fill="#5D2168"/>
<path opacity="0.71" d="M120.646 153.524C119.744 153.925 119.016 154.137 118.695 154.043C117.538 153.664 114.724 149.015 115.056 150.28C115.387 151.544 115.558 155.606 115.558 155.606C115.558 155.606 112.209 156.609 111.634 156.026C111.059 155.443 107.885 118.853 108.642 118.364C109.399 117.876 116.566 113.648 116.566 113.648C116.566 113.648 117.443 116.351 118.684 120.268C116.428 122.968 114.117 126.022 114.171 127.173C114.258 128.759 118.302 144.496 120.646 153.524Z" fill="#381F3D"/>
<path d="M113.207 117.096C113.207 117.096 113.767 131.004 113.232 141.702C112.905 148.266 113.378 152.301 113.359 154.573C113.359 154.879 113.359 155.159 113.323 155.409C113.236 156.325 112.985 156.836 112.406 157.044C110.914 157.578 103.598 158.812 100.315 158.112C99.4375 157.926 98.8588 157.601 98.735 157.09C98.6477 156.711 98.5712 156.276 98.5093 155.848C98.3783 154.947 98.2982 154.024 98.2509 153.251C98.1818 152.154 98.1781 151.359 98.1781 151.359C98.1781 151.359 97.3519 153.698 96.6604 155.208C96.351 155.89 96.0671 156.401 95.896 156.458C95.3501 156.632 90.8004 155.939 90.2872 154.217C89.774 152.494 92.0306 124.792 94.3528 119.095C95.0807 117.339 97.1263 116.146 99.6377 115.442C100.447 115.215 101.269 115.039 102.098 114.916C102.604 114.84 103.114 114.78 103.623 114.734C103.929 114.704 104.235 114.685 104.537 114.67C108.974 114.462 113.156 115.378 113.207 117.096Z" fill="#5D2168"/>
<path opacity="0.54" d="M103.998 117.138C103.998 117.138 101.115 133.794 100.471 143.326C100.173 148.26 100.121 153.206 100.315 158.146C99.4375 157.961 98.8588 157.635 98.735 157.124C98.4795 155.859 98.3177 154.576 98.2509 153.285C98.4948 146.85 101.774 117.392 101.774 117.392C101.883 116.392 101.993 115.59 102.098 114.954C102.604 114.878 103.114 114.817 103.623 114.772C103.856 115.908 103.998 117.138 103.998 117.138Z" fill="#9C6CA8"/>
<path opacity="0.3" d="M113.207 117.096C113.207 117.096 113.767 131.004 113.232 141.702C112.905 148.266 113.378 152.301 113.359 154.572C113.207 154.595 106.921 155.5 106.317 155.33C105.712 155.159 107.383 130.001 107.299 127.998C107.216 125.996 103.128 122.4 103.128 122.4C103.066 119.118 103.601 116.597 104.537 114.662C108.974 114.462 113.156 115.378 113.207 117.096Z" fill="#9C6CA8"/>
<path opacity="0.71" d="M95.3174 129.081C94.8224 134.937 93.0389 151.343 93.8615 152.93C94.2254 153.641 95.0553 154.527 96.6568 155.25C96.3474 155.931 96.0635 156.443 95.8924 156.499C95.3465 156.673 90.7968 155.981 90.2836 154.258C89.7704 152.536 92.027 124.834 94.3492 119.137C95.0771 117.38 97.1227 116.188 99.6341 115.484C98.9644 116.88 95.7578 123.846 95.3174 129.081Z" fill="#381F3D"/>
<path d="M115.423 100.523C115.565 104.309 117.352 114.639 117.567 115.665C117.782 116.691 115.925 119.633 113.316 120.503C111.601 121.075 106.833 121.518 103.729 121.525C102.102 121.525 100.93 121.412 100.904 121.147C100.824 120.325 100.518 118.345 100.518 118.345C100.518 118.345 99.1136 121.219 98.7787 121.256C98.4438 121.294 93.0607 121.397 93.1116 118.433C93.2401 116.633 93.4575 114.841 93.7631 113.065C94.3564 109.06 95.1499 103.821 95.219 99.5089C95.219 99.1304 95.219 98.7518 95.219 98.4149C95.1317 92.9184 92.7295 87.8156 91.9833 83.9316C91.8674 83.3657 91.7956 82.791 91.7686 82.213C91.7522 81.8529 91.7656 81.492 91.8086 81.1342C91.8086 81.1342 95.8487 74.7367 96.3583 74.6005C96.8678 74.4642 105.166 78.155 107.765 78.6661C110.364 79.1771 110.47 77.1897 108.992 75.8875C107.514 74.5853 105.938 72.9424 105.938 72.9424C105.938 72.9424 111.372 73.3702 112.355 74.2181C112.894 74.6837 114.881 78.0982 116.613 81.5127C118.022 84.2875 119.263 87.0623 119.42 88.2661C119.529 89.0913 119.183 90.208 118.652 91.4723C117.582 94.0238 115.762 97.1505 115.463 99.6792C115.427 99.959 115.414 100.241 115.423 100.523Z" fill="url(#paint29_linear_61_593)"/>
<path d="M117.567 115.68C117.778 116.725 115.925 119.648 113.316 120.518C111.601 121.09 106.833 121.533 103.729 121.54L113.192 115.442C113.192 115.442 112.555 102.25 111.831 101.383C111.256 100.694 99.9361 99.8345 95.2118 99.49C95.2118 99.1114 95.2118 98.7329 95.2118 98.396C95.2118 98.396 112.22 98.8427 113.083 98.2749C113.945 97.707 103.882 95.1216 100.253 93.5998C97.2063 92.3241 93.1881 85.9342 91.976 83.9127C91.7467 83.5342 91.6121 83.2995 91.6121 83.2995C91.5456 83.1173 91.5241 82.9206 91.5495 82.7275C91.5749 82.5344 91.6465 82.3511 91.7577 82.1941C93.6212 79.4913 107.256 80.4717 116.602 81.4938C118.011 84.2686 119.252 87.0433 119.409 88.2471C119.773 90.9272 115.274 96.738 115.405 100.512C115.536 104.286 117.352 114.651 117.567 115.68Z" fill="url(#paint30_linear_61_593)"/>
<path d="M118.652 91.4648C117.582 94.0162 115.762 97.143 115.463 99.6717C111.824 100.372 100.577 102.628 98.4621 104.044C95.9689 105.71 93.8323 112.834 93.7632 113.057C94.3564 109.052 95.1499 103.813 95.2191 99.5013C95.2191 99.1228 95.2191 98.7442 95.2191 98.4073C95.1317 92.9108 92.7295 87.808 91.9833 83.9241C91.9833 83.9241 96.7368 91.442 101.847 91.6843C105.629 91.8622 114.4 91.6086 118.652 91.4648Z" fill="url(#paint31_linear_61_593)"/>
<path d="M135.98 62.7102C136.02 63.1569 136.05 63.4673 136.05 63.4673C136.05 63.4673 134.466 63.9329 133.363 64.2774C132.261 64.6219 131.969 64.5008 131.431 65.5304C130.892 66.5601 129.924 66.8137 129.72 67.6579C129.516 68.502 128.683 75.9859 128.006 80.6913C127.329 85.3966 126.692 85.461 126.444 86.5323C126.197 87.6035 124.726 88.5878 124.341 88.6294C123.955 88.6711 122.215 88.2509 121.232 88.3645C120.81 88.4099 118.579 88.5386 116.169 88.6711C112.97 88.849 109.454 89.0496 109.454 89.0496C109.454 89.0496 105.247 80.0175 109.29 79.2831C109.29 79.2831 110.939 79.3588 113.01 79.4383C116.322 79.5632 120.704 79.6881 121.083 79.5102C121.691 79.2187 122.441 75.2553 123.951 71.8068C125.109 68.9996 125.92 66.0512 126.364 63.032C126.579 61.5897 126.284 60.7229 126.728 60.3822C127.172 60.0415 131.489 58.3002 131.995 58.3948C132.319 58.4554 132.279 58.955 132.206 59.3071C132.182 59.4237 132.152 59.5388 132.115 59.6516C132.317 59.6351 132.521 59.6635 132.712 59.7349C132.904 59.8052 133.062 59.9486 133.156 60.1361L133.422 60.7039C133.558 60.6907 133.696 60.6907 133.833 60.7039C134.052 60.7075 134.266 60.7687 134.455 60.8819C134.542 60.9379 134.614 61.0145 134.667 61.1053C134.719 61.1961 134.75 61.2985 134.757 61.4043L134.834 62.1614V62.2749C135.129 62.286 135.421 62.3487 135.696 62.4604C135.76 62.4744 135.819 62.5046 135.869 62.5482C135.918 62.5918 135.957 62.6475 135.98 62.7102Z" fill="url(#paint32_linear_61_593)"/>
<path opacity="0.62" d="M116.184 88.6559C112.985 88.8338 109.469 89.0345 109.469 89.0345C109.469 89.0345 105.261 80.0023 109.305 79.2679C109.305 79.2679 110.954 79.3436 113.025 79.4231L116.184 88.6559Z" fill="#C65252"/>
<path d="M110.506 87.6565C110.248 89.6818 109.964 91.4117 109.811 91.9682C109.392 93.5051 108.198 92.1423 104.475 91.0446C100.751 89.9468 94.7313 87.0887 92.9333 85.3398C91.6121 84.0528 91.8414 82.0427 92.5147 80.2711C92.7607 79.6524 93.0579 79.0571 93.4029 78.4919C94.6294 76.4894 105.68 77.8446 105.68 77.8446C105.68 77.8446 109.683 78.2231 110.684 79.0219C111.325 79.5291 110.961 84.0565 110.506 87.6565Z" fill="url(#paint33_linear_61_593)"/>
<path opacity="0.51" d="M110.506 87.6565C110.248 89.6818 109.964 91.4117 109.811 91.9682C109.392 93.5051 108.198 92.1424 104.475 91.0446C100.751 89.9468 94.7313 87.0887 92.9333 85.3399C91.6121 84.0528 91.8414 82.0427 92.5147 80.2711C93.0097 82.054 93.876 84.0831 95.3865 85.0749C97.8542 86.695 107.143 87.437 110.506 87.6565Z" fill="url(#paint34_linear_61_593)"/>
<path d="M130.557 62.4903L130.655 62.3847C130.621 62.4178 130.588 62.4531 130.557 62.4903Z" fill="#C65252"/>
<path d="M131.143 60.1664L128.959 61.1317C129.968 60.3634 131.069 59.7371 132.235 59.2693C132.212 59.3859 132.181 59.5009 132.144 59.6137C132.347 59.5972 132.55 59.6256 132.741 59.697C132.193 59.7904 131.657 59.9478 131.143 60.1664Z" fill="#C65252"/>
<path d="M134.481 60.8251C132.159 61.1014 131.034 62.0062 130.663 62.3734C131.078 61.9343 132.304 60.7305 133.44 60.6661H133.851C134.071 60.6626 134.287 60.7173 134.481 60.8251Z" fill="#C65252"/>
<path d="M135.733 62.4112C134.385 62.5324 133.053 62.8066 131.762 63.2289C131.813 63.1872 132.49 62.6951 134.215 62.2408C134.427 62.1841 134.642 62.1411 134.859 62.1122V62.2257C135.159 62.2355 135.454 62.2982 135.733 62.4112Z" fill="#C65252"/>
<path d="M91.6521 228.594C91.6048 230.248 91.7322 236.252 91.2154 237.334C90.6985 238.417 84.8021 236.441 83.5501 235.904C82.298 235.366 82.3635 234.189 82.4108 232.538C82.4581 230.888 84.1761 229.04 84.9041 227.712C84.9984 227.524 85.0717 227.326 85.1224 227.121C85.3769 227.957 85.4121 228.848 85.2243 229.703C84.9331 231.247 86.1088 232.731 88.1361 232.992C90.1634 233.254 90.7422 228.143 91.6521 228.594Z" fill="#5D2168"/>
<path d="M136.141 233.178C135.158 234.794 115.325 234.881 113.174 233.405C111.656 232.357 112.81 228.673 113.563 225.774C114.706 225.751 116.428 225.986 117.567 227.394C119.427 229.665 123.048 230.702 124.846 230.736C125.938 230.736 127.613 229.68 128.785 228.817C132.588 230.358 136.701 232.254 136.141 233.178Z" fill="#5D2168"/>
<path d="M155.308 55.6589C158.067 54.662 158.65 48.8996 156.609 42.7883C154.567 36.677 150.676 32.5309 147.916 33.5279C145.157 34.5248 144.574 40.2872 146.616 46.3985C148.657 52.5098 152.548 56.6559 155.308 55.6589Z" fill="#774C40"/>
<path d="M155.493 52.0049C154.999 52.1803 154.468 52.2066 153.961 52.0806C154.925 49.6542 154.776 45.5885 153.367 41.3602C151.7 36.3558 148.785 32.6838 146.277 32.1122C146.699 31.0523 147.329 30.3066 148.163 29.9961C150.903 28.9816 154.761 33.0889 156.785 39.1684C158.809 45.2478 158.245 50.9942 155.493 52.0049Z" fill="#B27966"/>
<path d="M152.447 28.6258L157.728 0L170.642 9.05865L152.447 28.6258Z" fill="url(#paint35_linear_61_593)"/>
<path d="M154.507 32.5438L180.291 17.4359L185.561 27.952L154.507 32.5438Z" fill="url(#paint36_linear_61_593)"/>
<path d="M159.042 37.6125L179.774 34.7166L179.977 54.0453L159.042 37.6125Z" fill="url(#paint37_linear_61_593)"/>
<g opacity="0.73">
<path d="M79.3535 225.308H45.0308V188.407C47.4366 187.76 49.6823 187.181 51.6951 186.673C54.5559 185.954 56.9327 185.379 58.6106 184.985C60.2885 184.591 61.2567 184.376 61.2567 184.376L69.8574 203.822L79.3535 225.308Z" fill="#2E2059"/>
</g>
<path d="M63.4696 182.964C63.4077 180.851 61.1475 179.477 59.1493 180.314L49.0235 184.659C48.418 184.909 47.907 185.357 47.5676 185.935C45.6604 189.255 38.4683 201.194 31.0578 205.476C25.8275 208.504 20.7828 210.999 17.6162 212.494C17.2222 212.661 16.8708 212.92 16.5895 213.252C16.3083 213.584 16.105 213.979 15.9956 214.407C15.8862 214.834 15.8738 215.282 15.9592 215.716C16.0446 216.149 16.2256 216.556 16.4879 216.904L27.8366 231.936C28.3359 232.568 29.0398 232.988 29.816 233.118C30.5921 233.247 31.3871 233.078 32.0514 232.64C37.2235 229.233 49.2383 220.958 55.6915 214.016L63.2512 205.881C63.5074 205.609 63.709 205.287 63.844 204.934C63.979 204.58 64.0447 204.202 64.0374 203.822L63.4696 182.964ZM57.4713 188.6C56.8787 188.623 56.3018 188.4 55.8671 187.98C55.4325 187.561 55.1755 186.979 55.1528 186.363C55.1755 185.747 55.4325 185.165 55.8671 184.746C56.3018 184.326 56.8787 184.103 57.4713 184.126C58.0632 184.104 58.6393 184.328 59.0732 184.747C59.507 185.166 59.7635 185.747 59.7862 186.363C59.7635 186.978 59.507 187.56 59.0732 187.979C58.6393 188.398 58.0632 188.622 57.4713 188.6Z" fill="#7966AD"/>
<path d="M61.6206 182.964C61.5624 180.851 59.2985 179.477 57.3039 180.336L47.1746 184.682C46.5703 184.934 46.0599 185.381 45.7187 185.958C44.2628 188.513 39.6403 196.179 34.2244 201.52C32.7176 203.057 31.0328 204.394 29.2088 205.499C25.0741 207.895 21.0485 209.958 17.9839 211.453C17.1722 211.832 16.4297 212.21 15.7673 212.517C15.3733 212.683 15.0218 212.943 14.7406 213.275C14.4593 213.607 14.256 214.002 14.1467 214.43C14.0373 214.857 14.0248 215.305 14.1103 215.738C14.1957 216.172 14.3767 216.579 14.639 216.927L15.1849 217.646L25.9876 231.959C26.4876 232.591 27.1921 233.011 27.9689 233.141C28.7457 233.27 29.5412 233.101 30.2061 232.663C30.8358 232.243 31.5638 231.758 32.39 231.21C38.2135 227.25 48.1901 220.141 53.8644 214.039L61.4241 205.9C61.6799 205.629 61.881 205.307 62.0154 204.954C62.1498 204.601 62.2148 204.224 62.2066 203.844L61.6206 182.964ZM55.6224 188.6C55.0304 188.622 54.4545 188.398 54.0206 187.979C53.5867 187.56 53.3303 186.979 53.3075 186.363C53.3303 185.747 53.5867 185.166 54.0206 184.747C54.4545 184.328 55.0304 184.104 55.6224 184.126C56.2147 184.104 56.7911 184.328 57.2255 184.747C57.66 185.166 57.9172 185.747 57.9409 186.363C57.9172 186.979 57.66 187.56 57.2255 187.979C56.7911 188.398 56.2147 188.622 55.6224 188.6Z" fill="url(#paint38_linear_61_593)"/>
<path d="M58.0028 184.818C57.8899 183.096 58.0646 181.559 59.4077 180.276C60.2303 179.492 61.1693 178.868 61.9155 178.005C63.2213 176.527 64.0829 174.685 64.3941 172.705C64.6515 170.755 64.2471 168.773 63.2506 167.1C62.254 165.428 60.7277 164.169 58.9345 163.54C56.5541 162.711 54.0172 163.211 51.6551 163.783C48.7055 164.523 45.6769 164.868 42.6431 164.808C40.765 164.767 39.4037 164.252 38.8723 162.39C38.5006 160.901 38.6718 159.322 39.3528 157.957C40.5721 155.307 43.109 153.687 45.7551 152.551C46.4029 152.271 45.8424 151.351 45.1945 151.627C40.987 153.433 36.8232 157.105 37.664 162.003C37.9624 163.752 38.8614 165.225 40.7177 165.694C43.1017 166.296 46.2355 165.971 48.6232 165.566C51.9244 165.005 55.4914 163.34 58.8144 164.646C60.1282 165.168 61.2633 166.085 62.0758 167.279C62.8883 168.473 63.3418 169.891 63.3787 171.354C63.4187 174.484 61.6498 177.032 59.2803 178.974C57.3076 180.601 56.7325 182.335 56.8963 184.815C56.94 185.5 58.0501 185.504 57.9882 184.815L58.0028 184.818Z" fill="#5D2168"/>
<path d="M34.239 201.516L32.3864 231.206C31.5783 231.755 30.8504 232.239 30.2025 232.659C29.5376 233.097 28.742 233.267 27.9653 233.137C27.1885 233.007 26.484 232.587 25.9841 231.955L15.1813 217.642L17.9803 211.449C21.0449 209.935 25.0705 207.891 29.2052 205.495C31.0356 204.391 32.7266 203.055 34.239 201.516Z" fill="#BFB4D6"/>
<path d="M45.4894 116.218C41.4857 112.054 44.7615 108.848 47.888 105.763C51.2584 102.454 54.4395 99.3272 49.4713 95.0458C39.1417 86.1424 46.4503 77.4736 46.5267 77.3866L47.2547 77.909C46.9635 78.2459 40.2737 86.2105 49.999 94.5954C55.6042 99.4294 52.0373 102.923 48.5868 106.33C45.5113 109.359 42.6067 112.202 46.0972 115.855L45.4894 116.218Z" fill="#3D237C"/>
<path d="M54.0974 69.3727C52.4304 74.5891 49.333 80.3014 44.3538 86.2711C44.3538 86.2711 20.4663 66.9235 32.3791 48.5866C35.0652 44.4491 38.4902 42.4882 41.8824 42.299C50.687 41.7917 59.2658 53.1974 54.0974 69.3727Z" fill="url(#paint39_linear_61_593)"/>
<path opacity="0.54" d="M54.0974 69.3727C48.2956 72.3027 40.099 67.8774 38.1335 58.5349C36.765 52.0201 39.1053 46.3797 41.8824 42.299C50.6869 41.7917 59.2658 53.1974 54.0974 69.3727Z" fill="#B3E5D4"/>
<path d="M69.548 86.8919C67.4806 83.697 69.3842 81.7285 71.2259 79.8206C73.1987 77.7803 75.0622 75.8497 72.4634 72.5109C67.0548 65.5721 71.3715 60.1059 71.4298 60.0491L71.8192 60.4693C71.6481 60.6775 67.6808 65.7046 72.7728 72.2383C75.7064 76.0049 73.6172 78.1664 71.5972 80.2598C69.7773 82.126 68.0921 83.8862 69.8974 86.6761L69.548 86.8919Z" fill="#3D237C"/>
<path d="M73.3625 60.897C72.3533 62.7074 71.2055 64.4303 69.9302 66.049C69.9302 66.049 57.3877 50.8579 64.5871 39.0359C65.0432 38.266 65.5966 37.5632 66.2323 36.9463C72.9294 30.6132 82.4436 44.4604 73.3625 60.897Z" fill="url(#paint40_linear_61_593)"/>
<path opacity="0.43" d="M73.3624 60.897C69.0821 56.6951 66.1776 48.5185 66.1776 39.1191C66.1776 38.3885 66.1958 37.6655 66.2322 36.9463C72.9293 30.6132 82.4436 44.4604 73.3624 60.897Z" fill="url(#paint41_linear_61_593)"/>
<path d="M286.542 74.7708C285.905 77.943 282.174 79.8547 282.174 79.8547C282.174 79.8547 281.082 84.4579 277.875 82.7657C274.669 81.0736 265.711 70.4024 265.711 70.4024C265.052 70.1754 264.415 69.8812 263.811 69.5241C262.567 68.7935 261.125 67.5822 260.856 65.8181C260.365 62.6156 262.465 62.5399 262.465 62.5399C262.465 62.5399 261.518 57.0358 265.377 54.7078C269.235 52.3797 272.394 56.222 272.394 56.222C272.394 56.222 276.743 52.4365 280.7 55.0863C284.656 57.7362 281.886 61.6541 281.792 61.7715C281.981 61.7715 285.431 61.7071 286.687 64.6787C287.068 65.5029 287.171 66.4361 286.98 67.3286C286.789 68.2211 286.316 69.021 285.635 69.5998C285.635 69.5998 287.175 71.5986 286.542 74.7708Z" fill="#2F2F4F"/>
<path d="M278.672 79.3323C278.672 79.3323 278.556 80.2976 278.414 81.8042C278.272 83.3108 277.996 87.5619 277.996 87.5619L278.276 93.6187C278.276 93.6187 272.816 95.5606 269.868 93.5316C266.92 91.5026 270.418 86.7973 270.418 86.7973L271.004 84.9726L272.037 81.7399H272.019C271.779 81.7701 269.264 82.0011 266.359 79.4686C263.302 76.8187 267.087 64.7885 267.087 64.7885C268.095 65.5872 269.304 63.5506 269.304 63.5506C269.622 64.1094 270.014 64.6191 270.469 65.0648C271.218 65.7954 273.457 66.3519 273.457 66.3519C273.674 66.7534 273.926 67.1335 274.21 67.4875C274.843 68.3392 277.85 69.1342 277.85 69.1342L277.959 70.1071C278.068 71.0762 277.348 74.4263 277.348 74.4263C277.662 74.5649 277.985 74.6788 278.316 74.767C278.789 74.8844 278.578 75.032 278.956 73.6844C279.335 72.3367 280.667 71.4131 281.541 72.8326C282.414 74.2522 282.101 77.1973 281.541 78.3973C280.98 79.5973 278.672 79.3323 278.672 79.3323Z" fill="url(#paint42_linear_61_593)"/>
<path d="M279.244 76.9474C279.477 76.743 279.572 77.466 279.637 77.5758C279.731 77.737 279.883 77.8528 280.059 77.8976C280.246 77.9219 280.435 77.8827 280.598 77.7858C280.762 77.6889 280.891 77.5395 280.966 77.36C281.406 76.478 281.33 75.0888 280.441 74.6118C280.139 74.4452 279.881 74.9563 280.187 75.1228C280.674 75.3916 280.733 75.9746 280.653 76.5083C280.631 76.7084 280.579 76.9038 280.5 77.0875C280.336 77.4093 280.187 77.3941 280.048 77.0496C280.056 76.9817 280.056 76.9132 280.048 76.8452C279.87 76.3342 279.422 76.0881 278.978 76.4667C278.713 76.6976 278.978 77.1897 279.255 76.955L279.244 76.9474Z" fill="#C65252"/>
<path d="M274.083 72.5563C273.999 72.9348 273.719 73.215 273.486 73.1544C273.253 73.0938 273.122 72.7266 273.195 72.3367C273.267 71.9468 273.559 71.6781 273.792 71.7386C274.025 71.7992 274.166 72.1664 274.083 72.5563Z" fill="#2F2F4F"/>
<path d="M267.67 71.8938C267.586 72.2724 267.306 72.5525 267.073 72.4919C266.84 72.4313 266.709 72.0641 266.781 71.6742C266.854 71.2843 267.145 71.0156 267.378 71.0762C267.611 71.1367 267.753 71.4963 267.67 71.8938Z" fill="#2F2F4F"/>
<path d="M269.246 75.2818C269.14 75.2562 269.036 75.2207 268.936 75.1758C268.858 75.1471 268.787 75.1005 268.729 75.0395C268.664 74.961 268.617 74.8677 268.593 74.7671C268.569 74.6665 268.568 74.5614 268.59 74.4604C268.634 74.1248 268.777 73.8114 268.998 73.5632C269.068 73.4885 269.143 73.4177 269.22 73.3512C269.289 73.2869 269.355 73.2301 269.413 73.1657C269.605 72.9496 269.719 72.6717 269.737 72.3784C269.737 72.3533 269.742 72.3286 269.751 72.3056C269.761 72.2826 269.774 72.2618 269.792 72.2444C269.809 72.2271 269.83 72.2136 269.852 72.2047C269.875 72.1959 269.899 72.1919 269.923 72.1929C269.97 72.1977 270.014 72.2218 270.045 72.2601C270.076 72.2984 270.09 72.3476 270.086 72.3973C270.065 72.7834 269.916 73.1499 269.664 73.4345C269.594 73.5092 269.52 73.58 269.442 73.6465C269.373 73.7108 269.307 73.7714 269.249 73.8358C269.083 74.0243 268.975 74.2603 268.94 74.5134C268.929 74.5554 268.927 74.5992 268.933 74.6422C268.939 74.6852 268.954 74.7264 268.976 74.7632C269.003 74.7863 269.034 74.8042 269.067 74.8162C269.349 74.9378 269.657 74.9784 269.959 74.9336C269.982 74.9304 270.006 74.9321 270.028 74.9387C270.051 74.9452 270.072 74.9564 270.09 74.9716C270.109 74.9868 270.124 75.0056 270.135 75.0271C270.146 75.0485 270.153 75.0721 270.156 75.0963C270.163 75.1459 270.152 75.1966 270.124 75.2376C270.096 75.2786 270.054 75.3067 270.006 75.3159C269.753 75.3539 269.495 75.3423 269.246 75.2818Z" fill="#913030"/>
<path d="M266.356 69.4598C266.919 69.2829 267.524 69.326 268.059 69.5809C268.292 69.6907 268.485 69.3083 268.248 69.2023C267.62 68.8948 266.904 68.8395 266.239 69.0472C266.186 69.0632 266.141 69.1005 266.115 69.1509C266.088 69.2013 266.082 69.2607 266.097 69.3159C266.113 69.3711 266.149 69.4177 266.197 69.4454C266.246 69.4731 266.303 69.4796 266.356 69.4635V69.4598Z" fill="#2F2F4F"/>
<path d="M272.838 69.6036L272.856 69.5393L272.722 69.6982C273.359 69.437 274.287 69.8989 274.803 70.2661C275.018 70.4175 275.208 70.0351 274.993 69.8875C274.523 69.5453 273.979 69.3282 273.409 69.2553C273.107 69.2175 272.569 69.1039 272.449 69.5128C272.369 69.7777 272.758 69.8913 272.838 69.6074V69.6036Z" fill="#2F2F4F"/>
<path d="M268.452 76.9248C268.452 76.9248 268.769 78.1967 269.613 78.473C270.458 78.7493 271.269 77.9393 271.393 77.6554C271.517 77.3714 271.662 77.1595 271.561 77.1519C271.459 77.1443 270.407 77.3109 269.682 77.0345C268.958 76.7582 268.368 76.3267 268.452 76.9248Z" fill="#913030"/>
<path d="M276.063 80.0932C275.983 80.2219 273.464 84.2307 271.997 84.685L271.004 84.9916L272.037 81.7588C272.649 81.6977 273.256 81.6004 273.857 81.4673C274.909 81.2478 275.994 80.1613 276.063 80.0932Z" fill="#913030"/>
<path d="M281.814 61.7639C282.465 58.4894 281.45 56.2484 278.44 55.779C275.429 55.3096 272.947 58.1828 272.947 58.1828C272.947 58.1828 272.405 56.1992 268.216 55.9645C264.026 55.7298 263.735 62.8806 263.735 62.8806C263.735 62.8806 261.937 63.2591 261.799 64.8112C261.66 66.3632 263.761 69.4257 263.826 69.5203C262.581 68.7897 261.14 67.5784 260.871 65.8143C260.379 62.6118 262.479 62.5361 262.479 62.5361C262.479 62.5361 261.533 57.032 265.391 54.704C269.249 52.3759 272.409 56.2182 272.409 56.2182C272.409 56.2182 276.758 52.4327 280.714 55.0825C284.671 57.7323 281.894 61.6541 281.814 61.7639Z" fill="#5C508C"/>
<path d="M270.53 96.5033C270.53 96.5033 257.267 117.066 255.371 118.732C253.475 120.397 232.805 128.737 232.805 128.737C232.805 128.737 231.986 126.844 231.076 124.66C229.944 121.961 228.67 118.857 228.67 118.546C228.67 117.99 246.588 110.952 248.485 110.165C249.762 109.631 256.543 99.1304 260.816 92.3733C262.872 89.1178 264.347 86.7253 264.347 86.7253L270.53 96.5033Z" fill="url(#paint43_linear_61_593)"/>
<path opacity="0.64" d="M270.53 96.5033C270.53 96.5033 257.267 117.066 255.371 118.732C253.475 120.397 232.805 128.737 232.805 128.737C232.805 128.737 231.986 126.844 231.076 124.66C237.875 121.495 256.776 112.614 257.282 111.323C257.733 110.139 259.83 98.1991 260.83 92.3619C262.887 89.1064 264.361 86.714 264.361 86.714L270.53 96.5033Z" fill="url(#paint44_linear_61_593)"/>
<path d="M241.809 218.21C241.809 218.21 241.271 222.984 241.653 224.99C241.881 226.203 241.845 227.454 241.547 228.651C241.547 228.651 244.736 228.681 246.417 228.836C248.099 228.991 250.654 229.309 250.708 228.651C250.763 227.992 249.922 218.21 249.922 218.21H241.809Z" fill="url(#paint45_linear_61_593)"/>
<path d="M251.833 235.086C251.713 235.983 233.22 235.514 233.22 235.514C233.22 235.514 227.341 235.987 226.206 235.199C226.049 235.088 225.923 234.935 225.84 234.758C225.757 234.58 225.72 234.382 225.733 234.185C225.754 233.178 226.726 231.914 228.408 231.652C230.781 231.304 234.275 230.138 236.008 228.836C237.74 227.534 239.312 226.47 240.819 226.781C242.326 227.091 245.788 227.538 247.895 226.928C250.002 226.319 251.054 225.743 251.458 227.261C251.742 228.325 251.873 231.312 251.884 233.318C251.897 233.908 251.88 234.498 251.833 235.086Z" fill="#2F2F4F"/>
<path d="M251.833 235.086C251.713 235.983 233.22 235.514 233.22 235.514C233.22 235.514 227.341 235.987 226.206 235.199C226.049 235.088 225.923 234.935 225.84 234.758C225.757 234.58 225.72 234.382 225.733 234.185C227.353 234.421 228.989 234.517 230.624 234.473C234.129 234.344 239.928 233.693 244.27 233.867C247.433 233.996 250.272 233.761 251.884 233.307C251.897 233.9 251.88 234.494 251.833 235.086Z" fill="#9EA8DB"/>
<path d="M232.965 229.729C232.601 229.695 232.543 230.373 232.91 230.407C233.594 230.471 234.071 231.081 234.501 231.645C234.748 231.967 235.189 231.524 234.945 231.202C234.406 230.505 233.809 229.813 232.965 229.729Z" fill="#9EA8DB"/>
<path d="M234.533 229.328C234.17 229.328 234.111 230.025 234.479 230.006C234.837 229.985 235.193 230.072 235.505 230.255C235.817 230.438 236.072 230.71 236.241 231.039C236.448 231.418 236.888 230.952 236.685 230.596C236.472 230.201 236.159 229.873 235.779 229.649C235.4 229.426 234.969 229.315 234.533 229.328Z" fill="#9EA8DB"/>
<path d="M239.254 228.7C239.191 228.517 239.075 228.359 238.923 228.247C238.771 228.134 238.589 228.073 238.403 228.071C238.107 228.022 237.818 227.938 237.54 227.821L237.438 227.784L237.369 227.821L237.22 227.901C237.151 227.791 237.066 227.693 236.968 227.61C236.637 227.373 236.241 227.255 235.84 227.273C235.718 227.251 235.592 227.258 235.473 227.293C235.353 227.327 235.243 227.389 235.149 227.473C235.04 227.61 234.975 227.778 234.963 227.954C234.951 228.13 234.991 228.306 235.079 228.457C235.153 228.579 235.254 228.68 235.374 228.75C235.494 228.821 235.629 228.859 235.767 228.862C236.003 228.863 236.237 228.816 236.455 228.722C236.659 228.643 236.867 228.56 237.067 228.465C237.129 228.613 237.183 228.775 237.241 228.942C237.3 229.109 237.322 229.18 237.365 229.298C237.41 229.427 237.478 229.547 237.565 229.65C237.666 229.752 237.792 229.824 237.929 229.858C238.015 229.883 238.103 229.899 238.191 229.907C238.418 229.934 238.646 229.883 238.843 229.763C239.009 229.653 239.138 229.491 239.212 229.3C239.286 229.109 239.301 228.9 239.254 228.7ZM236.342 228.291C236.166 228.365 235.979 228.406 235.789 228.412C235.711 228.41 235.634 228.39 235.564 228.351C235.495 228.313 235.435 228.259 235.389 228.192C235.354 228.136 235.335 228.07 235.335 228.003C235.335 227.936 235.354 227.87 235.389 227.814C235.449 227.773 235.516 227.744 235.586 227.73C235.657 227.715 235.73 227.716 235.8 227.731H236.022C236.275 227.735 236.521 227.818 236.728 227.969C236.765 228 236.799 228.034 236.83 228.071C236.681 228.158 236.513 228.215 236.346 228.291H236.342ZM238.668 229.366C238.571 229.419 238.464 229.45 238.355 229.459C238.246 229.469 238.135 229.455 238.031 229.419C237.953 229.403 237.881 229.367 237.82 229.313C237.771 229.252 237.733 229.181 237.711 229.105C237.667 228.995 237.631 228.881 237.591 228.768C237.551 228.654 237.482 228.442 237.42 228.287H237.453C237.747 228.408 238.053 228.493 238.366 228.541C238.474 228.537 238.581 228.566 238.674 228.624C238.766 228.683 238.84 228.768 238.887 228.87C238.898 228.963 238.884 229.058 238.846 229.143C238.808 229.228 238.747 229.3 238.672 229.351L238.668 229.366Z" fill="#9EA8DB"/>
<path d="M277.424 150.412C277.424 150.412 257.267 177.289 256.75 178.175C256.234 179.061 252.27 219.698 251.582 221.738C250.894 223.779 238.479 222.117 237.281 221.738C237.158 221.7 237.103 221.193 237.103 220.307C237.103 212.358 241.536 173.678 242.621 169.677C243.829 165.232 260.558 130.758 260.558 130.758L261.427 131.769L277.424 150.412Z" fill="#2F2F4F"/>
<path d="M277.424 150.412C277.424 150.412 257.267 177.289 256.75 178.175C256.234 179.061 252.27 219.698 251.582 221.738C250.894 223.779 238.479 222.117 237.281 221.738C237.158 221.7 237.103 221.193 237.103 220.307C240.251 219.043 244.597 217.093 245.034 215.806C245.722 213.77 248.652 193.207 248.958 186.692C249.263 180.177 249.515 177.83 248.998 175.237C248.481 172.644 253.304 169.124 254.683 165.982C256.062 162.84 261.427 131.769 261.427 131.769L277.424 150.412Z" fill="#17172B"/>
<path d="M313.163 179.443C313.163 179.443 317.166 177.55 318.986 176.952C320.806 176.354 322.262 175.786 322.262 175.786C322.262 175.786 321.982 172.379 321.967 170.559C321.953 168.738 321.996 165.974 321.381 165.982C320.766 165.99 311.79 167.829 311.79 167.829L313.163 179.443Z" fill="url(#paint46_linear_61_593)"/>
<path d="M327.227 164.157C328.071 164.199 329.41 184.039 329.41 184.039C329.41 184.039 330.415 190.288 329.796 191.576C329.713 191.751 329.586 191.9 329.428 192.007C329.271 192.114 329.089 192.176 328.901 192.185C327.969 192.253 326.688 191.337 326.298 189.562C325.749 187.056 324.348 183.425 322.961 181.699C321.574 179.973 320.453 178.391 320.599 176.748C320.744 175.105 320.81 171.357 320.053 169.177C319.296 166.996 318.651 165.91 320.016 165.331C320.973 164.926 323.729 164.498 325.574 164.294C326.122 164.218 326.674 164.172 327.227 164.157Z" fill="#2F2F4F"/>
<path d="M327.227 164.157C328.071 164.199 329.41 184.039 329.41 184.039C329.41 184.039 330.415 190.288 329.796 191.576C329.713 191.751 329.586 191.9 329.428 192.007C329.271 192.114 329.089 192.176 328.901 192.185C328.964 190.427 328.896 188.667 328.697 186.919C328.242 183.179 327.081 177.036 326.826 172.372C326.641 168.965 326.149 165.936 325.574 164.275C326.123 164.205 326.674 164.166 327.227 164.157Z" fill="#9EA8DB"/>
<path d="M324.089 184.871C324.098 184.952 324.134 185.027 324.192 185.081C324.25 185.136 324.326 185.166 324.404 185.166C324.482 185.166 324.557 185.136 324.616 185.081C324.674 185.027 324.71 184.952 324.719 184.871C324.719 184.114 325.232 183.566 325.712 183.047C325.985 182.755 325.538 182.324 325.261 182.619C324.664 183.255 324.078 183.959 324.089 184.871Z" fill="#9EA8DB"/>
<path d="M323.561 183.229C323.616 183.607 324.249 183.607 324.195 183.229C324.14 182.855 324.184 182.473 324.323 182.123C324.461 181.774 324.689 181.47 324.981 181.245C325.294 180.988 324.843 180.56 324.533 180.813C324.182 181.092 323.907 181.462 323.736 181.886C323.566 182.31 323.505 182.773 323.561 183.229Z" fill="#9EA8DB"/>
<path d="M322.524 178.247C322.358 178.339 322.221 178.48 322.132 178.652C322.044 178.825 322.006 179.021 322.025 179.216C322.009 179.536 321.96 179.853 321.88 180.162L321.854 180.276L321.894 180.344L321.982 180.495C321.887 180.584 321.805 180.686 321.738 180.798C321.551 181.18 321.48 181.612 321.534 182.036C321.526 182.168 321.544 182.299 321.587 182.423C321.63 182.547 321.698 182.66 321.785 182.755C321.917 182.862 322.08 182.919 322.247 182.915C322.414 182.912 322.575 182.849 322.702 182.736C322.807 182.644 322.889 182.527 322.943 182.396C322.997 182.264 323.02 182.122 323.012 181.979C322.992 181.727 322.925 181.482 322.815 181.256C322.724 181.044 322.626 180.832 322.52 180.628C322.651 180.545 322.793 180.473 322.943 180.397C323.092 180.321 323.157 180.287 323.259 180.227C323.378 180.168 323.483 180.085 323.569 179.981C323.656 179.856 323.71 179.71 323.725 179.557C323.739 179.463 323.747 179.368 323.747 179.273C323.75 179.03 323.682 178.792 323.55 178.591C323.439 178.425 323.279 178.301 323.093 178.239C322.908 178.176 322.708 178.179 322.524 178.247ZM322.426 181.396C322.514 181.578 322.571 181.774 322.593 181.976C322.601 182.059 322.589 182.143 322.56 182.221C322.531 182.299 322.485 182.37 322.426 182.426C322.376 182.471 322.314 182.498 322.248 182.503C322.182 182.508 322.117 182.49 322.062 182.453C321.975 182.326 321.935 182.172 321.949 182.017C321.949 181.941 321.949 181.862 321.949 181.779C321.932 181.517 321.985 181.255 322.102 181.022C322.128 180.979 322.157 180.938 322.189 180.901C322.273 181.044 322.353 181.215 322.426 181.389V181.396ZM323.201 178.803C323.319 179.007 323.358 179.249 323.31 179.481C323.302 179.566 323.274 179.648 323.23 179.719C323.177 179.775 323.116 179.821 323.048 179.856L322.75 180.015C322.604 180.087 322.458 180.162 322.32 180.246L322.298 180.208C322.381 179.881 322.431 179.546 322.448 179.208C322.448 178.993 322.506 178.705 322.702 178.618C322.793 178.59 322.89 178.592 322.979 178.624C323.068 178.656 323.146 178.716 323.201 178.796V178.803Z" fill="#9EA8DB"/>
<path d="M313.865 176.782C313.865 177.808 313.865 178.769 313.865 179.583C313.865 180.639 313.836 181.449 313.836 181.813C313.836 183.618 272.874 186.953 271.979 186.677C271.084 186.401 266.811 185.163 265.002 181.377C263.193 177.592 261.384 129.967 261.384 129.967L272.576 130.724L273.344 130.777L287.637 131.761C287.637 131.761 287.557 132.477 287.422 133.714C286.658 140.797 284.03 164.911 283.477 168.579C282.833 172.887 311.386 167.065 312.81 167.19C313.661 167.273 313.865 171.865 313.901 175.896L313.865 176.782Z" fill="#2F2F4F"/>
<path d="M313.865 176.782C301.162 177.918 278.531 179.901 273.726 179.901C273.435 179.916 273.143 179.897 272.856 179.844C272.398 179.666 271.706 179.394 272.066 153.948C272.201 144.367 272.43 134.733 272.55 130.758L273.318 130.811C272.802 149.822 272.379 176.827 273.206 179.072C275.106 179.299 296.347 177.524 313.865 175.945V176.782Z" fill="#5C508C"/>
<g opacity="0.51">
<path d="M313.847 179.583C313.847 180.639 313.818 181.449 313.818 181.813C313.818 183.618 272.856 186.953 271.961 186.677C271.065 186.401 266.792 185.163 264.983 181.377C263.175 177.592 261.366 129.967 261.366 129.967L272.558 130.724L273.326 130.777L287.619 131.761C287.619 131.761 287.539 132.477 287.404 133.714C285.949 135.332 284.323 136.774 282.556 138.011C277.257 141.486 267.954 139.264 267.826 143.152C267.699 147.039 270.01 178.735 271.444 181.086C272.634 183.107 303.994 180.465 313.847 179.583Z" fill="#5C508C"/>
</g>
<path d="M242.363 57.1342C242.363 57.1342 238.486 53.6175 237.798 51.3008C237.11 48.9841 237.194 48.8933 238.228 49.5406C239.262 50.1879 241.416 52.5008 241.846 51.8989C242.275 51.297 240.455 46.0201 239.858 44.4453C239.262 42.8705 235.989 40.2813 236.677 39.8157C237.365 39.3501 239.09 40.6485 240.124 41.5759C241.243 42.6645 242.124 43.9903 242.708 45.4636C243.138 46.6674 242.708 44.9071 242.708 44.9071C242.708 44.9071 240.987 41.5759 240.383 40.7431C239.778 39.9103 238.745 38.9829 239.003 38.9829C239.487 38.8789 239.99 38.9099 240.459 39.0728C240.928 39.2356 241.347 39.5246 241.675 39.9103C242.796 41.2087 245.464 45.21 245.809 47.0422C246.155 48.8743 245.809 51.6756 246.326 53.5267C246.843 55.3778 247.531 57.138 247.531 57.138C247.531 57.138 245.205 60.1399 242.363 57.1342Z" fill="url(#paint47_linear_61_593)"/>
<path d="M288.998 131.795C288.383 132.931 285.22 133.408 281.257 133.555C276.121 133.745 269.635 133.4 265.624 133.321C258.519 133.185 260.972 129.85 260.972 127.643C260.972 125.436 263.04 115.968 263.298 108.189C263.557 100.41 262.523 89.7083 262.523 89.7083L289.002 86.7291C289.002 86.7291 288.31 91.514 287.681 97.09C287.098 102.287 286.563 108.174 286.687 111.524C286.942 118.455 290.411 129.153 288.998 131.795Z" fill="url(#paint48_linear_61_593)"/>
<path opacity="0.64" d="M265.751 112.202C265.235 114.147 263.036 129.85 263.036 129.85L281.235 133.555C276.099 133.745 269.613 133.4 265.602 133.321C258.497 133.185 260.951 129.85 260.951 127.643C260.951 125.436 263.018 115.968 263.276 108.189C263.535 100.41 262.501 89.7083 262.501 89.7083L288.98 86.7291C288.98 86.7291 288.289 91.514 287.659 97.09C283.561 100.217 279.208 103.446 276.07 105.551C268.205 110.812 266.268 110.26 265.751 112.202Z" fill="url(#paint49_linear_61_593)"/>
<path d="M287.979 93.4521C286.687 96.6509 258.519 91.3701 256.062 89.1481C253.606 86.926 239.265 60.2459 239.396 58.3002C239.433 57.7513 240.066 57.0245 240.976 56.2598C243.141 54.5637 245.469 53.106 247.924 51.9103C248.699 51.6302 260.456 78.0301 261.755 79.143C263.054 80.256 285.413 84.2837 285.413 84.2837C286.301 84.4159 287.15 84.7535 287.896 85.2717C290.378 87.1493 289.02 90.8629 287.979 93.4521Z" fill="url(#paint50_linear_61_593)"/>
<path opacity="0.45" d="M287.979 93.4521C286.687 96.6509 258.519 91.3701 256.062 89.148C253.606 86.926 239.265 60.2459 239.396 58.3002C239.433 57.7513 240.066 57.0245 240.976 56.2598C246.224 66.1891 256.965 86.2635 258.519 87.2023C260.587 88.4515 287.073 90.2572 287.59 88.8679C287.891 87.6966 287.988 86.4787 287.877 85.2717C290.378 87.1493 289.02 90.8629 287.979 93.4521Z" fill="url(#paint51_linear_61_593)"/>
<path d="M229.016 119.633C229.016 119.633 224.779 120.193 224.004 121.234C223.228 122.275 222.843 124.845 223.276 125.368C223.709 125.89 228.579 126.723 228.997 126.234C229.416 125.746 230.089 122.335 230.089 122.335L229.016 119.633Z" fill="url(#paint52_linear_61_593)"/>
<path d="M104.216 257C123.196 257 138.583 255.497 138.583 253.642C138.583 251.788 123.196 250.285 104.216 250.285C85.2364 250.285 69.8501 251.788 69.8501 253.642C69.8501 255.497 85.2364 257 104.216 257Z" fill="#EAE7E4"/>
<path d="M216.735 257C253.933 257 284.088 255.695 284.088 254.085C284.088 252.475 253.933 251.17 216.735 251.17C179.537 251.17 149.382 252.475 149.382 254.085C149.382 255.695 179.537 257 216.735 257Z" fill="#EAE7E4"/>
<path d="M315.641 249.736C315.641 250.527 311.736 251.17 306.906 251.17C302.076 251.17 298.171 250.527 298.171 249.736C298.171 248.945 302.076 248.301 306.906 248.301C311.736 248.301 315.641 248.941 315.641 249.736Z" fill="#EAE7E4"/>
<path d="M51.677 249.736C51.677 250.527 47.7715 251.17 42.9416 251.17C38.1117 251.17 34.2062 250.527 34.2062 249.736C34.2062 248.945 38.108 248.301 42.9416 248.301C47.7752 248.301 51.677 248.941 51.677 249.736Z" fill="#EAE7E4"/>
<path d="M79.2188 107.727C80.9817 107.727 82.4108 106.22 82.4108 104.362C82.4108 102.503 80.9817 100.997 79.2188 100.997C77.4559 100.997 76.0267 102.503 76.0267 104.362C76.0267 106.22 77.4559 107.727 79.2188 107.727Z" fill="#EAE7E4"/>
<path d="M29.0524 158.49C29.0524 159.093 28.8223 159.671 28.4128 160.097C28.0032 160.522 27.4477 160.762 26.8685 160.762C26.2893 160.762 25.7339 160.522 25.3243 160.097C24.9148 159.671 24.6847 159.093 24.6847 158.49C24.6847 157.888 24.9148 157.31 25.3243 156.884C25.7339 156.458 26.2893 156.219 26.8685 156.219C27.4477 156.219 28.0032 156.458 28.4128 156.884C28.8223 157.31 29.0524 157.888 29.0524 158.49Z" fill="#EAE7E4"/>
<path d="M26.0459 177.251C27.9717 177.251 29.5328 175.606 29.5328 173.576C29.5328 171.546 27.9717 169.9 26.0459 169.9C24.1202 169.9 22.5591 171.546 22.5591 173.576C22.5591 175.606 24.1202 177.251 26.0459 177.251Z" fill="#EAE7E4"/>
<path d="M134.659 114.155C134.66 114.299 134.634 114.441 134.582 114.574C134.53 114.707 134.453 114.828 134.356 114.931C134.259 115.033 134.144 115.114 134.017 115.17C133.889 115.226 133.753 115.256 133.615 115.256C133.477 115.256 133.34 115.226 133.213 115.17C133.086 115.114 132.971 115.033 132.874 114.93C132.778 114.828 132.701 114.707 132.65 114.574C132.598 114.441 132.572 114.298 132.574 114.155C132.573 114.012 132.599 113.87 132.651 113.737C132.702 113.604 132.779 113.484 132.876 113.382C132.972 113.28 133.087 113.199 133.214 113.143C133.341 113.087 133.477 113.058 133.615 113.057C133.753 113.058 133.889 113.086 134.016 113.142C134.144 113.197 134.259 113.278 134.356 113.38C134.453 113.482 134.53 113.603 134.582 113.736C134.634 113.869 134.66 114.011 134.659 114.155Z" fill="#EAE7E4"/>
<path d="M139.409 130.758C141.439 130.758 143.085 129.023 143.085 126.882C143.085 124.741 141.439 123.005 139.409 123.005C137.379 123.005 135.733 124.741 135.733 126.882C135.733 129.023 137.379 130.758 139.409 130.758Z" fill="#EAE7E4"/>
<path d="M165.651 127.817C167.296 127.817 168.629 126.412 168.629 124.679C168.629 122.945 167.296 121.54 165.651 121.54C164.007 121.54 162.674 122.945 162.674 124.679C162.674 126.412 164.007 127.817 165.651 127.817Z" fill="#EAE7E4"/>
<path d="M245.402 174.435C246.361 174.435 247.138 173.616 247.138 172.607C247.138 171.597 246.361 170.778 245.402 170.778C244.443 170.778 243.666 171.597 243.666 172.607C243.666 173.616 244.443 174.435 245.402 174.435Z" fill="#EAE7E4"/>
<path d="M239.818 194.471C241.943 194.471 243.666 192.656 243.666 190.417C243.666 188.178 241.943 186.363 239.818 186.363C237.694 186.363 235.971 188.178 235.971 190.417C235.971 192.656 237.694 194.471 239.818 194.471Z" fill="#EAE7E4"/>
<path d="M159.333 199.862C160.746 199.862 161.892 198.655 161.892 197.167C161.892 195.678 160.746 194.471 159.333 194.471C157.92 194.471 156.774 195.678 156.774 197.167C156.774 198.655 157.92 199.862 159.333 199.862Z" fill="#EAE7E4"/>
<path d="M229.805 22.6485C231.281 22.6485 232.477 21.3876 232.477 19.8321C232.477 18.2767 231.281 17.0157 229.805 17.0157C228.33 17.0157 227.134 18.2767 227.134 19.8321C227.134 21.3876 228.33 22.6485 229.805 22.6485Z" fill="#EAE7E4"/>
<path d="M236.532 30.2535C236.533 30.5039 236.438 30.7444 236.269 30.9225C236.1 31.1006 235.87 31.2017 235.629 31.2037C235.388 31.2017 235.158 31.1006 234.989 30.9225C234.82 30.7444 234.725 30.5039 234.726 30.2535C234.725 30.1293 234.748 30.006 234.793 29.8908C234.838 29.7756 234.904 29.6707 234.988 29.5821C235.072 29.4936 235.171 29.423 235.281 29.3745C235.391 29.3261 235.509 29.3006 235.629 29.2996C235.748 29.3006 235.867 29.3261 235.977 29.3745C236.087 29.423 236.186 29.4936 236.27 29.5821C236.354 29.6707 236.42 29.7756 236.465 29.8908C236.51 30.006 236.533 30.1293 236.532 30.2535Z" fill="#EAE7E4"/>
<path d="M239.731 13.7678C240.398 13.7678 240.939 13.1983 240.939 12.4959C240.939 11.7934 240.398 11.2239 239.731 11.2239C239.064 11.2239 238.523 11.7934 238.523 12.4959C238.523 13.1983 239.064 13.7678 239.731 13.7678Z" fill="#EAE7E4"/>
<path d="M308.82 204.071C308.824 204.744 308.571 205.392 308.117 205.871C307.662 206.35 307.043 206.622 306.396 206.627C306.076 206.625 305.758 206.557 305.463 206.428C305.167 206.298 304.899 206.109 304.674 205.872C304.448 205.635 304.27 205.354 304.149 205.045C304.028 204.736 303.967 204.405 303.969 204.071C303.967 203.738 304.028 203.407 304.149 203.098C304.27 202.789 304.448 202.508 304.674 202.271C304.899 202.034 305.167 201.845 305.463 201.715C305.758 201.586 306.076 201.518 306.396 201.516C307.043 201.521 307.662 201.793 308.117 202.272C308.571 202.751 308.824 203.398 308.82 204.071Z" fill="#EAE7E4"/>
<path d="M268.172 138.745C268.174 139.038 268.12 139.328 268.015 139.598C267.909 139.869 267.753 140.116 267.555 140.324C267.358 140.532 267.123 140.698 266.864 140.811C266.605 140.925 266.327 140.984 266.046 140.986C265.765 140.984 265.487 140.925 265.228 140.811C264.969 140.698 264.735 140.532 264.537 140.324C264.34 140.116 264.184 139.869 264.078 139.598C263.972 139.328 263.919 139.038 263.921 138.745C263.918 138.156 264.14 137.589 264.539 137.169C264.937 136.75 265.479 136.512 266.046 136.508C266.327 136.51 266.605 136.569 266.864 136.682C267.123 136.795 267.358 136.961 267.555 137.168C267.753 137.376 267.909 137.622 268.015 137.893C268.12 138.164 268.174 138.453 268.172 138.745Z" fill="#EAE7E4"/>
</g>
<defs>
<linearGradient id="paint0_linear_61_593" x1="166.281" y1="214.315" x2="216.142" y2="214.315" gradientUnits="userSpaceOnUse">
<stop stop-color="#A1CC77"/>
<stop offset="1" stop-color="#63887E"/>
</linearGradient>
<linearGradient id="paint1_linear_61_593" x1="281.839" y1="199.642" x2="283.685" y2="233.81" gradientUnits="userSpaceOnUse">
<stop stop-color="#A1CC77"/>
<stop offset="1" stop-color="#63887E"/>
</linearGradient>
<linearGradient id="paint2_linear_61_593" x1="198.715" y1="68.8276" x2="212.833" y2="68.8276" gradientUnits="userSpaceOnUse">
<stop stop-color="#FFD3B6"/>
<stop offset="1" stop-color="#F48E76"/>
</linearGradient>
<linearGradient id="paint3_linear_61_593" x1="215.843" y1="153.823" x2="281.02" y2="153.823" gradientUnits="userSpaceOnUse">
<stop stop-color="#FFD3B6"/>
<stop offset="1" stop-color="#F48E76"/>
</linearGradient>
<linearGradient id="paint4_linear_61_593" x1="156.829" y1="179.443" x2="204.997" y2="179.443" gradientUnits="userSpaceOnUse">
<stop stop-color="#FFD3B6"/>
<stop offset="1" stop-color="#F48E76"/>
</linearGradient>
<linearGradient id="paint5_linear_61_593" x1="170.256" y1="63.9065" x2="201.547" y2="63.9065" gradientUnits="userSpaceOnUse">
<stop stop-color="#FFD3B6"/>
<stop offset="1" stop-color="#F48E76"/>
</linearGradient>
<linearGradient id="paint6_linear_61_593" x1="199.355" y1="120.276" x2="227.789" y2="120.276" gradientUnits="userSpaceOnUse">
<stop stop-color="#F48DA1"/>
<stop offset="1" stop-color="#A14586"/>
</linearGradient>
<linearGradient id="paint7_linear_61_593" x1="199.436" y1="128.786" x2="227.789" y2="128.786" gradientUnits="userSpaceOnUse">
<stop stop-color="#E3D7AB"/>
<stop offset="1" stop-color="#DDAB97"/>
</linearGradient>
<linearGradient id="paint8_linear_61_593" x1="194.657" y1="89.432" x2="217.303" y2="89.432" gradientUnits="userSpaceOnUse">
<stop stop-color="#E3D7AB"/>
<stop offset="1" stop-color="#DDAB97"/>
</linearGradient>
<linearGradient id="paint9_linear_61_593" x1="195.839" y1="73.9796" x2="220.716" y2="116.163" gradientUnits="userSpaceOnUse">
<stop stop-color="#FFD3B6"/>
<stop offset="1" stop-color="#F48E76"/>
</linearGradient>
<linearGradient id="paint10_linear_61_593" x1="199.352" y1="114.772" x2="225.205" y2="114.772" gradientUnits="userSpaceOnUse">
<stop stop-color="#F48DA1"/>
<stop offset="1" stop-color="#A14586"/>
</linearGradient>
<linearGradient id="paint11_linear_61_593" x1="199.352" y1="116.812" x2="225.205" y2="116.812" gradientUnits="userSpaceOnUse">
<stop stop-color="#9C7C9C"/>
<stop offset="1" stop-color="#6A456D"/>
</linearGradient>
<linearGradient id="paint12_linear_61_593" x1="82.844" y1="131.019" x2="112.399" y2="131.019" gradientUnits="userSpaceOnUse">
<stop stop-color="#DDAB97"/>
<stop offset="1" stop-color="#E3D7AB"/>
</linearGradient>
<linearGradient id="paint13_linear_61_593" x1="46.4721" y1="131.019" x2="76.0268" y2="131.019" gradientUnits="userSpaceOnUse">
<stop stop-color="#E3D7AB"/>
<stop offset="1" stop-color="#DDAB97"/>
</linearGradient>
<linearGradient id="paint14_linear_61_593" x1="71.397" y1="135.062" x2="86.7275" y2="135.062" gradientUnits="userSpaceOnUse">
<stop stop-color="#E3D7AB"/>
<stop offset="1" stop-color="#DDAB97"/>
</linearGradient>
<linearGradient id="paint15_linear_61_593" x1="40.1645" y1="141.649" x2="67.1458" y2="141.649" gradientUnits="userSpaceOnUse">
<stop stop-color="#A1CC77"/>
<stop offset="1" stop-color="#63887E"/>
</linearGradient>
<linearGradient id="paint16_linear_61_593" x1="91.9688" y1="146.93" x2="91.9688" y2="225.308" gradientUnits="userSpaceOnUse">
<stop stop-color="#A1CC77"/>
<stop offset="1" stop-color="#63887E"/>
</linearGradient>
<linearGradient id="paint17_linear_61_593" x1="55.1528" y1="146.933" x2="55.1528" y2="225.304" gradientUnits="userSpaceOnUse">
<stop stop-color="#A1CC77"/>
<stop offset="1" stop-color="#63887E"/>
</linearGradient>
<linearGradient id="paint18_linear_61_593" x1="124.461" y1="185.64" x2="144.861" y2="185.64" gradientUnits="userSpaceOnUse">
<stop offset="0.05" stop-color="white"/>
<stop offset="1" stop-color="#CFBBEA"/>
</linearGradient>
<linearGradient id="paint19_linear_61_593" x1="99.3501" y1="185.64" x2="119.754" y2="185.64" gradientUnits="userSpaceOnUse">
<stop offset="0.05" stop-color="white"/>
<stop offset="1" stop-color="#CFBBEA"/>
</linearGradient>
<linearGradient id="paint20_linear_61_593" x1="116.559" y1="188.43" x2="127.143" y2="188.43" gradientUnits="userSpaceOnUse">
<stop offset="0.05" stop-color="white"/>
<stop offset="1" stop-color="#CFBBEA"/>
</linearGradient>
<linearGradient id="paint21_linear_61_593" x1="94.997" y1="192.976" x2="113.622" y2="192.976" gradientUnits="userSpaceOnUse">
<stop stop-color="#ABD7C7"/>
<stop offset="1" stop-color="#5E83BA"/>
</linearGradient>
<linearGradient id="paint22_linear_61_593" x1="130.757" y1="196.622" x2="130.757" y2="224.354" gradientUnits="userSpaceOnUse">
<stop stop-color="#ABD7C7"/>
<stop offset="1" stop-color="#5E83BA"/>
</linearGradient>
<linearGradient id="paint23_linear_61_593" x1="105.341" y1="196.622" x2="105.341" y2="224.354" gradientUnits="userSpaceOnUse">
<stop stop-color="#ABD7C7"/>
<stop offset="1" stop-color="#5E83BA"/>
</linearGradient>
<linearGradient id="paint24_linear_61_593" x1="104.912" y1="53.0535" x2="104.912" y2="83.9089" gradientUnits="userSpaceOnUse">
<stop stop-color="#FFD3B6"/>
<stop offset="1" stop-color="#F48E76"/>
</linearGradient>
<linearGradient id="paint25_linear_61_593" x1="118.754" y1="46.6787" x2="155.362" y2="46.6787" gradientUnits="userSpaceOnUse">
<stop stop-color="#E3D7AB"/>
<stop offset="1" stop-color="#DDAB97"/>
</linearGradient>
<linearGradient id="paint26_linear_61_593" x1="113.924" y1="87.8723" x2="154.084" y2="87.8723" gradientUnits="userSpaceOnUse">
<stop stop-color="#F48E76"/>
<stop offset="1" stop-color="#FFD3B6"/>
</linearGradient>
<linearGradient id="paint27_linear_61_593" x1="108.187" y1="183.853" x2="136.192" y2="183.853" gradientUnits="userSpaceOnUse">
<stop stop-color="#F48E76"/>
<stop offset="1" stop-color="#FFD3B6"/>
</linearGradient>
<linearGradient id="paint28_linear_61_593" x1="82.3926" y1="187.987" x2="106.371" y2="187.987" gradientUnits="userSpaceOnUse">
<stop stop-color="#F48E76"/>
<stop offset="1" stop-color="#FFD3B6"/>
</linearGradient>
<linearGradient id="paint29_linear_61_593" x1="91.7613" y1="97.2376" x2="119.441" y2="97.2376" gradientUnits="userSpaceOnUse">
<stop stop-color="#F48DA1"/>
<stop offset="1" stop-color="#A14586"/>
</linearGradient>
<linearGradient id="paint30_linear_61_593" x1="91.5538" y1="101" x2="119.441" y2="101" gradientUnits="userSpaceOnUse">
<stop stop-color="#9C7C9C"/>
<stop offset="1" stop-color="#6A456D"/>
</linearGradient>
<linearGradient id="paint31_linear_61_593" x1="91.9833" y1="98.4906" x2="118.652" y2="98.4906" gradientUnits="userSpaceOnUse">
<stop stop-color="#9C7C9C"/>
<stop offset="1" stop-color="#6A456D"/>
</linearGradient>
<linearGradient id="paint32_linear_61_593" x1="107.536" y1="73.6843" x2="136.05" y2="73.6843" gradientUnits="userSpaceOnUse">
<stop stop-color="#F48E76"/>
<stop offset="1" stop-color="#FFD3B6"/>
</linearGradient>
<linearGradient id="paint33_linear_61_593" x1="91.9651" y1="85.0256" x2="111.03" y2="85.0256" gradientUnits="userSpaceOnUse">
<stop stop-color="#F48DA1"/>
<stop offset="1" stop-color="#A14586"/>
</linearGradient>
<linearGradient id="paint34_linear_61_593" x1="91.9651" y1="86.4641" x2="110.506" y2="86.4641" gradientUnits="userSpaceOnUse">
<stop stop-color="#9C7C9C"/>
<stop offset="1" stop-color="#6A456D"/>
</linearGradient>
<linearGradient id="paint35_linear_61_593" x1="148.111" y1="17.1294" x2="170.5" y2="8.71017" gradientUnits="userSpaceOnUse">
<stop stop-color="#E3D7AB"/>
<stop offset="1" stop-color="#DDAB97"/>
</linearGradient>
<linearGradient id="paint36_linear_61_593" x1="154.507" y1="24.9879" x2="185.561" y2="24.9879" gradientUnits="userSpaceOnUse">
<stop stop-color="#E3D7AB"/>
<stop offset="1" stop-color="#DDAB97"/>
</linearGradient>
<linearGradient id="paint37_linear_61_593" x1="162.05" y1="48.1348" x2="181.976" y2="42.4305" gradientUnits="userSpaceOnUse">
<stop stop-color="#E3D7AB"/>
<stop offset="1" stop-color="#DDAB97"/>
</linearGradient>
<linearGradient id="paint38_linear_61_593" x1="5.04466" y1="135.002" x2="57.8611" y2="230.439" gradientUnits="userSpaceOnUse">
<stop offset="0.05" stop-color="white"/>
<stop offset="1" stop-color="#CFBBEA"/>
</linearGradient>
<linearGradient id="paint39_linear_61_593" x1="33.653" y1="30.9842" x2="51.5317" y2="85.2041" gradientUnits="userSpaceOnUse">
<stop stop-color="#ABD7C7"/>
<stop offset="1" stop-color="#5E83BA"/>
</linearGradient>
<linearGradient id="paint40_linear_61_593" x1="71.135" y1="30.1135" x2="68.3649" y2="61.6396" gradientUnits="userSpaceOnUse">
<stop stop-color="#F48DA1"/>
<stop offset="1" stop-color="#A14586"/>
</linearGradient>
<linearGradient id="paint41_linear_61_593" x1="72.5981" y1="31.1923" x2="70.3199" y2="57.1154" gradientUnits="userSpaceOnUse">
<stop stop-color="#E3D7AB"/>
<stop offset="1" stop-color="#DDAB97"/>
</linearGradient>
<linearGradient id="paint42_linear_61_593" x1="265.169" y1="79.0294" x2="282.094" y2="79.0294" gradientUnits="userSpaceOnUse">
<stop stop-color="#F48E76"/>
<stop offset="1" stop-color="#C65252"/>
</linearGradient>
<linearGradient id="paint43_linear_61_593" x1="228.666" y1="107.727" x2="270.53" y2="107.727" gradientUnits="userSpaceOnUse">
<stop stop-color="#ABD7C7"/>
<stop offset="1" stop-color="#5E83BA"/>
</linearGradient>
<linearGradient id="paint44_linear_61_593" x1="231.072" y1="107.727" x2="270.53" y2="107.727" gradientUnits="userSpaceOnUse">
<stop stop-color="#6A86C7"/>
<stop offset="0.81" stop-color="#3D5466"/>
</linearGradient>
<linearGradient id="paint45_linear_61_593" x1="241.514" y1="223.631" x2="250.712" y2="223.631" gradientUnits="userSpaceOnUse">
<stop stop-color="#F48E76"/>
<stop offset="1" stop-color="#C65252"/>
</linearGradient>
<linearGradient id="paint46_linear_61_593" x1="311.79" y1="172.713" x2="322.262" y2="172.713" gradientUnits="userSpaceOnUse">
<stop stop-color="#F48E76"/>
<stop offset="1" stop-color="#C65252"/>
</linearGradient>
<linearGradient id="paint47_linear_61_593" x1="236.583" y1="48.7002" x2="247.531" y2="48.7002" gradientUnits="userSpaceOnUse">
<stop stop-color="#F48E76"/>
<stop offset="1" stop-color="#C65252"/>
</linearGradient>
<linearGradient id="paint48_linear_61_593" x1="274.949" y1="86.714" x2="274.949" y2="133.612" gradientUnits="userSpaceOnUse">
<stop stop-color="#ABD7C7"/>
<stop offset="1" stop-color="#5E83BA"/>
</linearGradient>
<linearGradient id="paint49_linear_61_593" x1="260.561" y1="110.165" x2="288.998" y2="110.165" gradientUnits="userSpaceOnUse">
<stop stop-color="#6A86C7"/>
<stop offset="0.81" stop-color="#3D5466"/>
</linearGradient>
<linearGradient id="paint50_linear_61_593" x1="239.393" y1="73.1733" x2="289.293" y2="73.1733" gradientUnits="userSpaceOnUse">
<stop stop-color="#ABD7C7"/>
<stop offset="1" stop-color="#5E83BA"/>
</linearGradient>
<linearGradient id="paint51_linear_61_593" x1="239.393" y1="75.35" x2="289.293" y2="75.35" gradientUnits="userSpaceOnUse">
<stop stop-color="#6A86C7"/>
<stop offset="0.81" stop-color="#3D5466"/>
</linearGradient>
<linearGradient id="paint52_linear_61_593" x1="223.112" y1="123.009" x2="230.108" y2="123.009" gradientUnits="userSpaceOnUse">
<stop stop-color="#F48E76"/>
<stop offset="1" stop-color="#C65252"/>
</linearGradient>
<clipPath id="clip0_61_593">
<rect width="330" height="257" fill="white"/>
</clipPath>
</defs>
</svg>
