<svg width="160" height="60" viewBox="0 0 160 60" fill="none" xmlns="http://www.w3.org/2000/svg">
<rect y="4.15414" width="5.53886" height="55.3886" rx="2.76943" fill="#FD7401"/>
<rect x="22.1555" y="4.15414" width="5.53886" height="55.3886" rx="2.76943" fill="#FD7401"/>
<rect x="44.311" y="4.15414" width="5.53886" height="55.3886" rx="2.76943" fill="#FD7401"/>
<rect x="11.0776" width="5.53886" height="55.3886" rx="2.76943" fill="#1E2772"/>
<rect x="33.2332" width="5.53886" height="55.3886" rx="2.76943" fill="#1E2772"/>
<path d="M86.9326 23.2128C86.9326 24.0149 86.6462 24.6881 86.0732 25.2323C85.529 25.8052 84.8558 26.0917 84.0537 26.0917H66.8662C66.3219 26.1204 65.8636 26.2493 65.4912 26.4784C65.1475 26.6789 64.8896 26.9224 64.7178 27.2089C64.5459 27.4667 64.46 27.7388 64.46 28.0253C64.46 28.3118 64.5459 28.5982 64.7178 28.8847C64.8896 29.1425 65.1475 29.386 65.4912 29.6151C65.8636 29.8157 66.3219 29.9302 66.8662 29.9589H79.0693C81.0745 30.0162 82.7217 30.4888 84.0107 31.3769C85.3285 32.2362 86.2594 33.2388 86.8037 34.3847C87.3766 35.5019 87.6631 36.6477 87.6631 37.8222C87.6631 38.968 87.3766 40.1138 86.8037 41.2597C86.2308 42.3769 85.2998 43.3795 84.0107 44.2675C82.7217 45.1269 81.0745 45.5565 79.0693 45.5565H78.8115C78.6396 45.5852 78.4678 45.5995 78.2959 45.5995H62.0537C61.2516 45.5995 60.5641 45.3274 59.9912 44.7831C59.4469 44.2102 59.1748 43.5227 59.1748 42.7206C59.1748 41.9185 59.4613 41.2454 60.0342 40.7011C60.5785 40.1282 61.2516 39.8417 62.0537 39.8417H79.3271C79.8714 39.8704 80.3154 39.7701 80.6592 39.5409C81.0316 39.3118 81.3037 39.0539 81.4756 38.7675C81.6475 38.4524 81.7334 38.1373 81.7334 37.8222C81.7334 37.6217 81.6475 37.3495 81.4756 37.0058C81.3037 36.6334 81.0316 36.3326 80.6592 36.1034C80.3154 35.8743 79.8714 35.7454 79.3271 35.7167H67.124C65.1188 35.6594 63.4574 35.2011 62.1396 34.3417C60.8506 33.4823 59.9196 32.5084 59.3467 31.4198C58.8024 30.3026 58.5303 29.1711 58.5303 28.0253C58.5303 26.9081 58.8167 25.8052 59.3896 24.7167C59.9626 23.5995 60.8936 22.6112 62.1826 21.7519C63.4717 20.8925 65.1188 20.4342 67.124 20.3769H67.3818C67.5537 20.3482 67.7256 20.3339 67.8975 20.3339H84.0537C84.8558 20.3339 85.529 20.6204 86.0732 21.1933C86.6462 21.7375 86.9326 22.4107 86.9326 23.2128ZM101.585 19.1737C102.588 19.1737 103.562 19.3456 104.507 19.6894C105.481 20.0331 106.412 20.5344 107.3 21.1933C107.443 21.3365 107.601 21.4797 107.772 21.623C107.916 21.4797 108.073 21.3365 108.245 21.1933C109.133 20.5344 110.05 20.0331 110.995 19.6894C111.969 19.3456 112.943 19.1737 113.917 19.1737C114.92 19.1737 115.894 19.3456 116.839 19.6894C117.813 20.0331 118.729 20.5487 119.589 21.2362C120.477 21.8951 121.25 22.7831 121.909 23.9003C122.597 25.0175 122.94 26.3495 122.94 27.8964V43.4081C122.769 45.1269 121.823 46.0579 120.104 46.2011C119.302 46.2011 118.601 45.9433 117.999 45.4276C117.426 44.8834 117.14 44.2102 117.14 43.4081V28.2401C117.14 27.5526 117.011 26.9797 116.753 26.5214C116.495 26.0344 116.209 25.662 115.894 25.4042C115.578 25.1177 115.249 24.9172 114.905 24.8026C114.562 24.6594 114.218 24.5878 113.874 24.5878C113.53 24.5878 113.187 24.6594 112.843 24.8026C112.528 24.9172 112.213 25.1177 111.897 25.4042C111.582 25.662 111.296 26.0344 111.038 26.5214C110.78 26.9797 110.637 27.5526 110.608 28.2401V43.4081C110.437 45.1269 109.491 46.0579 107.772 46.2011C106.97 46.2011 106.269 45.9433 105.667 45.4276C105.094 44.8834 104.808 44.2102 104.808 43.4081V28.2401C104.808 27.5526 104.679 26.9797 104.421 26.5214C104.163 26.0344 103.877 25.662 103.562 25.4042C103.246 25.1177 102.917 24.9172 102.573 24.8026C102.229 24.6594 101.886 24.5878 101.542 24.5878C101.198 24.5878 100.854 24.6594 100.511 24.8026C100.196 24.9172 99.8805 25.1177 99.5654 25.4042C99.2503 25.662 98.9639 26.0344 98.7061 26.5214C98.4482 26.9797 98.305 27.5526 98.2764 28.2401V43.4081C98.1331 45.1269 97.2021 46.0579 95.4834 46.2011C94.6813 46.2011 93.9795 45.9433 93.3779 45.4276C92.805 44.8834 92.5186 44.2102 92.5186 43.4081V27.8964C92.5758 26.3495 92.9339 25.0175 93.5928 23.9003C94.2516 22.7831 95.0251 21.8951 95.9131 21.2362C96.8011 20.5487 97.7178 20.0331 98.6631 19.6894C99.637 19.3456 100.611 19.1737 101.585 19.1737ZM156.155 23.2128C156.155 24.0149 155.869 24.6881 155.296 25.2323C154.752 25.8052 154.078 26.0917 153.276 26.0917H136.089C135.545 26.1204 135.086 26.2493 134.714 26.4784C134.37 26.6789 134.112 26.9224 133.94 27.2089C133.769 27.4667 133.683 27.7388 133.683 28.0253C133.683 28.3118 133.769 28.5982 133.94 28.8847C134.112 29.1425 134.37 29.386 134.714 29.6151C135.086 29.8157 135.545 29.9302 136.089 29.9589H148.292C150.297 30.0162 151.944 30.4888 153.233 31.3769C154.551 32.2362 155.482 33.2388 156.026 34.3847C156.599 35.5019 156.886 36.6477 156.886 37.8222C156.886 38.968 156.599 40.1138 156.026 41.2597C155.453 42.3769 154.522 43.3795 153.233 44.2675C151.944 45.1269 150.297 45.5565 148.292 45.5565H148.034C147.862 45.5852 147.69 45.5995 147.519 45.5995H131.276C130.474 45.5995 129.787 45.3274 129.214 44.7831C128.67 44.2102 128.397 43.5227 128.397 42.7206C128.397 41.9185 128.684 41.2454 129.257 40.7011C129.801 40.1282 130.474 39.8417 131.276 39.8417H148.55C149.094 39.8704 149.538 39.7701 149.882 39.5409C150.254 39.3118 150.526 39.0539 150.698 38.7675C150.87 38.4524 150.956 38.1373 150.956 37.8222C150.956 37.6217 150.87 37.3495 150.698 37.0058C150.526 36.6334 150.254 36.3326 149.882 36.1034C149.538 35.8743 149.094 35.7454 148.55 35.7167H136.347C134.341 35.6594 132.68 35.2011 131.362 34.3417C130.073 33.4823 129.142 32.5084 128.569 31.4198C128.025 30.3026 127.753 29.1711 127.753 28.0253C127.753 26.9081 128.039 25.8052 128.612 24.7167C129.185 23.5995 130.116 22.6112 131.405 21.7519C132.694 20.8925 134.341 20.4342 136.347 20.3769H136.604C136.776 20.3482 136.948 20.3339 137.12 20.3339H153.276C154.078 20.3339 154.752 20.6204 155.296 21.1933C155.869 21.7375 156.155 22.4107 156.155 23.2128Z" fill="#1E2772"/>
</svg>
